<svg xmlns="http://www.w3.org/2000/svg" viewBox="0 0 232 300"><title>donk</title><g style="isolation:isolate"><path d="M211.29,193.39c-5.48-8.7-12-16.72-17.25-25.56-6.08-10.19-9.95-21.09-14.21-32.09-.5-1.3-1-2.46-1.44-3.49a76,76,0,0,0-5.34-12c-5.17-14.89,12.57-10.12,12.07,3.61-.52,14.21,33.62,16.12,22.7-10.92s-39.69-12.65-43.33-10.75c-2.5,1.31-5.23.27-6.7-.52-11.5-9.52-26-14.47-41.79-14.47s-30.29,5-41.79,14.48c-1.47.78-4.21,1.82-6.7.52C63.87,100.34,35.1,86,24.18,113s23.22,25.13,22.7,10.92c-.5-13.73,17.23-18.5,12.07-3.62a76,76,0,0,0-5.34,12c-.46,1-.94,2.19-1.44,3.49-4.27,11-8.14,21.9-14.21,32.09-5.27,8.84-11.77,16.86-17.25,25.56A83.62,83.62,0,0,0,8,242.31c.58,12.16,3.29,24.38,6.41,36.12,4,12.74,15.3,19.41,22.91,15.41l14-6.84c5.79-3,8.76-9.46,8.71-16.18a5.48,5.48,0,0,0,2.59-2.38,6.21,6.21,0,0,0-1.11-7.62c-2.13-2.07-3.85-5.19-5.45-7.68a46.37,46.37,0,0,1-4-7.59,41.15,41.15,0,0,1-2.76-14.32,62.78,62.78,0,0,1,.82-12.86c.09-.5.19-1,.3-1.5.93-2.12,4.45-8.39,10,2,.22.42.44.8.67,1.14a130.23,130.23,0,0,0,6.74,12.46c1.69,2.71,3.49,5.34,5.35,7.88,0,0,6.49,9.5,6.49,24.41,0,.3,0,.58,0,.85V289.8a5.2,5.2,0,0,0,5.2,5.2h20.8a5.2,5.2,0,0,0,5.2-5.2v-17c.29,0,0-.23,0-.52,0-2.58,2.62-4.68,5.2-4.68s5.2,2.1,5.2,4.68c0,.29-.29.52,0,.52v17a5.2,5.2,0,0,0,5.2,5.2h20.8a5.2,5.2,0,0,0,5.2-5.2V265.69c0-.28,0-.56,0-.88,0-14.9,6.49-24.41,6.48-24.42,1.88-2.53,3.67-5.16,5.36-7.87A130.22,130.22,0,0,0,171,220.07c.22-.35.45-.73.67-1.15,5.51-10.44,9-4.17,10-2,.11.5.22,1,.31,1.5a62.85,62.85,0,0,1,.82,12.86A41.14,41.14,0,0,1,180,245.55a46.3,46.3,0,0,1-4,7.59c-1.6,2.49-3.32,5.61-5.45,7.68a6.21,6.21,0,0,0-1.11,7.62,5.48,5.48,0,0,0,2.59,2.38c-.06,6.71,2.92,13.16,8.71,16.18l14,6.84c7.61,4,18.9-2.67,22.91-15.41,3.12-11.74,5.83-24,6.41-36.12A83.62,83.62,0,0,0,211.29,193.39Z" style="fill:#8f479b"/><path d="M147.19,295.83H126.4a6,6,0,0,1-6-6V273.18a1,1,0,0,1,0-.93v0c0-2.14-2.36-3.8-4.37-3.8s-4.33,1.65-4.37,3.79a1,1,0,0,1,0,1V289.8a6,6,0,0,1-6,6H84.8a6,6,0,0,1-6-6V265.66c0-.24,0-.53,0-.85,0-14.48-6.29-23.85-6.35-23.94-1.91-2.59-3.72-5.26-5.37-7.91a131.65,131.65,0,0,1-6.76-12.5c-.24-.38-.46-.76-.67-1.16-2.36-4.47-4.11-5.41-5.17-5.41-1.66,0-2.88,2.39-3.26,3.24-.1.46-.2.92-.28,1.38a61.62,61.62,0,0,0-.8,12.69,40,40,0,0,0,2.69,14,45.34,45.34,0,0,0,3.95,7.45c.32.5.65,1,1,1.57a31.78,31.78,0,0,0,4.34,6,7,7,0,0,1,1.26,8.62,6.41,6.41,0,0,1-2.48,2.5c-.1,7.24-3.58,13.49-9.15,16.39l-14,6.85a11,11,0,0,1-5.17,1.24c-7.82,0-15.77-7.21-18.9-17.15-2.85-10.73-5.83-23.4-6.45-36.33A84.67,84.67,0,0,1,20,193c2.5-4,5.25-7.86,7.92-11.62,3.18-4.49,6.47-9.13,9.33-13.92,5.28-8.84,8.81-18.06,12.55-27.81q.79-2.07,1.6-4.15c.49-1.27,1-2.45,1.46-3.52a76.65,76.65,0,0,1,5.34-12c1.08-3.16,1.16-5.62.22-6.94a2.6,2.6,0,0,0-2.2-1,7.68,7.68,0,0,0-5.14,2.62,12.47,12.47,0,0,0-3.36,9.29,9.15,9.15,0,0,1-2.67,6.8,15.43,15.43,0,0,1-11,4.25c-4.68,0-8.63-1.88-10.84-5.16-1.91-2.84-3.43-8.1.2-17.1C27.91,101.54,35.83,95.89,47,95.89c9.48,0,18.42,4.3,20.94,5.62a4.71,4.71,0,0,0,2.21.53,8.17,8.17,0,0,0,3.64-1C85.32,91.47,99.93,86.42,116,86.42s30.68,5.05,42.25,14.61a8.16,8.16,0,0,0,3.64,1,4.72,4.72,0,0,0,2.21-.53c2.52-1.32,11.46-5.62,20.94-5.62,11.12,0,19,5.65,23.55,16.79,3.63,9,2.12,14.27.2,17.1-2.21,3.28-6.16,5.16-10.84,5.16a15.42,15.42,0,0,1-11-4.25,9.14,9.14,0,0,1-2.67-6.8,12.47,12.47,0,0,0-3.36-9.29,7.68,7.68,0,0,0-5.14-2.62,2.6,2.6,0,0,0-2.2,1c-.94,1.32-.86,3.79.22,6.95a77.13,77.13,0,0,1,5.36,12c.45,1,.94,2.18,1.43,3.46s1.07,2.77,1.6,4.15c3.74,9.75,7.28,19,12.55,27.81,2.86,4.79,6.15,9.43,9.32,13.92,2.66,3.76,5.42,7.65,7.92,11.62a84.68,84.68,0,0,1,12.88,49.4c-.62,12.93-3.6,25.6-6.44,36.29-3.14,10-11.09,17.19-18.91,17.19h0a11,11,0,0,1-5.19-1.25l-14-6.83c-5.59-2.91-9.07-9.16-9.17-16.4a6.42,6.42,0,0,1-2.48-2.5,7,7,0,0,1,1.26-8.62,31.77,31.77,0,0,0,4.34-6c.33-.54.66-1.07,1-1.57a45.34,45.34,0,0,0,3.94-7.45,40,40,0,0,0,2.69-14,61.63,61.63,0,0,0-.8-12.69c-.08-.46-.18-.92-.28-1.38-.38-.85-1.61-3.24-3.26-3.24-1.49,0-3.32,1.92-5.17,5.41-.21.39-.43.77-.68,1.17A131.48,131.48,0,0,1,165,233c-1.7,2.72-3.51,5.38-5.39,7.9l0,0a46.62,46.62,0,0,0-6.3,23.91c0,.33,0,.63,0,.93V289.8A6,6,0,0,1,147.19,295.83ZM122,272h0V289.8a4.37,4.37,0,0,0,4.37,4.37h20.8a4.37,4.37,0,0,0,4.37-4.37V265.69c0-.31,0-.58,0-.88a48.94,48.94,0,0,1,6.26-24.3l0,0,.43-.58c1.86-2.5,3.65-5.13,5.33-7.81a129.94,129.94,0,0,0,6.69-12.37l0-.09c.21-.33.43-.69.64-1.09,2.24-4.24,4.41-6.3,6.64-6.3,2.54,0,4.11,2.7,4.81,4.31l.05.15c.11.51.22,1,.31,1.53a63.31,63.31,0,0,1,.83,13,41.66,41.66,0,0,1-2.82,14.61,46.89,46.89,0,0,1-4.09,7.73c-.32.5-.64,1-1,1.55a33.43,33.43,0,0,1-4.6,6.28,5.38,5.38,0,0,0-1,6.62,4.65,4.65,0,0,0,2.19,2l.51.22v.55c-.06,6.83,3.11,12.75,8.26,15.43l14,6.83a9.42,9.42,0,0,0,4.44,1.07c6.1,0,14-5.49,17.31-16,2.81-10.57,5.76-23.14,6.37-35.91a83,83,0,0,0-12.63-48.43c-2.48-3.94-5.22-7.81-7.87-11.55-3.2-4.51-6.5-9.18-9.39-14-5.35-9-9.07-18.68-12.68-28.07l-1.6-4.15c-.49-1.25-1-2.41-1.43-3.45a76,76,0,0,0-5.31-11.9l-.06-.13c-1.65-4.76-.93-7.26,0-8.53a4.22,4.22,0,0,1,3.56-1.73,9.34,9.34,0,0,1,6.34,3.13,14.11,14.11,0,0,1,3.82,10.5,7.53,7.53,0,0,0,2.21,5.59,13.94,13.94,0,0,0,9.79,3.75c4.12,0,7.57-1.61,9.47-4.42,2.42-3.59,2.29-9-.37-15.55-4.22-10.45-11.62-15.75-22-15.75-9.1,0-17.74,4.15-20.17,5.43a6.36,6.36,0,0,1-3,.72,9.86,9.86,0,0,1-4.5-1.24l-.14-.09C146,93,131.71,88.08,116,88.08S86,93,74.74,102.37l-.14.09a9.89,9.89,0,0,1-4.49,1.23,6.36,6.36,0,0,1-3-.72c-2.43-1.27-11.07-5.43-20.17-5.43-10.38,0-17.78,5.3-22,15.75-2.66,6.59-2.79,12-.37,15.55,1.9,2.81,5.35,4.43,9.47,4.43a13.94,13.94,0,0,0,9.79-3.75,7.53,7.53,0,0,0,2.21-5.59,14.12,14.12,0,0,1,3.82-10.5,9.34,9.34,0,0,1,6.34-3.13A4.22,4.22,0,0,1,59.77,112c.9,1.26,1.62,3.76,0,8.52l-.06.13a75.5,75.5,0,0,0-5.28,11.84c-.49,1.11-1,2.27-1.45,3.51l-1.6,4.14c-3.6,9.39-7.33,19.1-12.68,28.07-2.89,4.85-6.2,9.52-9.4,14-2.65,3.74-5.39,7.61-7.87,11.54A83,83,0,0,0,8.78,242.27c.61,12.77,3.57,25.34,6.38,35.94,3.29,10.46,11.2,16,17.3,16a9.39,9.39,0,0,0,4.42-1.06l14-6.85c5.13-2.68,8.29-8.59,8.24-15.42v-.55l.51-.22a4.65,4.65,0,0,0,2.19-2,5.38,5.38,0,0,0-1-6.62,33.43,33.43,0,0,1-4.6-6.28c-.33-.53-.65-1.05-1-1.55a47,47,0,0,1-4.09-7.73,41.68,41.68,0,0,1-2.82-14.61,63.3,63.3,0,0,1,.83-13c.09-.51.2-1,.31-1.53l.05-.15c.71-1.61,2.27-4.31,4.82-4.31,2.23,0,4.4,2.06,6.64,6.3.21.4.42.75.63,1.08l.05.09a130.06,130.06,0,0,0,6.7,12.38c1.63,2.61,3.42,5.24,5.31,7.83.29.42,6.65,9.91,6.65,24.9,0,.29,0,.55,0,.8V289.8a4.37,4.37,0,0,0,4.37,4.37h20.8A4.37,4.37,0,0,0,110,289.8V272a6.08,6.08,0,0,1,12,0Z" style="fill:#663270"/><path d="M84.8,160a15.6,15.6,0,1,1,15.6-15.6A15.62,15.62,0,0,1,84.8,160Z" style="fill:#4d2654"/><circle cx="84.8" cy="144.45" r="10.4" style="fill:#fff"/><path d="M147.2,160a15.6,15.6,0,1,1,15.6-15.6A15.62,15.62,0,0,1,147.2,160Z" style="fill:#4d2654"/><circle cx="147.2" cy="144.45" r="10.4" style="fill:#fff"/><circle cx="117" cy="114.81" r="7.8" style="fill:#663270"/><circle cx="131.56" cy="124.17" r="6.24" style="fill:#663270"/><circle cx="119.08" cy="129.37" r="4.16" style="fill:#663270"/><circle cx="134.68" cy="220.36" r="6.24" style="fill:#663270"/><circle cx="119.08" cy="224.78" r="2.6" style="fill:#663270"/><circle cx="128.44" cy="239.33" r="6.76" style="fill:#663270"/><path d="M84.28,295c0-5.74,1.16-9.36,2.6-9.36s2.6,3.62,2.6,9.36Z" style="fill:#eae5da"/><path d="M90.31,295.83H83.45V295c0-4.93.9-10.19,3.43-10.19s3.43,5.26,3.43,10.19Zm-5.19-1.66h3.52c-.11-5.75-1.4-7.7-1.76-7.7S85.24,288.41,85.12,294.17Z" style="fill:#663270"/><path d="M92.6,295c0-5.74,1.16-10.4,2.6-10.4s2.6,4.66,2.6,10.4Z" style="fill:#eae5da"/><path d="M98.63,295.83H91.77V295c0-4.17.72-11.23,3.43-11.23s3.43,7.06,3.43,11.23Zm-5.19-1.66H97c-.1-5.21-1.13-8.32-1.76-8.72C94.57,285.85,93.54,289,93.44,294.17Z" style="fill:#663270"/><path d="M100.92,295c0-5.74,1.16-9.36,2.6-9.36s2.6,3.62,2.6,9.36Z" style="fill:#eae5da"/><path d="M107,295.83h-6.86V295c0-4.93.9-10.19,3.43-10.19S107,290.07,107,295Zm-5.19-1.66h3.52c-.11-5.75-1.4-7.7-1.76-7.7S101.87,288.41,101.76,294.17Z" style="fill:#663270"/><path d="M125.88,295c0-5.74,1.16-9.36,2.6-9.36s2.6,3.62,2.6,9.36Z" style="fill:#eae5da"/><path d="M131.91,295.83H125V295c0-4.93.9-10.19,3.43-10.19s3.43,5.26,3.43,10.19Zm-5.19-1.66h3.52c-.11-5.75-1.4-7.7-1.76-7.7S126.83,288.41,126.72,294.17Z" style="fill:#663270"/><path d="M134.2,295c0-5.74,1.16-10.4,2.6-10.4s2.6,4.66,2.6,10.4Z" style="fill:#eae5da"/><path d="M140.23,295.83h-6.86V295c0-4.17.72-11.23,3.43-11.23s3.43,7.06,3.43,11.23ZM135,294.17h3.52c-.1-5.21-1.13-8.32-1.76-8.72C136.17,285.85,135.14,289,135,294.17Z" style="fill:#663270"/><path d="M142.52,295c0-5.74,1.16-9.36,2.6-9.36s2.6,3.62,2.6,9.36Z" style="fill:#eae5da"/><path d="M148.55,295.83h-6.86V295c0-4.93.9-10.19,3.43-10.19s3.43,5.26,3.43,10.19Zm-5.19-1.66h3.52c-.11-5.75-1.4-7.7-1.76-7.7S143.47,288.41,143.35,294.17Z" style="fill:#663270"/><path d="M168.37,173.54a.52.52,0,0,0-.71.21c-2.12,3.92-7.58,5.28-19,6.84-1.27.08-2.48.09-3.63.06a33.79,33.79,0,0,1-13.78-3.16c-2.24-1-4.29-2.19-6.31-3.35-7.3-4.19-14.23-8.14-28.64-4.37-1.25.33-2.53.69-3.9,1.14q-9.7,3.18-16.19,2.47a13.92,13.92,0,0,1-7.18-2.66c-5-3.87-4.61-10.57-4.6-10.63a.52.52,0,0,0-.48-.55l-.53,0a.53.53,0,0,0-.54.5c-.23,5.62,2,10.57,6.59,14.73,7.12,6.42,17.91,9,22.66,8.29,7.63-1.11,16.8-2,29.17,2.06,7.35,2.38,11.95,3.51,16.82,3.51,3.9,0,8-.72,13.79-2.09,13.28-3.12,17-11.68,17.11-12a.52.52,0,0,0-.28-.68Z" style="fill:#4d2654"/><path d="M76.4,174.43c1.66,11.71,7.39,28.12,12.34,26.52,3.75-1.6,5.66-21,7.38-30.05-1.07.29-2.18.61-3.34,1Q83.07,175.08,76.4,174.43Z" style="fill:#eae5da"/><path d="M88.06,201.89c-6,0-11.17-18.11-12.48-27.34l-.15-1,1.05.1c4.32.41,9.73-.43,16-2.5,1.08-.36,2.19-.68,3.39-1l1.28-.35-.25,1.3c-.4,2.1-.82,4.81-1.26,7.68-1.94,12.64-3.56,21.68-6.61,23A3.12,3.12,0,0,1,88.06,201.89ZM77.37,175.33c1.81,11.46,6.94,24.89,10.68,24.89a1.37,1.37,0,0,0,.43-.07c2.37-1,4.29-13.45,5.55-21.68.36-2.32.7-4.53,1-6.42-.7.2-1.37.41-2,.63C87,174.66,81.75,175.56,77.37,175.33Z" style="fill:#4d2654"/><path d="M80.56,174.46a26.56,26.56,0,0,1-4.16,0c1.66,11.71,7.39,28.12,12.34,26.52a2.78,2.78,0,0,0,1.11-1C85.8,196.12,81.89,183.81,80.56,174.46Z" style="fill:#eae5da;mix-blend-mode:multiply"/><path d="M136.26,192.63c2.87.93,6-4.2,8.45-11a34.49,34.49,0,0,1-13.2-2.94C132.72,185.61,134.22,191.76,136.26,192.63Z" style="fill:#eae5da"/><path d="M136.94,193.57h0a3,3,0,0,1-.94-.15c-2.13-.9-3.64-5.11-5.31-14.54l-.27-1.53,1.42.62a33.68,33.68,0,0,0,12.9,2.88l1.15,0-.39,1.08C143.57,187.25,140.52,193.57,136.94,193.57Zm-4.34-13.48c1.69,9,3.09,11.4,4,11.78a1.52,1.52,0,0,0,.36,0c1.46,0,3.93-2.51,6.59-9.45A35,35,0,0,1,132.6,180.08Z" style="fill:#4d2654"/><path d="M140.55,181.68c-1.6,4.41-3.49,8.11-5.41,9.9a2.77,2.77,0,0,0,1.11,1c2.87.93,6-4.2,8.45-11Z" style="fill:#eae5da;mix-blend-mode:multiply"/></g></svg>