<svg xmlns="http://www.w3.org/2000/svg" viewBox="0 0 232 300"><title>flip</title><g style="isolation:isolate"><path d="M116.17,168c-.7-2.3-3.34-3.73-5.25-4.9-1-.61-4.74-3.06-6.67-2.93a18.25,18.25,0,0,0-3.39.64V137.82H96.68v22.95a18.26,18.26,0,0,0-3.39-.64c-1.93-.13-5.68,2.32-6.67,2.93-1.91,1.17-4.56,2.6-5.25,4.9a4.17,4.17,0,0,0,6.94,4.16c.6-.6,1.4-2.08,2.33-2.93a1.57,1.57,0,0,1,2.44-.06c1.75,1.75-1.37,3.36-2.45,4.35-2.93,2.66-2.62,9.24,2.28,9.24a4.17,4.17,0,0,0,4.17-4.17s0,0,0-.05c0-1.45-1-3.56-.07-4.87a2.52,2.52,0,0,1,3.55,0c1,1.3,0,3.4-.08,4.85,0,0,0,0,0,.05a4.17,4.17,0,0,0,4.17,4.17c4.9,0,5.21-6.58,2.28-9.24-1.08-1-4.2-2.6-2.45-4.35a1.57,1.57,0,0,1,2.44.06c.93.85,1.73,2.33,2.33,2.93a4.17,4.17,0,0,0,6.94-4.16Z" style="fill:#8f479b"/><path d="M104.64,183.56a5,5,0,0,1-5-5s0-.07,0-.09a9.7,9.7,0,0,1,.25-1.66c.21-1,.42-2.07,0-2.66a1.5,1.5,0,0,0-1.14-.4,1.37,1.37,0,0,0-1.07.38c-.44.6-.22,1.65,0,2.67a9.77,9.77,0,0,1,.25,1.69,5,5,0,0,1-5,5.07,4.66,4.66,0,0,1-4.56-3.08,7.33,7.33,0,0,1,1.72-7.61c.22-.2.53-.43.86-.68.67-.51,1.8-1.35,1.84-1.93,0-.06,0-.23-.28-.53-.45-.45-.76-.4-1.29.09a10.68,10.68,0,0,0-1.35,1.68,9.71,9.71,0,0,1-.95,1.23,5,5,0,0,1-7.08,0,5.07,5.07,0,0,1-1.25-5c.73-2.42,3.18-3.9,5.14-5.09l.76-.47c2.24-1.39,5.07-3,6.87-2.87a12.06,12.06,0,0,1,2.5.42V137.82a.83.83,0,0,1,.83-.83h4.19a.83.83,0,0,1,.83.83v21.89a12.13,12.13,0,0,1,2.55-.42h.15c1.81,0,4.51,1.54,6.67,2.88l.76.47c2,1.19,4.41,2.66,5.14,5.09a5.07,5.07,0,0,1-1.25,5,5,5,0,0,1-3.54,1.47h0a5,5,0,0,1-3.54-1.47,9.63,9.63,0,0,1-1-1.23,10.62,10.62,0,0,0-1.35-1.68c-.53-.48-.84-.54-1.29-.09-.29.29-.28.47-.28.53,0,.58,1.17,1.43,1.84,1.93.33.25.64.48.86.68a7.33,7.33,0,0,1,1.72,7.61A4.66,4.66,0,0,1,104.64,183.56Zm-5.9-11.47a3,3,0,0,1,2.48,1.08c.86,1.19.55,2.73.29,4a8.46,8.46,0,0,0-.21,1.38,3.35,3.35,0,0,0,3.34,3.38,3,3,0,0,0,3-2,5.64,5.64,0,0,0-1.29-5.78c-.19-.17-.45-.37-.74-.58-1.07-.81-2.41-1.81-2.5-3.15a2.3,2.3,0,0,1,.76-1.82,2.37,2.37,0,0,1,3.58,0,11.8,11.8,0,0,1,1.59,2,9,9,0,0,0,.77,1,3.32,3.32,0,0,0,2.36,1h0a3.32,3.32,0,0,0,2.36-1,3.39,3.39,0,0,0,.83-3.34c-.55-1.81-2.69-3.11-4.41-4.15l-.78-.48c-1-.65-4.22-2.63-5.79-2.63h-.09a12.78,12.78,0,0,0-2.55.45l-.7.17a.83.83,0,0,1-1-.81V138.66H97.51v22.12a.83.83,0,0,1-1,.81l-.7-.17a12.87,12.87,0,0,0-2.5-.45h-.15c-1.57,0-4.74,2-5.79,2.63l-.78.48c-1.72,1-3.86,2.33-4.41,4.15a3.39,3.39,0,0,0,.83,3.34,3.42,3.42,0,0,0,4.73,0,9.14,9.14,0,0,0,.77-1,11.79,11.79,0,0,1,1.59-2,2.37,2.37,0,0,1,3.58,0,2.3,2.3,0,0,1,.76,1.82c-.1,1.34-1.43,2.34-2.5,3.15-.29.21-.55.41-.74.58a5.65,5.65,0,0,0-1.29,5.78,3,3,0,0,0,3,2,3.35,3.35,0,0,0,3.34-3.34,8.68,8.68,0,0,0-.22-1.42c-.26-1.25-.57-2.8.3-4A3,3,0,0,1,98.73,172.08Z" style="fill:#7f418c"/><path d="M158,168c-.7-2.3-3.34-3.73-5.25-4.9-1-.61-4.74-3.06-6.67-2.93a18.26,18.26,0,0,0-3.39.64V137.82h-4.19v22.95a18.26,18.26,0,0,0-3.39-.64c-1.93-.13-5.68,2.32-6.67,2.93-1.91,1.17-4.56,2.6-5.25,4.9a4.17,4.17,0,0,0,6.94,4.16c.6-.6,1.4-2.08,2.33-2.93a1.57,1.57,0,0,1,2.44-.06c1.75,1.75-1.37,3.36-2.45,4.35-2.93,2.66-2.62,9.24,2.28,9.24a4.17,4.17,0,0,0,4.17-4.17s0,0,0-.05c0-1.45-1-3.56-.07-4.87a2.52,2.52,0,0,1,3.55,0c1,1.3,0,3.4-.08,4.85,0,0,0,0,0,.05a4.17,4.17,0,0,0,4.17,4.17c4.9,0,5.21-6.58,2.28-9.24-1.08-1-4.2-2.6-2.45-4.35a1.57,1.57,0,0,1,2.44.06c.93.85,1.73,2.33,2.33,2.93A4.17,4.17,0,0,0,158,168Z" style="fill:#8f479b"/><path d="M146.5,183.56a5,5,0,0,1-5-5s0-.07,0-.09a9.68,9.68,0,0,1,.25-1.66c.21-1,.42-2.06,0-2.66a1.51,1.51,0,0,0-1.14-.4,1.37,1.37,0,0,0-1.07.38c-.44.6-.22,1.65,0,2.67a9.77,9.77,0,0,1,.25,1.69,5,5,0,0,1-5,5.07,4.66,4.66,0,0,1-4.56-3.08,7.33,7.33,0,0,1,1.72-7.61c.22-.2.53-.43.86-.68.67-.5,1.8-1.35,1.84-1.93,0-.06,0-.23-.28-.53-.45-.45-.76-.4-1.29.09a10.67,10.67,0,0,0-1.35,1.68,9.63,9.63,0,0,1-1,1.23,5,5,0,0,1-7.08,0,5.07,5.07,0,0,1-1.25-5c.73-2.42,3.18-3.9,5.14-5.09l.76-.47c2.24-1.39,5.07-3,6.87-2.87a12.06,12.06,0,0,1,2.5.42V137.82a.83.83,0,0,1,.83-.83h4.19a.83.83,0,0,1,.83.83v21.89a12.14,12.14,0,0,1,2.55-.42h.15c1.81,0,4.51,1.54,6.67,2.88l.76.47c2,1.19,4.41,2.66,5.14,5.09a5.07,5.07,0,0,1-1.25,5,5,5,0,0,1-3.54,1.47h0a5,5,0,0,1-3.54-1.47,9.72,9.72,0,0,1-1-1.23,10.59,10.59,0,0,0-1.35-1.68c-.53-.49-.84-.54-1.29-.09-.29.29-.28.47-.28.53,0,.58,1.17,1.43,1.84,1.93.33.25.64.48.86.68a7.33,7.33,0,0,1,1.72,7.61A4.66,4.66,0,0,1,146.5,183.56Zm-5.9-11.47a3,3,0,0,1,2.48,1.08c.86,1.19.55,2.73.29,4a8.43,8.43,0,0,0-.21,1.38,3.35,3.35,0,0,0,3.34,3.38,3,3,0,0,0,3-2,5.64,5.64,0,0,0-1.29-5.78c-.19-.17-.45-.37-.74-.58-1.07-.81-2.41-1.81-2.5-3.15a2.3,2.3,0,0,1,.76-1.82,2.37,2.37,0,0,1,3.58,0,11.76,11.76,0,0,1,1.59,2,9.06,9.06,0,0,0,.77,1,3.32,3.32,0,0,0,2.36,1h0a3.32,3.32,0,0,0,2.36-1,3.38,3.38,0,0,0,.83-3.34c-.55-1.81-2.69-3.11-4.41-4.15l-.78-.48c-1-.65-4.22-2.63-5.79-2.63h-.09a12.8,12.8,0,0,0-2.55.45l-.7.17a.83.83,0,0,1-1-.81V138.66h-2.52v22.12a.83.83,0,0,1-1,.81l-.7-.17a12.87,12.87,0,0,0-2.5-.45H135c-1.57,0-4.74,2-5.79,2.63l-.78.48c-1.72,1-3.86,2.33-4.41,4.15a3.38,3.38,0,0,0,.83,3.34,3.34,3.34,0,0,0,4.73,0,9,9,0,0,0,.77-1,11.83,11.83,0,0,1,1.59-2,2.37,2.37,0,0,1,3.58,0,2.3,2.3,0,0,1,.76,1.82c-.09,1.34-1.43,2.34-2.5,3.15-.29.21-.55.41-.74.58a5.65,5.65,0,0,0-1.29,5.78,3,3,0,0,0,3,2,3.35,3.35,0,0,0,3.34-3.34,8.62,8.62,0,0,0-.22-1.42c-.26-1.25-.57-2.8.3-4A3,3,0,0,1,140.6,172.08Z" style="fill:#7f418c"/><path d="M55,57.39H55l0-.07Z" style="fill:#8f479b"/><path d="M55,58.22h0a.88.88,0,0,1-.71-.39.84.84,0,0,1-.08-.78.89.89,0,0,1,.7-.52.82.82,0,0,1,.78.33.89.89,0,0,1,.06.91A.84.84,0,0,1,55,58.22Z" style="fill:#7f418c"/><path d="M49.73,43.67l.13.06,0-.19Z" style="fill:#8f479b"/><path d="M49.85,44.56a.8.8,0,0,1-.34-.07h0l-.1,0a.83.83,0,0,1-.29-1.3l.07-.08a.86.86,0,0,1,.9-.28.83.83,0,0,1,.6.69l0,.17a.85.85,0,0,1-.35.77A.86.86,0,0,1,49.85,44.56Z" style="fill:#7f418c"/><path d="M72.68,47.64c-11.89-2.32-19.85-12.7-21.15-14.49a10.42,10.42,0,0,1-1.68,10.39l0,.19A10.43,10.43,0,0,1,55,57.32l0,.07h.07a8.37,8.37,0,0,1,7.62,8.71C75.32,63,83.3,81.24,83.3,81.24l3.21.28C75.28,66.12,73.75,54.72,74.3,48.15A8.58,8.58,0,0,0,72.68,47.64Z" style="fill:#8f479b"/><path d="M86.51,82.35h-.07l-3.21-.28a.83.83,0,0,1-.69-.5c-.07-.15-6.69-15-16.94-15a11.23,11.23,0,0,0-2.67.33.83.83,0,0,1-1-.84A7.52,7.52,0,0,0,55,58.22a1,1,0,0,1-.67-.35l0-.07a.89.89,0,0,1-.08-.81,9.6,9.6,0,0,0-4.72-12.51.83.83,0,0,1-.47-.68l0-.18a.83.83,0,0,1,.19-.61,9.59,9.59,0,0,0,1.55-9.57.83.83,0,0,1,1.45-.79c1.43,2,9.13,11.92,20.63,14.16a9.28,9.28,0,0,1,1.78.56.83.83,0,0,1,.51.84C74.57,54.89,76.22,66,87.18,81a.83.83,0,0,1-.67,1.32Zm-2.66-1.9.93.08C74.78,66.27,73,55.48,73.43,48.7a6.83,6.83,0,0,0-.91-.25c-9.19-1.79-16-8.2-19.46-12.1a11.29,11.29,0,0,1-2,7,11.34,11.34,0,0,1,5.63,10.77,11.19,11.19,0,0,1-.52,2.54,9.17,9.17,0,0,1,7.43,8.38,12.65,12.65,0,0,1,2.05-.17C76,64.91,82.6,77.8,83.85,80.45Z" style="fill:#7f418c"/><path d="M182.08,68.51H182l.05-.06Z" style="fill:#8f479b"/><path d="M182.1,69.34h-.19a.8.8,0,0,1-.7-.54.84.84,0,0,1,.22-.88.88.88,0,0,1,1.36.15.83.83,0,0,1-.69,1.29Z" style="fill:#7f418c"/><path d="M189.61,55.91l-.14,0,0-.18Z" style="fill:#8f479b"/><path d="M189.52,56.76a.86.86,0,0,1-.6-.24.83.83,0,0,1-.24-.8l0-.18a.83.83,0,0,1,1.52-.2l.08.13a.83.83,0,0,1-.49,1.22l-.08,0A.89.89,0,0,1,189.52,56.76Z" style="fill:#7f418c"/><path d="M166.33,55.83c12.11-.22,21.76-9.06,23.34-10.6a10.42,10.42,0,0,0-.15,10.53l0,.18a10.44,10.44,0,0,0-7.41,12.49l-.05.06h-.07a8.37,8.37,0,0,0-9,7.25C161.05,70.5,150,87.08,150,87.08l-3.22-.28C160.56,73.58,164,62.62,164.64,56.05A8.77,8.77,0,0,1,166.33,55.83Z" style="fill:#8f479b"/><path d="M150,87.91H150l-3.22-.28a.83.83,0,0,1-.5-1.43c13.41-12.9,17-23.56,17.57-30.22a.83.83,0,0,1,.65-.74,9.54,9.54,0,0,1,1.84-.24c11.72-.21,21-8.67,22.78-10.36a.83.83,0,0,1,1.29,1,9.59,9.59,0,0,0-.14,9.69.83.83,0,0,1,.08.62l-.05.19a.83.83,0,0,1-.58.58,9.61,9.61,0,0,0-6.82,11.5.83.83,0,0,1-.19.75l-.09.1a.83.83,0,0,1-.64.23h-.11l-.63,0a7.55,7.55,0,0,0-7.46,6.56.83.83,0,0,1-1.16.65,11,11,0,0,0-4.45-1c-9.32,0-17.33,11.87-17.41,12A.83.83,0,0,1,150,87.91Zm-1.34-1.78.93.08c1.57-2.22,9.22-12.32,18.51-12.32a12.5,12.5,0,0,1,4.16.71,9.22,9.22,0,0,1,8.77-7A11.16,11.16,0,0,1,181,65a11.34,11.34,0,0,1,7.42-9.63,11.29,11.29,0,0,1-.79-7.28c-4,3.24-11.91,8.36-21.27,8.53a6.72,6.72,0,0,0-.94.09C164.63,63.5,161,73.82,148.69,86.13Z" style="fill:#7f418c"/><path d="M175.1,119.61c-2.42,27.64-30.56,26.74-65.11,23.72s-62.42-7-60-34.67,32.39-47.6,66.94-44.57S177.52,92,175.1,119.61Z" style="fill:#e14e9e"/><path d="M136,145.62c-7.69,0-16-.59-26-1.47C74,141,46.73,136.4,49.16,108.59,51.44,82.57,77.6,63,110,63c2.31,0,4.66.1,7,.31,35,3.06,61.39,28.37,58.93,56.42C173.93,142.54,154.6,145.62,136,145.62ZM110,64.61c-31.55,0-57,19-59.2,44.12-2.3,26.33,23.1,30.6,59.25,33.77,10,.88,18.26,1.46,25.89,1.46,25.36,0,36.83-7.3,38.32-24.42,2.37-27.14-23.39-51.64-57.42-54.62C114.58,64.72,112.28,64.61,110,64.61Z" style="fill:#a93b77"/><path d="M125.06,81.61a14.67,14.67,0,0,0-15.69,12,10.45,10.45,0,1,0,.71,7.77,14.64,14.64,0,1,0,15-19.74Z" style="fill:#a93b77"/><circle cx="100.06" cy="98.33" r="6.28" transform="translate(-6.62 189.43) rotate(-85)" style="fill:#fff"/><circle cx="123.78" cy="96.2" r="10.47" transform="translate(17.15 211.13) rotate(-85)" style="fill:#fff"/><circle cx="88.74" cy="75.74" r="4.19" transform="translate(5.55 157.53) rotate(-85)" style="fill:#a93b77"/><circle cx="98.68" cy="77.45" r="3.35" transform="translate(12.93 169) rotate(-85)" style="fill:#a93b77"/><path d="M100.06,71.26a6.24,6.24,0,0,0,6.81-6.58,74.69,74.69,0,0,0-12.42,1.55A6.28,6.28,0,0,0,100.06,71.26Z" style="fill:#a93b77"/><circle cx="151.26" cy="94.09" r="4.19" transform="translate(44.33 236.57) rotate(-85)" style="fill:#a93b77"/><circle cx="151.07" cy="105.85" r="4.19" transform="translate(32.47 247.12) rotate(-85)" style="fill:#a93b77"/><circle cx="161.59" cy="100.88" r="5.02" transform="translate(47.02 253.08) rotate(-85.01)" style="fill:#a93b77"/><path d="M79.33,100.79c-4.7.13-11,12.13-9.81,20.51a31.08,31.08,0,0,0,11.69-.08c1.65-.27,3.26-.48,4.85-.65C83.05,112.3,82.72,100.2,79.33,100.79Z" style="fill:#eae5da"/><path d="M74.58,122.64h0a23.93,23.93,0,0,1-5.24-.53l-.56-.13-.08-.57c-.87-6.28,2.23-14.29,5.72-18.42,1.63-1.92,3.3-3,4.83-3l.31,0c2.62,0,3.5,4.32,4.73,10.3a74.3,74.3,0,0,0,2.55,10.05l.36,1-1.05.11c-1.62.17-3.24.39-4.81.65A42.85,42.85,0,0,1,74.58,122.64Zm-4.3-2a31.91,31.91,0,0,0,10.81-.21c1.26-.2,2.56-.39,3.86-.54a85.43,85.43,0,0,1-2.27-9.29c-.84-4.09-1.86-9.21-3.2-9h-.12c-1,0-2.35.9-3.66,2.45C72.53,107.79,69.73,114.88,70.27,120.61Z" style="fill:#a93b77"/><path d="M141.37,109.16c-3.24-.56-3.69,10.48-6.36,18.69,5.49,1.42,11.9,1.44,16.31.12C151.52,119.76,145.75,109.28,141.37,109.16Z" style="fill:#eae5da"/><path d="M143.78,129.77h0a36.34,36.34,0,0,1-9-1.12l-.86-.22.27-.84a85.61,85.61,0,0,0,2.18-9c1.23-6,2.11-10.3,4.73-10.3l.31,0c4.92.22,10.91,11.19,10.7,19.66l0,.6-.58.17A27.8,27.8,0,0,1,143.78,129.77Zm-7.72-2.52a35.05,35.05,0,0,0,7.72.85h0a27.13,27.13,0,0,0,6.7-.77c-.09-7.91-5.54-17.25-9.14-17.35h-.21c-1.26,0-2.28,5-3.1,9C137.49,121.58,136.88,124.55,136.06,127.25Z" style="fill:#a93b77"/><g style="mix-blend-mode:multiply"><path d="M73.67,121.3c-1-7,3.21-16.43,7.34-19.5-.47-.74-1-1.12-1.69-1-4.7.13-11,12.13-9.81,20.51a25.59,25.59,0,0,0,7.21.43A20.84,20.84,0,0,1,73.67,121.3Z" style="fill:#eae5da"/></g><g style="mix-blend-mode:multiply"><path d="M141.37,109.16c-.67-.12-1.21.27-1.69,1,3.81,2.83,7.65,11.07,7.48,17.81a24.77,24.77,0,0,1-5.46.9,29.08,29.08,0,0,0,9.62-.9C151.52,119.76,145.75,109.28,141.37,109.16Z" style="fill:#eae5da"/></g><path d="M143.87,129.77a36.68,36.68,0,0,1-9.86-1.33c-1.39-.4-2.95-.89-4.59-1.41-10.62-3.36-26.68-8.45-48.07-5-9,1.45-15.2.28-18.53-3.49-4.06-4.6-2.16-11.24-2.08-11.52a.83.83,0,0,1,1.59.47c0,.06-1.71,6.05,1.74,10,2.92,3.31,8.65,4.3,17,2.94,21.78-3.53,38.06,1.63,48.84,5,1.63.52,3.18,1,4.55,1.4,7.64,2.2,17.35,1.41,20.38-1.65a2.85,2.85,0,0,0,.78-3,.83.83,0,0,1,1.59-.47,4.5,4.5,0,0,1-1.19,4.68C153.7,128.72,148.93,129.77,143.87,129.77Z" style="fill:#a93b77"/><path d="M79.82,48a.42.42,0,0,1-.42-.42,5.87,5.87,0,0,0-5.86-5.86.42.42,0,1,1,0-.83,6.7,6.7,0,0,1,6.7,6.7A.42.42,0,0,1,79.82,48Z" style="fill:#e14e9e"/><path d="M81.5,46.28a.42.42,0,0,1-.42-.42A5.87,5.87,0,0,0,75.22,40a.42.42,0,1,1,0-.83,6.7,6.7,0,0,1,6.7,6.69A.42.42,0,0,1,81.5,46.28Z" style="fill:#e14e9e"/><path d="M158.95,56.33a.42.42,0,0,1-.42-.42,6.7,6.7,0,0,1,6.7-6.7.42.42,0,0,1,0,.83,5.87,5.87,0,0,0-5.86,5.86A.42.42,0,0,1,158.95,56.33Z" style="fill:#e14e9e"/><path d="M157.27,54.65a.42.42,0,0,1-.42-.42,6.7,6.7,0,0,1,6.69-6.69.42.42,0,0,1,0,.83,5.87,5.87,0,0,0-5.86,5.86A.42.42,0,0,1,157.27,54.65Z" style="fill:#e14e9e"/><path d="M193.56,56.79a.42.42,0,0,1-.29-.71,5.86,5.86,0,0,0,0-8.29.42.42,0,1,1,.59-.59,6.69,6.69,0,0,1,0,9.47A.41.41,0,0,1,193.56,56.79Z" style="fill:#e14e9e"/><path d="M195.92,56.79a.42.42,0,0,1-.29-.71,5.86,5.86,0,0,0,0-8.29.42.42,0,1,1,.59-.59,6.7,6.7,0,0,1,0,9.47A.41.41,0,0,1,195.92,56.79Z" style="fill:#e14e9e"/><path d="M52.19,63a6.7,6.7,0,0,1-6.7-6.7.42.42,0,0,1,.83,0,5.87,5.87,0,0,0,5.86,5.87.42.42,0,0,1,0,.83Z" style="fill:#e14e9e"/><path d="M50.52,64.7a6.7,6.7,0,0,1-6.7-6.7.42.42,0,0,1,.83,0,5.87,5.87,0,0,0,5.86,5.86.42.42,0,1,1,0,.83Z" style="fill:#e14e9e"/></g></svg>