<svg xmlns="http://www.w3.org/2000/svg" viewBox="0 0 232 300"><title>george</title><path d="M89.9,266.12v-29.4H84.07v29.4A17.48,17.48,0,0,0,69.5,283.34h35A17.48,17.48,0,0,0,89.9,266.12Z" style="fill:#62c3ca"/><path d="M105.3,284.17H68.67v-.83a18.24,18.24,0,0,1,14.57-17.91V235.88h7.49v29.55a18.24,18.24,0,0,1,14.57,17.91Zm-35-1.66h33.27a16.58,16.58,0,0,0-13.86-15.57l-.69-.12V237.54H84.91v29.28l-.69.12A16.58,16.58,0,0,0,70.35,282.51Z" style="fill:#57b0b6"/><path d="M110.88,286.21c0,4.83-3.91,4.08-8.74,4.08s-8.74.75-8.74-4.08,3.91-14.57,8.74-14.57S110.88,281.38,110.88,286.21Z" style="fill:#62c3ca"/><path d="M105.38,291.16l-1.53,0c-1.1,0-2.31,0-3.42,0-2.49,0-4.48.06-5.91-.77s-2-2.13-2-4.16c0-5.14,4.14-15.4,9.57-15.4s9.57,10.27,9.57,15.4C111.72,290.78,108.44,291.16,105.38,291.16Zm-3.23-1.7,1.74,0,1.49,0c3.3,0,4.68-.46,4.68-3.29,0-4.41-3.74-13.74-7.91-13.74s-7.91,9.33-7.91,13.74c0,1.83.6,2.42,1.13,2.73a7.62,7.62,0,0,0,3.55.56l1.49,0Z" style="fill:#57b0b6"/><ellipse cx="102.14" cy="286.84" rx="1.75" ry="5.83" style="fill:#f3f7d1"/><path d="M102.14,293.5c-1.9,0-2.58-3.59-2.58-6.66s.68-6.66,2.58-6.66,2.58,3.59,2.58,6.66S104,293.5,102.14,293.5Zm0-11.56a13.56,13.56,0,0,0,0,9.8,13.55,13.55,0,0,0,0-9.8Z" style="fill:#57b0b6"/><path d="M80.58,286.21c0,4.83-3.92,4.08-8.74,4.08s-8.74.75-8.74-4.08,3.91-14.57,8.74-14.57S80.58,281.38,80.58,286.21Z" style="fill:#62c3ca"/><path d="M75.07,291.16l-1.53,0c-1.1,0-2.31,0-3.42,0-2.49,0-4.48.06-5.91-.77s-2-2.13-2-4.16c0-5.14,4.14-15.4,9.57-15.4s9.57,10.27,9.57,15.4C81.41,290.78,78.14,291.16,75.07,291.16Zm-3.23-1.7,1.74,0,1.49,0c3.3,0,4.68-.46,4.68-3.29,0-4.41-3.74-13.74-7.91-13.74s-7.91,9.33-7.91,13.74c0,1.83.6,2.42,1.13,2.73a7.62,7.62,0,0,0,3.55.56l1.49,0Z" style="fill:#57b0b6"/><ellipse cx="71.83" cy="286.84" rx="1.75" ry="5.83" style="fill:#f3f7d1"/><path d="M71.83,293.5c-1.9,0-2.58-3.59-2.58-6.66s.68-6.66,2.58-6.66,2.58,3.59,2.58,6.66S73.74,293.5,71.83,293.5Zm0-11.56a13.55,13.55,0,0,0,0,9.8,13.55,13.55,0,0,0,0-9.8Z" style="fill:#57b0b6"/><path d="M95.73,288.54c0,4.83-3.91,4.08-8.74,4.08s-8.74.75-8.74-4.08S82.16,274,87,274,95.73,283.72,95.73,288.54Z" style="fill:#62c3ca"/><path d="M90.22,293.5l-1.53,0c-1.1,0-2.31,0-3.42,0-2.49,0-4.48.06-5.91-.77s-2-2.13-2-4.16c0-5.14,4.14-15.4,9.57-15.4s9.57,10.27,9.57,15.4C96.56,293.11,93.29,293.5,90.22,293.5ZM87,291.79l1.74,0,1.49,0c3.3,0,4.68-.46,4.68-3.29,0-4.41-3.74-13.74-7.91-13.74s-7.91,9.33-7.91,13.74c0,1.83.61,2.42,1.13,2.73a7.62,7.62,0,0,0,3.55.56l1.49,0Z" style="fill:#57b0b6"/><ellipse cx="86.99" cy="289.17" rx="1.75" ry="5.83" style="fill:#f3f7d1"/><path d="M87,295.83c-1.9,0-2.58-3.59-2.58-6.66s.68-6.66,2.58-6.66,2.58,3.59,2.58,6.66S88.89,295.83,87,295.83Zm0-11.56a13.55,13.55,0,0,0,0,9.8,13.55,13.55,0,0,0,0-9.8Z" style="fill:#57b0b6"/><path d="M148.19,266.12v-29.4h-5.83v29.4a17.48,17.48,0,0,0-14.57,17.22h35A17.48,17.48,0,0,0,148.19,266.12Z" style="fill:#62c3ca"/><path d="M163.59,284.17H127v-.83a18.24,18.24,0,0,1,14.57-17.91V235.88H149v29.55a18.24,18.24,0,0,1,14.57,17.91Zm-35-1.66h33.27A16.58,16.58,0,0,0,148,266.94l-.69-.12V237.54h-4.17v29.28l-.69.12A16.58,16.58,0,0,0,128.64,282.51Z" style="fill:#57b0b6"/><path d="M169.17,286.21c0,4.83-3.91,4.08-8.74,4.08s-8.74.75-8.74-4.08,3.91-14.57,8.74-14.57S169.17,281.38,169.17,286.21Z" style="fill:#62c3ca"/><path d="M163.66,291.16l-1.53,0c-1.1,0-2.31,0-3.42,0-2.49,0-4.48.06-5.91-.77s-2-2.13-2-4.16c0-5.14,4.14-15.4,9.57-15.4s9.57,10.27,9.57,15.4C170,290.78,166.73,291.16,163.66,291.16Zm-3.23-1.7,1.74,0,1.49,0c3.3,0,4.68-.46,4.68-3.29,0-4.41-3.74-13.74-7.91-13.74s-7.91,9.33-7.91,13.74c0,1.83.61,2.42,1.13,2.73a7.62,7.62,0,0,0,3.55.56l1.49,0Z" style="fill:#57b0b6"/><ellipse cx="160.43" cy="286.84" rx="1.75" ry="5.83" style="fill:#f3f7d1"/><path d="M160.43,293.5c-1.9,0-2.58-3.59-2.58-6.66s.68-6.66,2.58-6.66,2.58,3.59,2.58,6.66S162.33,293.5,160.43,293.5Zm0-11.56a13.55,13.55,0,0,0,0,9.8,13.55,13.55,0,0,0,0-9.8Z" style="fill:#57b0b6"/><path d="M138.86,286.21c0,4.83-3.91,4.08-8.74,4.08s-8.74.75-8.74-4.08,3.91-14.57,8.74-14.57S138.86,281.38,138.86,286.21Z" style="fill:#62c3ca"/><path d="M133.35,291.16l-1.53,0c-1.1,0-2.31,0-3.42,0-2.49,0-4.48.06-5.91-.77s-2-2.13-2-4.16c0-5.14,4.14-15.4,9.57-15.4s9.57,10.27,9.57,15.4C139.69,290.78,136.42,291.16,133.35,291.16Zm-3.23-1.7,1.74,0,1.49,0c3.3,0,4.68-.46,4.68-3.29,0-4.41-3.74-13.74-7.91-13.74s-7.91,9.33-7.91,13.74c0,1.83.6,2.42,1.13,2.73a7.62,7.62,0,0,0,3.55.56l1.49,0Z" style="fill:#57b0b6"/><ellipse cx="130.12" cy="286.84" rx="1.75" ry="5.83" style="fill:#f3f7d1"/><path d="M130.12,293.5c-1.9,0-2.58-3.59-2.58-6.66s.68-6.66,2.58-6.66,2.58,3.59,2.58,6.66S132,293.5,130.12,293.5Zm0-11.56a13.55,13.55,0,0,0,0,9.8,13.55,13.55,0,0,0,0-9.8Z" style="fill:#57b0b6"/><path d="M154,288.54c0,4.83-3.92,4.08-8.74,4.08s-8.74.75-8.74-4.08S140.44,274,145.27,274,154,283.72,154,288.54Z" style="fill:#62c3ca"/><path d="M148.51,293.5l-1.53,0c-1.1,0-2.31,0-3.42,0-2.49,0-4.48.06-5.91-.77s-2-2.13-2-4.16c0-5.14,4.14-15.4,9.57-15.4s9.57,10.27,9.57,15.4C154.85,293.11,151.57,293.5,148.51,293.5Zm-3.23-1.7,1.74,0,1.49,0c3.3,0,4.68-.46,4.68-3.29,0-4.41-3.74-13.74-7.91-13.74s-7.91,9.33-7.91,13.74c0,1.83.61,2.42,1.13,2.73a7.62,7.62,0,0,0,3.55.56l1.49,0Z" style="fill:#57b0b6"/><ellipse cx="145.27" cy="289.17" rx="1.75" ry="5.83" style="fill:#f3f7d1"/><path d="M145.27,295.83c-1.9,0-2.58-3.59-2.58-6.66s.68-6.66,2.58-6.66,2.58,3.59,2.58,6.66S147.18,295.83,145.27,295.83Zm0-11.56a13.55,13.55,0,0,0,0,9.8,13.55,13.55,0,0,0,0-9.8Z" style="fill:#57b0b6"/><path d="M209.56,70.79c-2.72,16.71-18.84,11.46-45.66,11.46-18.28,0-27.07,17.15-30.82,28.07-.41-.63-1.64-.85-3.3-.53-.3.05-.61.15-.92.23.08-1.42.23-3,.45-4.62C131.46,89.5,147.78,66.52,146,44a82.45,82.45,0,0,1,7-39.83c-49.76,45-41.52,83.74-32.89,102a22.13,22.13,0,0,0-4,2.59,21.68,21.68,0,0,0-4.22-2.71c-1.64-.74-2.94-.89-3.47-.3s-.34,1.84.12,3.37c.31,1,.76,2.25,1.23,3.5l-1.71-.77a25.73,25.73,0,0,0-5.61-2.07c-1.74-.33-3-.08-3.36.63s.13,1.81.82,3.12c.42.77.93,1.65,1.51,2.59l-1.18-.14a17.16,17.16,0,0,0-6.09.17c-1.74.47-2.69,1.35-2.63,2.12s.83,1.42,1.77,2.19a24.13,24.13,0,0,0-5.24,2.07c-1.63,1-2.55,2-2.36,2.73a1.62,1.62,0,0,0,.85.94c-1,.43-2,.87-2.9,1.34-2.55,1.26-5,2.61-6.81,3.73s-3,2.24-2.79,3c.13.62,1.11,1,2.6,1.24-2.78.7-5.25,1.5-5.51,2.84-.19.94,1,2.09,2.71,3.14a15.42,15.42,0,0,0-4.27.88,5.17,5.17,0,0,0-1.65,1,1.57,1.57,0,0,0-.58,1.14,2.73,2.73,0,0,0,.94,1.71,14.31,14.31,0,0,0-1.5,1,20,20,0,0,0-3.89,3.67c-.9,1.15-1.39,2.19-1.09,2.94a1.64,1.64,0,0,0,1,.83,16.64,16.64,0,0,0-4.16,3.7c-1.07,1.48-1.39,2.73-.89,3.33a1.28,1.28,0,0,0,.42.32c-.64.53-1.3,1.09-1.85,1.65A41.76,41.76,0,0,0,52.37,168c-1,1.22-1.62,2.3-1.35,3.06s1.24,1,2.73,1l-.06,0c-1.3.63-2.09,1.36-2.09,2.16s.66,1.49,1.6,2.19a15.58,15.58,0,0,0-1.15,1.07,21.22,21.22,0,0,0-3.2,4,5.71,5.71,0,0,0-.86,2.1c-.3.27-.61.55-.89.83a28.7,28.7,0,0,0-3.86,4.68c-.88,1.39-1.35,2.53-1,3.24a1.85,1.85,0,0,0,1.6.69l-.17.15a22.46,22.46,0,0,0-3.65,4.66c-.79,1.4-1.14,2.56-.7,3.24a1.43,1.43,0,0,0,.95.55,17.18,17.18,0,0,0-3.37,5.68c-.64,1.91-.37,3.44.38,3.68a3.61,3.61,0,0,0,2.39-.53l-.19.36a33.81,33.81,0,0,0-2.16,5.79c-.4,1.6-.57,2.79,0,3.4s1.92.37,3.55-.52l.37-.22c-1.82,4.64-2.56,9-1.29,9.78.39.24,1,.13,1.64-.22,0,.21-.05.41-.07.62-.51,4.67.36,9,1.92,9.22a1.11,1.11,0,0,0,.42,0,20,20,0,0,0,1.37,4.5c.71,1.54,1.48,2.52,2.29,2.53s1.57-1,2.25-2.55l.2-.47a7.38,7.38,0,0,0,.67,1.12c.9,1.24,2,1.67,2.7,1.31a3.29,3.29,0,0,0,1.1-1,14.08,14.08,0,0,0,1.75,4.06c1,1.3,1.94,1.9,2.68,1.65a1.53,1.53,0,0,0,.48-.28c.18.4.35.8.55,1.17a9.14,9.14,0,0,0,2,2.53,4.43,4.43,0,0,0,1.11.75,2.72,2.72,0,0,0,1,.32,1.32,1.32,0,0,0,1.28-.41,3.87,3.87,0,0,0,.44-1.8,12.29,12.29,0,0,0,2.54,2c1.42.76,2.57.88,3.14.34a1.57,1.57,0,0,0,.16-.23l.31.34a16.25,16.25,0,0,0,5.35,4c1.77.67,3.07.65,3.51,0a1.88,1.88,0,0,0,.18-1.36,14.18,14.18,0,0,0,1.25,1.07c1.4,1,2.57,1.32,3.22.87s.78-1.67.7-3.15c0-.58-.05-1.2-.1-1.83a5.55,5.55,0,0,0,1,.42,3.26,3.26,0,0,0,2.44,0A7.53,7.53,0,0,0,91.34,256c1.42.79,2.6.73,3.11.14a4.64,4.64,0,0,0,.61-2.67c.25.42.5.82.75,1.17.8,1.1,1.63,1.85,2.43,1.8s1.5-.9,2.09-2.19a14.3,14.3,0,0,0,.53-1.4c2.33,2.21,5,4.24,6.41,3.59a1.18,1.18,0,0,0,.18-.11,19.34,19.34,0,0,0,2.5,3.73c1.35,1.43,2.54,2.09,3.24,1.72s.93-1.7,1-3.36v-.14a3.62,3.62,0,0,0,2.89-.19,2.58,2.58,0,0,0,.91-1.22c0,.54,0,1.06.09,1.55.06,1.66.27,3,1,3.36s1.89-.29,3.24-1.72a19.36,19.36,0,0,0,2.5-3.73,1.2,1.2,0,0,0,.18.11c1.42.65,4.08-1.38,6.41-3.59a14.3,14.3,0,0,0,.53,1.4c.59,1.29,1.28,2.14,2.09,2.19s1.64-.69,2.43-1.8c.25-.34.5-.75.74-1.17a4.67,4.67,0,0,0,.61,2.67c.51.58,1.69.65,3.11-.14a7.54,7.54,0,0,0,1.88-1.55,3.26,3.26,0,0,0,2.44,0,5.64,5.64,0,0,0,1-.42c0,.64-.09,1.26-.1,1.83-.08,1.47,0,2.68.7,3.15s1.83.1,3.22-.87a14.55,14.55,0,0,0,1.25-1.07,1.88,1.88,0,0,0,.18,1.36c.44.65,1.74.66,3.51,0a16.22,16.22,0,0,0,5.35-4l.31-.34a1.49,1.49,0,0,0,.16.23c.57.54,1.73.42,3.14-.34a12.25,12.25,0,0,0,2.54-2,3.87,3.87,0,0,0,.44,1.8,1.31,1.31,0,0,0,1.28.41,2.7,2.7,0,0,0,1-.32,4.41,4.41,0,0,0,1.11-.75,9.13,9.13,0,0,0,2-2.53c.2-.37.38-.77.55-1.17a1.5,1.5,0,0,0,.48.28c.75.25,1.73-.35,2.68-1.65A14,14,0,0,0,177.8,244a3.29,3.29,0,0,0,1.1,1c.7.36,1.81-.07,2.7-1.31a7.32,7.32,0,0,0,.67-1.12c.07.15.13.32.2.47.69,1.52,1.45,2.56,2.25,2.55s1.58-1,2.29-2.53a20.25,20.25,0,0,0,1.37-4.5,1.12,1.12,0,0,0,.42,0c1.56-.24,2.43-4.55,1.92-9.22,0-.2,0-.41-.07-.62.68.34,1.25.46,1.64.22,1.27-.77.53-5.13-1.3-9.78l.37.22c1.62.89,3,1.13,3.54.52s.36-1.81,0-3.4a33.48,33.48,0,0,0-2.15-5.79l-.19-.36a3.61,3.61,0,0,0,2.39.53c.75-.24,1-1.77.38-3.68a17.15,17.15,0,0,0-3.37-5.68,1.43,1.43,0,0,0,.95-.55c.44-.68.09-1.83-.7-3.24a22.53,22.53,0,0,0-3.65-4.66l-.17-.15a1.85,1.85,0,0,0,1.6-.69c.38-.71-.09-1.85-1-3.24a28.76,28.76,0,0,0-3.86-4.68c-.28-.28-.59-.55-.89-.83a5.62,5.62,0,0,0-.86-2.1,21.25,21.25,0,0,0-3.2-4,15.66,15.66,0,0,0-1.15-1.07c.94-.7,1.6-1.45,1.6-2.19s-.79-1.53-2.09-2.16l-.06,0c1.48,0,2.49-.36,2.73-1s-.38-1.85-1.35-3.06a41.71,41.71,0,0,0-3.92-4.29c-.56-.56-1.21-1.11-1.86-1.65a1.26,1.26,0,0,0,.42-.32c.5-.6.18-1.85-.89-3.33a16.65,16.65,0,0,0-4.16-3.7,1.64,1.64,0,0,0,1-.83c.3-.75-.19-1.79-1.09-2.94a19.94,19.94,0,0,0-3.89-3.67,14.06,14.06,0,0,0-1.5-1,2.72,2.72,0,0,0,.94-1.71,1.58,1.58,0,0,0-.58-1.14,5.16,5.16,0,0,0-1.65-1,15.44,15.44,0,0,0-4.27-.88c1.75-1.05,2.9-2.2,2.71-3.14-.26-1.34-2.73-2.14-5.51-2.84,1.49-.22,2.47-.61,2.6-1.24.17-.79-1-1.86-2.8-3s-4.26-2.47-6.81-3.73c-.93-.47-1.92-.91-2.9-1.34a1.62,1.62,0,0,0,.85-.94c.18-.77-.74-1.76-2.36-2.73a24.17,24.17,0,0,0-5.24-2.07c.94-.77,1.72-1.43,1.77-2.19s-.9-1.66-2.63-2.12a8.7,8.7,0,0,0-.93-.18c7-15.78,24.41-12.35,31-10.59,7.38,2,29.73,12.41,44.1-4.89S209.56,70.79,209.56,70.79Z" style="fill:#fbc042"/><path d="M119.5,262.71a1.74,1.74,0,0,1-.82-.2c-1-.55-1.32-2-1.41-3.58a3.9,3.9,0,0,1-2.3.33c-.11,1.44-.42,2.74-1.39,3.25s-2.52-.08-4.23-1.89a19.52,19.52,0,0,1-2.28-3.27c-1.38.23-3.27-.76-5.86-3.06l-.13.29c-.79,1.73-1.7,2.61-2.79,2.67h-.13a3.51,3.51,0,0,1-2.56-1.54,2.57,2.57,0,0,1-.53,1c-.8.91-2.48.95-4.13,0a7.67,7.67,0,0,1-1.7-1.3,4.46,4.46,0,0,1-2.31-.08c0,.19,0,.38,0,.56.08,1.47,0,3.1-1.06,3.84s-2.38.37-4.17-.87l-.16-.12-.12.2a2.18,2.18,0,0,1-1.95.85,7.41,7.41,0,0,1-2.54-.55,17.05,17.05,0,0,1-5.43-3.92c-.89.43-2.16.25-3.63-.54a11.18,11.18,0,0,1-1.59-1.13,2.55,2.55,0,0,1-.31.62,2.09,2.09,0,0,1-2.05.76,3.47,3.47,0,0,1-1.3-.41,5.17,5.17,0,0,1-1.3-.88A9.74,9.74,0,0,1,59.21,251l-.23-.46c-1.08.24-2.31-.47-3.43-2a13,13,0,0,1-1.46-3,2.76,2.76,0,0,1-.35.21,2,2,0,0,1-.9.21,3.66,3.66,0,0,1-2.75-1.65c-.59,1.07-1.41,2.11-2.54,2.11-1.5,0-2.46-1.72-3-3a20.19,20.19,0,0,1-1.3-4c-2.18-.5-2.92-5.09-2.55-9.46a1.79,1.79,0,0,1-1.12-.24c-1.94-1.18-.75-5.88.25-8.86a4.83,4.83,0,0,1-1.52.28,1.94,1.94,0,0,1-1.56-.63c-.83-1-.54-2.51-.13-4.14a33.9,33.9,0,0,1,1.58-4.56,2.38,2.38,0,0,1-1.08-.09,1.69,1.69,0,0,1-1-.89,5.32,5.32,0,0,1,.07-3.84A17.29,17.29,0,0,1,39,201.89a1.8,1.8,0,0,1-.33-.38c-.79-1.21,0-2.92.67-4.1a22.48,22.48,0,0,1,2.95-4,1.85,1.85,0,0,1-.74-.73c-.65-1.19.14-2.73,1-4.08a29.6,29.6,0,0,1,4-4.82c.22-.22.46-.44.7-.66a7.16,7.16,0,0,1,.92-2.11,21.82,21.82,0,0,1,3.33-4.13l.46-.46a3.14,3.14,0,0,1-1.16-2.21,2.4,2.4,0,0,1,.78-1.71,2.08,2.08,0,0,1-1.31-1.22c-.43-1.22.46-2.57,1.48-3.86a42.83,42.83,0,0,1,4-4.37c.37-.37.78-.74,1.19-1.09-.55-1-.19-2.39,1-4.09a16.7,16.7,0,0,1,3.39-3.24,2,2,0,0,1-.3-.5c-.4-1,0-2.21,1.21-3.76a20.8,20.8,0,0,1,4.06-3.84c.23-.19.49-.36.74-.53a2.83,2.83,0,0,1-.53-1.49,2.37,2.37,0,0,1,.85-1.78,6,6,0,0,1,1.92-1.12,13.1,13.1,0,0,1,2.37-.65c-1.06-.94-1.51-1.87-1.34-2.75.24-1.25,1.52-2.06,3.57-2.75a1.69,1.69,0,0,1-.65-1c-.24-1.13.73-2.33,3.16-3.9,1.73-1.09,4.18-2.43,6.89-3.78.58-.3,1.19-.58,1.8-.85a1.8,1.8,0,0,1-.19-.49c-.27-1.16.65-2.38,2.75-3.64a22.69,22.69,0,0,1,4-1.72,2.82,2.82,0,0,1-.93-1.77c-.09-1.27,1.15-2.42,3.25-3a16.84,16.84,0,0,1,5.91-.25q-.35-.6-.66-1.18c-.77-1.47-1.36-2.77-.84-3.87.22-.47.87-1.25,2.71-1.25a8.31,8.31,0,0,1,1.56.16,25.79,25.79,0,0,1,5.69,2.08c-.21-.59-.4-1.16-.56-1.69-.49-1.59-.82-3.2.06-4.16a2.1,2.1,0,0,1,1.64-.63,7.07,7.07,0,0,1,2.79.74,21.77,21.77,0,0,1,3.88,2.41,23.52,23.52,0,0,1,2.91-1.91C110.17,86.44,103.27,48,152.46,3.54a.83.83,0,0,1,1.3,1,82.37,82.37,0,0,0-6.91,39.39c1.09,14-4.69,28.14-9.79,40.6-3.14,7.69-6.11,14.95-6.93,21-.16,1.16-.28,2.32-.37,3.44a6,6,0,0,1,2.88.09c3.88-10.77,12.89-27.62,31.25-27.62,5.69,0,11,.24,15.59.45,3.79.17,7.36.33,10.51.33,10.93,0,17.16-1.84,18.73-11.55a.83.83,0,0,1,1.31-.54c.31.22,7.59,5.61,8.68,14.36.69,5.53-1.27,11.1-5.81,16.57-5.57,6.7-13,10.1-22.07,10.1h0c-7.59,0-14.77-2.35-19.52-3.9-1.32-.43-2.47-.81-3.36-1a42.5,42.5,0,0,0-10.87-1.56c-8.91,0-15.2,3.61-18.72,10.73,2.06.57,3.28,1.7,3.19,3a2.82,2.82,0,0,1-.93,1.77,22.62,22.62,0,0,1,4,1.71c2.11,1.27,3,2.49,2.76,3.65a1.79,1.79,0,0,1-.19.49c.6.27,1.22.56,1.81.86,2.7,1.34,5.14,2.68,6.88,3.77,2.43,1.57,3.4,2.77,3.17,3.9a1.7,1.7,0,0,1-.65,1c2.05.7,3.33,1.51,3.57,2.76.17.88-.27,1.8-1.34,2.75a13.22,13.22,0,0,1,2.38.66,6,6,0,0,1,1.91,1.12,2.37,2.37,0,0,1,.85,1.75,2.86,2.86,0,0,1-.53,1.51c.26.17.52.35.77.55a20.6,20.6,0,0,1,4,3.81c1.22,1.55,1.61,2.78,1.21,3.77a2,2,0,0,1-.3.5,16.66,16.66,0,0,1,3.38,3.22c1.23,1.72,1.59,3.15,1,4.11.42.36.83.73,1.2,1.11a42.84,42.84,0,0,1,4,4.37c1,1.28,1.91,2.63,1.48,3.85a2.08,2.08,0,0,1-1.31,1.22,2.41,2.41,0,0,1,.78,1.71,3.14,3.14,0,0,1-1.16,2.21l.48.48a21.77,21.77,0,0,1,3.31,4.1,7,7,0,0,1,.92,2.11c.25.23.48.44.7.66a29.68,29.68,0,0,1,4,4.82c.86,1.36,1.64,2.9,1,4.09a1.86,1.86,0,0,1-.74.73,22.48,22.48,0,0,1,2.95,4c.67,1.19,1.46,2.9.67,4.1a1.84,1.84,0,0,1-.33.38,17.27,17.27,0,0,1,2.85,5.14,5.3,5.3,0,0,1,.07,3.83,1.69,1.69,0,0,1-1,.9,2.4,2.4,0,0,1-1.07.08,33.47,33.47,0,0,1,1.58,4.55c.41,1.64.71,3.18-.13,4.16a1.94,1.94,0,0,1-1.55.63,4.84,4.84,0,0,1-1.53-.29c1,2.87,2.19,7.68.26,8.86a1.79,1.79,0,0,1-1.12.24c.37,4.35-.38,9-2.55,9.46a20.44,20.44,0,0,1-1.29,4c-.93,2-1.92,3-3,3s-2-1-2.56-2.11a3.66,3.66,0,0,1-2.75,1.65,2,2,0,0,1-.91-.22,2.76,2.76,0,0,1-.34-.21,12.88,12.88,0,0,1-1.44,3c-1.14,1.56-2.36,2.26-3.45,2-.07.15-.15.3-.23.45a9.81,9.81,0,0,1-2.17,2.77,5.12,5.12,0,0,1-1.29.87,3.45,3.45,0,0,1-1.3.4l-.34,0a2,2,0,0,1-1.67-.75,2.71,2.71,0,0,1-.33-.66,11,11,0,0,1-1.57,1.12c-1.5.81-2.76,1-3.65.55a17,17,0,0,1-5.4,3.91,7.47,7.47,0,0,1-2.57.56,2.18,2.18,0,0,1-2-.85l-.12-.19-.14.11c-1.83,1.26-3.26,1.54-4.19.89s-1.14-2.37-1.06-3.87c0-.17,0-.35,0-.53a4.48,4.48,0,0,1-2.31.08,7.7,7.7,0,0,1-1.7,1.31c-1.64.91-3.32.89-4.13,0a2.55,2.55,0,0,1-.53-1,3.51,3.51,0,0,1-2.56,1.54H134c-1.09-.07-2-.94-2.79-2.67l-.13-.29c-2.59,2.3-4.49,3.28-5.86,3.06a19.47,19.47,0,0,1-2.26,3.25C121.61,262,120.46,262.71,119.5,262.71ZM118,256h.14a.83.83,0,0,1,.69.78c0,.53,0,1,.08,1.52.08,2.27.44,2.63.55,2.69h0c.34,0,1.12-.41,2.21-1.56a18.58,18.58,0,0,0,2.37-3.55.83.83,0,0,1,1.22-.29.56.56,0,0,0,.31.08c.47,0,1.91-.34,5.24-3.48a.83.83,0,0,1,1.36.34,13.23,13.23,0,0,0,.5,1.32c.7,1.55,1.24,1.69,1.38,1.7h0c.17,0,.74-.11,1.71-1.45.2-.28.43-.63.7-1.1a.83.83,0,0,1,1.54.35l0,.46a3.37,3.37,0,0,0,.37,1.72c.26.29,1.2.18,2.09-.31a6.73,6.73,0,0,0,1.67-1.38.83.83,0,0,1,1-.17,1.64,1.64,0,0,0,.77.16,3.59,3.59,0,0,0,1-.17,4.78,4.78,0,0,0,.86-.36.83.83,0,0,1,1.22.79c0,.67-.09,1.25-.09,1.79-.1,1.93.21,2.35.34,2.45a.42.42,0,0,0,.22,0,4,4,0,0,0,2.06-.92,13.77,13.77,0,0,0,1.16-1,.83.83,0,0,1,1.39.73c-.08.52,0,.7,0,.76s.48.47,2.53-.31a15.54,15.54,0,0,0,5-3.74l.23-.25.09-.1a.84.84,0,0,1,.66-.27.83.83,0,0,1,.62.34l.09.14a2.86,2.86,0,0,0,2.14-.49,11.52,11.52,0,0,0,2.34-1.89.83.83,0,0,1,1.42.49V252a3.16,3.16,0,0,0,.28,1.28.8.8,0,0,0,.51.06,1.93,1.93,0,0,0,.72-.23,3.67,3.67,0,0,0,.93-.62,8.25,8.25,0,0,0,1.81-2.32c.18-.33.34-.7.5-1.07a.86.86,0,0,1,.57-.48.84.84,0,0,1,.72.15.71.71,0,0,0,.21.13h.09c.31,0,.93-.36,1.66-1.37A13.2,13.2,0,0,0,177,243.8a.83.83,0,0,1,1.47-.27,2.65,2.65,0,0,0,.81.8c.33.17,1-.18,1.66-1.06a6.47,6.47,0,0,0,.6-1,.82.82,0,0,1,.77-.46.83.83,0,0,1,.74.5l.08.19.11.25c.93,2,1.48,2.07,1.49,2.07s.61,0,1.54-2a19.12,19.12,0,0,0,1.31-4.3.83.83,0,0,1,.36-.54.84.84,0,0,1,.64-.12l.11,0c.65-.1,1.77-3.34,1.23-8.31,0-.19,0-.35-.06-.52v-.09a.83.83,0,0,1,1.2-.84,1.87,1.87,0,0,0,.78.26c.47-.31.59-3.26-1.58-8.77a.83.83,0,0,1,1.19-1l.17.1.18.1a5.26,5.26,0,0,0,2.23.76.56.56,0,0,0,.3-.05c.34-.4-.08-2.1-.22-2.66a32.71,32.71,0,0,0-2.1-5.64l-.08-.14-.11-.21a.83.83,0,0,1,1.08-1.12,3.62,3.62,0,0,0,1.79.5,3.5,3.5,0,0,0-.14-2.63,16.37,16.37,0,0,0-3.21-5.4.83.83,0,0,1,.46-1.36.73.73,0,0,0,.43-.19s.29-.55-.73-2.37a21.69,21.69,0,0,0-3.51-4.48l-.17-.15a.83.83,0,0,1,.53-1.42c.66,0,.89-.21.92-.26s.18-.63-.94-2.4a27.91,27.91,0,0,0-3.74-4.53c-.26-.26-.54-.51-.82-.76a1,1,0,0,1-.31-.56,4.88,4.88,0,0,0-.74-1.77,20.18,20.18,0,0,0-3.07-3.8,14.87,14.87,0,0,0-1.11-1,.83.83,0,0,1,0-1.3c1.14-.86,1.27-1.36,1.27-1.53s-.42-.83-1.62-1.41a.87.87,0,0,1-.48-.94.81.81,0,0,1,.77-.66c1.48,0,1.92-.38,2-.47s0-.69-1.21-2.27a41.28,41.28,0,0,0-3.85-4.21c-.55-.55-1.19-1.1-1.81-1.61a.83.83,0,0,1,.16-1.38.48.48,0,0,0,.15-.1c.11-.13.09-.92-.92-2.32a15.93,15.93,0,0,0-3.93-3.49.83.83,0,0,1,.13-1.47.94.94,0,0,0,.52-.38c.11-.27-.09-1-1-2.11a19,19,0,0,0-3.72-3.51,13.62,13.62,0,0,0-1.44-1,.83.83,0,0,1-.17-1.29,2,2,0,0,0,.71-1.16.83.83,0,0,0-.32-.51,4.41,4.41,0,0,0-1.37-.78,14.54,14.54,0,0,0-4-.83.83.83,0,0,1-.36-1.54c1.82-1.09,2.39-2,2.32-2.27-.2-1-3.74-1.91-4.9-2.2a.83.83,0,0,1,.08-1.63c1.61-.24,1.9-.59,1.92-.62s-.15-.65-2.44-2.12c-1.68-1.06-4.08-2.37-6.73-3.69-.93-.47-1.93-.91-2.86-1.32a.83.83,0,0,1-.09-1.48c.42-.25.46-.4.46-.41s-.24-.79-2-1.83a23.49,23.49,0,0,0-5-2,.83.83,0,0,1-.31-1.44c.68-.56,1.44-1.18,1.47-1.6,0-.21-.55-.87-2-1.27a6.17,6.17,0,0,0-.69-.13l-.15,0a.83.83,0,0,1-.63-1.16c3.66-8.29,10.81-12.67,20.68-12.67a44.15,44.15,0,0,1,11.3,1.61c.94.25,2.1.63,3.45,1.07,4.65,1.52,11.68,3.82,19,3.82h0c8.55,0,15.55-3.2,20.79-9.5,4.24-5.1,6.07-10.24,5.44-15.29-.76-6.12-5-10.58-7-12.37C208,81.89,200.77,83.87,190,83.87c-3.18,0-6.78-.16-10.58-.33-4.62-.21-9.86-.45-15.52-.45-17.92,0-26.51,17.24-30,27.51a.83.83,0,0,1-1.48.18c-.05-.08-.38-.3-1.21-.3a6.6,6.6,0,0,0-1.23.13c-.24,0-.48.11-.72.18l-.13,0a.83.83,0,0,1-1-.85c.09-1.51.24-3.08.46-4.68.84-6.26,3.85-13.62,7-21.4,5-12.29,10.72-26.22,9.67-39.84a85.6,85.6,0,0,1,5.52-36.64c-45.86,43.22-38.49,80.09-29.84,98.42a.83.83,0,0,1-.39,1.1,21.44,21.44,0,0,0-3.85,2.5.83.83,0,0,1-1,0,20.91,20.91,0,0,0-4.05-2.6,5.66,5.66,0,0,0-2.1-.59.66.66,0,0,0-.41.08c-.11.12-.3.61.3,2.57.3,1,.74,2.19,1.21,3.42a.85.85,0,0,1-.2.91.83.83,0,0,1-.9.17l-1.73-.77a25,25,0,0,0-5.41-2,6.7,6.7,0,0,0-1.25-.13c-.81,0-1.17.2-1.21.3-.21.44.47,1.75.8,2.38.44.81.94,1.66,1.48,2.53a.83.83,0,0,1-.8,1.27l-1.18-.14a16.12,16.12,0,0,0-5.77.14c-1.48.4-2,1.06-2,1.26,0,.42.79,1.05,1.47,1.61a.83.83,0,0,1-.31,1.44,23.44,23.44,0,0,0-5,2c-1.72,1-2,1.71-2,1.82s0,.16.46.41a.83.83,0,0,1-.09,1.48c-.94.41-1.94.85-2.86,1.32-2.67,1.33-5.06,2.64-6.74,3.7-2.26,1.46-2.41,2.11-2.42,2.16h0a4,4,0,0,0,1.91.57.83.83,0,0,1,.08,1.63c-1.16.29-4.7,1.19-4.9,2.2-.06.31.51,1.18,2.32,2.27a.83.83,0,0,1-.36,1.54,14.51,14.51,0,0,0-4,.83,4.38,4.38,0,0,0-1.38.79.8.8,0,0,0-.32.54,2.07,2.07,0,0,0,.71,1.13.83.83,0,0,1-.17,1.29,13.64,13.64,0,0,0-1.41.94,19.19,19.19,0,0,0-3.76,3.54c-1.14,1.46-1,2-1,2.11a.94.94,0,0,0,.52.37.83.83,0,0,1,.13,1.47,15.93,15.93,0,0,0-3.95,3.5c-1,1.38-1,2.17-.91,2.3a.48.48,0,0,0,.16.11.83.83,0,0,1,.16,1.38c-.58.48-1.24,1-1.8,1.6A41.24,41.24,0,0,0,53,168.49c-1.27,1.59-1.27,2.12-1.22,2.27s.48.45,2,.47a.83.83,0,0,1,.32,1.59c-1.22.59-1.64,1.12-1.64,1.42s.12.67,1.27,1.53a.83.83,0,0,1,0,1.3,14.67,14.67,0,0,0-1.09,1,20.24,20.24,0,0,0-3.1,3.82,5,5,0,0,0-.74,1.77.83.83,0,0,1-.26.51l-.13.12c-.25.23-.5.45-.73.69a27.86,27.86,0,0,0-3.75,4.54c-1.12,1.77-1,2.28-.94,2.4s.26.22.92.26a.83.83,0,0,1,.54,1.41l-.13.12a21.65,21.65,0,0,0-3.55,4.52c-1,1.82-.76,2.32-.73,2.37a.75.75,0,0,0,.42.19.83.83,0,0,1,.46,1.36,16.4,16.4,0,0,0-3.21,5.39c-.51,1.53-.29,2.51-.12,2.66h.15a5,5,0,0,0,1.61-.53.83.83,0,0,1,1.08,1.13l-.19.36a33.14,33.14,0,0,0-2.1,5.64c-.14.55-.56,2.25-.21,2.65h0a.61.61,0,0,0,.29,0,5.24,5.24,0,0,0,2.22-.75l.18-.11.18-.11a.83.83,0,0,1,1.19,1c-2.16,5.51-2,8.46-1.63,8.76a1.67,1.67,0,0,0,.84-.25.83.83,0,0,1,1.2.85c0,.21-.05.39-.06.57-.55,5,.58,8.24,1.22,8.34l.11,0a.83.83,0,0,1,1,.66A18.92,18.92,0,0,0,46,242.78c.93,2,1.51,2,1.54,2s.56,0,1.49-2.06l.11-.27.08-.18a.83.83,0,0,1,.74-.51.81.81,0,0,1,.77.46,6.54,6.54,0,0,0,.6,1c.65.89,1.4,1.21,1.66,1.07a2.61,2.61,0,0,0,.81-.8.83.83,0,0,1,1.47.27,13.28,13.28,0,0,0,1.64,3.8c.8,1.1,1.47,1.43,1.74,1.34a.7.7,0,0,0,.22-.13.83.83,0,0,1,1.29.31c.18.4.34.77.52,1.11a8.17,8.17,0,0,0,1.77,2.28,3.73,3.73,0,0,0,.93.64,2,2,0,0,0,.73.24c.37,0,.49,0,.56-.09A3.31,3.31,0,0,0,64.9,252v-.13a.83.83,0,0,1,1.42-.49,11.55,11.55,0,0,0,2.36,1.9,2.89,2.89,0,0,0,2.12.48l.09-.14a.83.83,0,0,1,1.28-.07l.09.1.19.21a15.66,15.66,0,0,0,5.09,3.79c2,.75,2.45.36,2.5.3s.13-.25,0-.77a.83.83,0,0,1,1.39-.73,13.2,13.2,0,0,0,1.18,1,4,4,0,0,0,2,.9.42.42,0,0,0,.22,0c.14-.1.45-.52.34-2.42,0-.58-.05-1.18-.09-1.79a.85.85,0,0,1,.37-.77.83.83,0,0,1,.84-.05,4.74,4.74,0,0,0,.85.36,2.77,2.77,0,0,0,1.82,0,.83.83,0,0,1,1,.18,6.73,6.73,0,0,0,1.66,1.38,3.37,3.37,0,0,0,1.54.49.76.76,0,0,0,.55-.16,3.35,3.35,0,0,0,.37-1.74l0-.45a.83.83,0,0,1,1.54-.36c.2.33.45.75.71,1.11,1,1.35,1.53,1.45,1.68,1.45s.7-.16,1.41-1.7a13.11,13.11,0,0,0,.5-1.32.83.83,0,0,1,1.36-.34c3.32,3.14,4.77,3.48,5.24,3.48a.63.63,0,0,0,.26,0,.9.9,0,0,1,.7-.15.85.85,0,0,1,.57.4,18.54,18.54,0,0,0,2.38,3.57c1.07,1.13,1.85,1.54,2.19,1.54.15-.06.51-.42.59-2.66v-.09a.9.9,0,0,1,.34-.66.84.84,0,0,1,.7-.17,2.88,2.88,0,0,0,2.22-.07,1.76,1.76,0,0,0,.61-.84A.83.83,0,0,1,118,256Z" style="fill:#f9951b"/><path d="M97.84,200c.18.61.44,1.42.77,2.35s.82,1.87,1.34,2.86a28.7,28.7,0,0,0,1.83,2.9,19.9,19.9,0,0,0,4.3,4.53c1.42,1,2.65,1.41,3.29.94s.72-1.7.62-3.25c0-.79-.17-1.63-.26-2.56v0l1.11,1.37a18.37,18.37,0,0,0,5,4.54c1.76.94,3.17.93,3.61.29s.23-1.43,0-2.51l0,0a10.56,10.56,0,0,0,3.21,1,5,5,0,0,0,1.46,0,2.93,2.93,0,0,0,1.12-.34c.61-.35.83-.74.79-1.14a3,3,0,0,0-.55-1.2c-.12-.16-.26-.44-.39-.65s-.26-.48-.4-.74l-.39-.77,1.19.43a14.41,14.41,0,0,0,6.06,1.09c1.86-.21,2.86-1.08,2.83-1.85s-.83-1.57-1.56-2.51-1.56-2.11-2.64-3.51" style="fill:#fbc042"/><path d="M118.32,215.26a6.27,6.27,0,0,1-2.86-.84,17.61,17.61,0,0,1-4.64-4c.12,1.8,0,3.14-1,3.84s-2.46.36-4.26-.94a20.74,20.74,0,0,1-4.5-4.73,22,22,0,0,1-1.52-2.36l-.34-.58c-.47-.9-.92-1.86-1.39-3s-.65-1.92-.8-2.43a.83.83,0,1,1,1.59-.48c.15.49.4,1.29.76,2.31s.86,1.93,1.29,2.75l.33.56a20.92,20.92,0,0,0,1.42,2.22,19.09,19.09,0,0,0,4.13,4.37c1.35,1,2.15,1.05,2.31.94s.41-.7.28-2.52c0-.47-.08-.93-.13-1.42s-.08-.71-.12-1.09a.93.93,0,0,1,0-.11.83.83,0,0,1,1.48-.52l1.1,1.37a17.28,17.28,0,0,0,4.77,4.33c1.53.82,2.42.67,2.54.55.2-.29,0-1.27-.14-1.86a.83.83,0,0,1,1.18-.92,9.64,9.64,0,0,0,3,1,4.26,4.26,0,0,0,1.22,0,2.26,2.26,0,0,0,.82-.22c.31-.18.41-.31.4-.36a2.73,2.73,0,0,0-.41-.8,5.38,5.38,0,0,1-.3-.49l-.12-.21c-.08-.13-.18-.32-.28-.52l-.13-.25-.4-.8a.83.83,0,0,1,1-1.15l1.19.43a13.77,13.77,0,0,0,5.68,1c1.57-.18,2.11-.84,2.1-1,0-.37-.43-.87-.88-1.41l-.5-.62c-.4-.49-.82-1.06-1.28-1.69s-.86-1.16-1.36-1.82a.83.83,0,0,1,1.31-1c.51.67,1,1.28,1.38,1.85s.85,1.16,1.25,1.65l.48.59a4.1,4.1,0,0,1,1.26,2.43c0,1.34-1.42,2.45-3.57,2.69a14,14,0,0,1-5.61-.84l.11.17a3.7,3.7,0,0,1,.71,1.62,2,2,0,0,1-1.21,1.94,3.61,3.61,0,0,1-1.4.44,5.82,5.82,0,0,1-1.69,0,9.33,9.33,0,0,1-2.08-.52,2.49,2.49,0,0,1-.38,1.62A2.08,2.08,0,0,1,118.32,215.26Z" style="fill:#f9951b"/><path d="M47,210.68c-1.18,5.19-2.3,15.68-3.19,15.63-1.46.05-5.64-10.44-4.46-15.63.88-5.15,3.26-3.1,4.37-3.1S47.85,205.53,47,210.68Z" style="fill:#f3f7d1"/><path d="M43.77,227.15a1.91,1.91,0,0,1-1.39-.86c-2-2.46-4.93-11.13-3.87-15.79.17-1,.71-4.15,3.2-4.15a5,5,0,0,1,1.42.26,3.13,3.13,0,0,0,.56.13h0a3.85,3.85,0,0,0,.72-.15,5.71,5.71,0,0,1,1.44-.25,1.92,1.92,0,0,1,1.54.66c.6.71.73,1.92.4,3.81s-.9,4.77-1.32,7.44c-1.23,7.66-1.51,8.89-2.67,8.89l0-.83v.83ZM41.71,208c-.72,0-1.25.95-1.57,2.81-1,4.32,2,12.17,3.39,14.23.39-1.42.9-4.61,1.29-7.06.43-2.69.88-5.47,1.34-7.5.32-1.87,0-2.34,0-2.41s-.06-.07-.27-.07a4.48,4.48,0,0,0-1,.19,4.59,4.59,0,0,1-1.13.2h0a3.66,3.66,0,0,1-1-.2A3.63,3.63,0,0,0,41.71,208Z" style="fill:#f9951b"/><path d="M54.61,210.68c-1.18,5.19-2.3,15.68-3.19,15.63-1.46.05-5.64-10.44-4.46-15.63.88-5.15,3.26-3.1,4.37-3.1S55.49,205.53,54.61,210.68Z" style="fill:#f3f7d1"/><path d="M51.42,227.15a1.91,1.91,0,0,1-1.39-.86c-2-2.46-4.93-11.13-3.87-15.79.17-1,.71-4.15,3.2-4.15a5,5,0,0,1,1.42.26,3.13,3.13,0,0,0,.56.13h0a3.85,3.85,0,0,0,.72-.15,5.71,5.71,0,0,1,1.44-.25A1.92,1.92,0,0,1,55,207c.6.71.73,1.92.4,3.81s-.9,4.77-1.33,7.44c-1.23,7.66-1.51,8.89-2.67,8.89l0-.83v.83ZM49.35,208c-.72,0-1.25.95-1.57,2.81-1,4.32,2,12.17,3.39,14.23.39-1.42.9-4.6,1.29-7.05.43-2.69.88-5.48,1.34-7.5.32-1.87,0-2.34,0-2.41s-.06-.07-.27-.07a4.47,4.47,0,0,0-1,.19,4.59,4.59,0,0,1-1.13.2h0a3.66,3.66,0,0,1-1-.2A3.63,3.63,0,0,0,49.35,208Z" style="fill:#f9951b"/><path d="M62.26,210.68c-1.18,5.19-2.3,15.68-3.19,15.63-1.46.05-5.64-10.44-4.46-15.63.88-5.15,3.26-3.1,4.37-3.1S63.14,205.53,62.26,210.68Z" style="fill:#f3f7d1"/><path d="M59.06,227.15a1.91,1.91,0,0,1-1.39-.86c-2-2.46-4.93-11.13-3.87-15.79.17-1,.71-4.15,3.2-4.15a5,5,0,0,1,1.42.26,3.13,3.13,0,0,0,.56.13h0a3.81,3.81,0,0,0,.72-.15,5.71,5.71,0,0,1,1.44-.25,1.92,1.92,0,0,1,1.54.66c.6.71.73,1.92.4,3.81s-.9,4.77-1.33,7.44c-1.23,7.66-1.51,8.89-2.67,8.89l0-.83v.83ZM57,208c-.72,0-1.25.95-1.57,2.81-1,4.32,2,12.17,3.39,14.23.39-1.42.9-4.6,1.29-7.05.43-2.69.88-5.48,1.34-7.5.32-1.87,0-2.34,0-2.41s-.06-.07-.27-.07a4.48,4.48,0,0,0-1,.19,4.59,4.59,0,0,1-1.13.2h0a3.68,3.68,0,0,1-1-.2A3.62,3.62,0,0,0,57,208Z" style="fill:#f9951b"/><path d="M59.65,161.85c-.26,0-1.27.3-2.65.72a22.69,22.69,0,0,0-2.42,1A18.36,18.36,0,0,0,52,164.86c-.83.52-1.64,1.06-2.36,1.6a12.65,12.65,0,0,0-1.8,1.71c-1,1.12-1.48,2.13-1.17,2.87a2,2,0,0,0,1.24,1,2.79,2.79,0,0,0-.66,2.21,1.66,1.66,0,0,0,.8.91,18.88,18.88,0,0,0-2.45,2.25c-.83,1-1.24,1.9-1,2.66a3,3,0,0,0,1.76,1.52A29.2,29.2,0,0,1,43,184.7a52.47,52.47,0,0,0-4.56,4.1c-1.21,1.35-1.82,2.52-1.44,3.23.25.47.9.72,1.79.83a25.94,25.94,0,0,0-3.76,3.65c-1.15,1.44-1.52,2.85-.95,3.4a1.57,1.57,0,0,0,.56.34c-1.1.79-1.81,1.67-1.73,2.58.12,1.28,1.66,2.44,3.37,3.36a18.7,18.7,0,0,0-3.71,5.08c-.77,1.66-.86,3-.24,3.5s1.82.27,3.32-.17,3.35-1.11,5.16-1.6a24.86,24.86,0,0,1,4.48-.89,2.34,2.34,0,0,0,1.6,1.5,4,4,0,0,0,2.52-.85,17.63,17.63,0,0,1,2.64-1.48,3.91,3.91,0,0,1,.49-.15,1.93,1.93,0,0,0,1.34,1,5.26,5.26,0,0,0,2.47-.56,11.08,11.08,0,0,1,2.47-.42c.3,0,.74-.1,1.11-.17.3,1.23.73,2.25,1.53,2.62,1.44.65,3.89-1,5.77-3.51a11.51,11.51,0,0,0,1.27-2A5.09,5.09,0,0,0,70,206.8,13.27,13.27,0,0,0,72,203c0-.07,0-.15.06-.22a1.53,1.53,0,0,0,.81,0c.77-.2,1.24-1.31,1.35-3a20.65,20.65,0,0,0-.81-5.65c-.26-1-.49-1.86-.74-2.7l0-.11a2.09,2.09,0,0,0,1.69.39c1.53-.48,2.23-3.51,2.39-6.77" style="fill:#fbc042"/><path d="M33.37,215.87a2.32,2.32,0,0,1-1.53-.47c-1-.77-.95-2.41,0-4.49A18.79,18.79,0,0,1,35,206.36c-1.81-1.13-2.75-2.28-2.87-3.47a3.23,3.23,0,0,1,1.22-2.63c-.68-1-.28-2.59,1.08-4.28a21,21,0,0,1,2.7-2.76,2,2,0,0,1-.82-.8c-.55-1,0-2.4,1.56-4.18a37.34,37.34,0,0,1,3.61-3.3l1-.87A28.79,28.79,0,0,0,45,181.81a2.94,2.94,0,0,1-1.2-1.46c-.24-.7-.24-1.87,1.13-3.47a15.32,15.32,0,0,1,1.81-1.74,2.07,2.07,0,0,1-.33-.65,2.87,2.87,0,0,1,.3-2.11,2.3,2.3,0,0,1-.85-1c-.42-1,0-2.25,1.31-3.74a13.55,13.55,0,0,1,1.93-1.83c.71-.53,1.52-1.08,2.41-1.64a13.09,13.09,0,0,1,2.05-1.08l.62-.29.66-.29a14.94,14.94,0,0,1,1.89-.74c1.32-.4,2.4-.68,2.73-.74a.83.83,0,1,1,.27,1.64c-.21,0-1.16.27-2.54.69a13.79,13.79,0,0,0-1.69.66l-.65.28-.62.29a11.72,11.72,0,0,0-1.83,1c-.88.55-1.66,1.08-2.33,1.58a12.06,12.06,0,0,0-1.69,1.6c-.92,1-1.13,1.72-1,2a1.38,1.38,0,0,0,.77.54.83.83,0,0,1,.39,1.24c-.6.9-.61,1.33-.55,1.51a.94.94,0,0,0,.43.44.83.83,0,0,1,.1,1.36A18.19,18.19,0,0,0,46.22,178c-.66.76-1,1.46-.83,1.85s.57.7,1.31,1a.83.83,0,0,1,.28,1.32,30.13,30.13,0,0,1-3.43,3.19l-1,.86a36.38,36.38,0,0,0-3.44,3.14c-1.33,1.48-1.39,2.17-1.33,2.28s.36.3,1.16.39a.83.83,0,0,1,.43,1.46A25.21,25.21,0,0,0,35.73,197c-1,1.21-1.12,2.12-1,2.3a.83.83,0,0,0,.26.14.83.83,0,0,1,.2,1.45c-.94.68-1.43,1.33-1.39,1.82s.48,1.38,2.94,2.71a.83.83,0,0,1,.19,1.32,17.92,17.92,0,0,0-3.54,4.84c-.73,1.58-.6,2.4-.47,2.51.38.31,2-.15,2.57-.32s1.32-.41,2-.64c1-.33,2.07-.67,3.13-1a25.74,25.74,0,0,1,4.64-.92.83.83,0,0,1,.82.48c.28.6.63,1,1,1a3.51,3.51,0,0,0,2-.74l.43-.27a14.27,14.27,0,0,1,2.34-1.28,4.76,4.76,0,0,1,.59-.18.83.83,0,0,1,.91.38,1.16,1.16,0,0,0,.75.63,4.52,4.52,0,0,0,2-.48l.09,0a11.91,11.91,0,0,1,2.7-.48c.3,0,.82-.12,1-.16a.83.83,0,0,1,1,.62c.28,1.17.64,1.86,1.07,2.05.85.38,2.91-.75,4.76-3.24a10.77,10.77,0,0,0,1.2-1.91.83.83,0,0,1,.34-.35,4.31,4.31,0,0,0,1.17-1.06,12.54,12.54,0,0,0,1.91-3.56l.06-.2a.83.83,0,0,1,1-.54.71.71,0,0,0,.37,0c.23-.06.63-.73.73-2.25a19.65,19.65,0,0,0-.78-5.39c-.26-1-.49-1.84-.74-2.68l0-.13a.83.83,0,0,1,1.24-.92,1.4,1.4,0,0,0,1,.3c.76-.24,1.62-2.19,1.8-6a.85.85,0,0,1,.87-.79.83.83,0,0,1,.79.87c-.15,3.05-.78,6.84-3,7.53a2.12,2.12,0,0,1-.72.1l.35,1.32a21.28,21.28,0,0,1,.84,5.9c-.17,2.73-1.16,3.56-2,3.77a2,2,0,0,1-.45.06,13.69,13.69,0,0,1-2,3.64,6.23,6.23,0,0,1-1.43,1.33,12.08,12.08,0,0,1-1.26,2c-1.86,2.53-4.69,4.68-6.76,3.75a3.69,3.69,0,0,1-1.79-2.42l-.44.05a10.31,10.31,0,0,0-2.29.39h0a5.75,5.75,0,0,1-2.8.58,2.51,2.51,0,0,1-1.54-.88,14.59,14.59,0,0,0-1.94,1.09l-.45.28a4.69,4.69,0,0,1-3.08,1A2.87,2.87,0,0,1,44.87,213a26.64,26.64,0,0,0-3.79.81c-1,.28-2.06.62-3.06.94-.74.24-1.45.47-2.1.66A9.79,9.79,0,0,1,33.37,215.87Z" style="fill:#f9951b"/><path d="M185.34,210.68c1.18,5.19,2.3,15.68,3.19,15.63,1.46.05,5.64-10.44,4.46-15.63-.88-5.15-3.26-3.1-4.37-3.1S184.46,205.53,185.34,210.68Z" style="fill:#f3f7d1"/><path d="M188.54,227.15h0c-1.14,0-1.43-1.23-2.65-8.89-.43-2.67-.87-5.42-1.32-7.39s-.2-3.15.4-3.86a1.92,1.92,0,0,1,1.54-.66,5.7,5.7,0,0,1,1.44.25,3.94,3.94,0,0,0,.71.15,3,3,0,0,0,.57-.13,5,5,0,0,1,1.42-.26c2.49,0,3,3.16,3.21,4.19,1.05,4.61-1.92,13.28-3.88,15.74A1.91,1.91,0,0,1,188.54,227.15ZM186.46,208c-.21,0-.25.05-.27.07s-.36.55,0,2.46.9,4.76,1.33,7.45c.39,2.45.9,5.64,1.29,7.06,1.41-2.06,4.37-9.91,3.4-14.19-.33-1.91-.86-2.86-1.58-2.86a3.63,3.63,0,0,0-1,.2,3.67,3.67,0,0,1-1,.2,4.58,4.58,0,0,1-1.15-.2A4.49,4.49,0,0,0,186.46,208Z" style="fill:#f9951b"/><path d="M177.69,210.68c1.18,5.19,2.3,15.68,3.19,15.63,1.46.05,5.64-10.44,4.46-15.63-.88-5.15-3.26-3.1-4.37-3.1S176.81,205.53,177.69,210.68Z" style="fill:#f3f7d1"/><path d="M180.89,227.15h0c-1.14,0-1.43-1.23-2.65-8.88-.43-2.67-.87-5.42-1.32-7.4s-.2-3.15.39-3.86a1.92,1.92,0,0,1,1.54-.66,5.71,5.71,0,0,1,1.44.25,4,4,0,0,0,.71.15,3,3,0,0,0,.57-.13,5,5,0,0,1,1.42-.26c2.49,0,3,3.16,3.21,4.19,1.05,4.61-1.92,13.28-3.88,15.74A1.91,1.91,0,0,1,180.89,227.15ZM178.81,208c-.21,0-.25.05-.27.07s-.36.55,0,2.46.9,4.77,1.33,7.46c.39,2.45.9,5.64,1.29,7.05,1.41-2.06,4.37-9.91,3.4-14.19C184.2,209,183.67,208,183,208a3.63,3.63,0,0,0-1,.2,3.67,3.67,0,0,1-1,.2,4.58,4.58,0,0,1-1.15-.2A4.48,4.48,0,0,0,178.81,208Z" style="fill:#f9951b"/><path d="M170,210.68c1.18,5.19,2.3,15.68,3.19,15.63,1.46.05,5.64-10.44,4.46-15.63-.88-5.15-3.26-3.1-4.37-3.1S169.16,205.53,170,210.68Z" style="fill:#f3f7d1"/><path d="M173.24,227.15h0c-1.14,0-1.43-1.23-2.65-8.88-.43-2.67-.87-5.42-1.32-7.4s-.2-3.15.39-3.86a1.92,1.92,0,0,1,1.54-.66,5.71,5.71,0,0,1,1.44.25,4,4,0,0,0,.71.15,3,3,0,0,0,.57-.13,5,5,0,0,1,1.42-.26c2.49,0,3,3.16,3.21,4.19,1.05,4.61-1.92,13.28-3.88,15.74A1.91,1.91,0,0,1,173.24,227.15ZM171.16,208c-.21,0-.25.05-.27.07s-.36.55,0,2.46.9,4.77,1.33,7.46c.39,2.45.9,5.64,1.29,7.05,1.41-2.06,4.37-9.91,3.4-14.19C176.55,209,176,208,175.3,208a3.62,3.62,0,0,0-1,.2,3.67,3.67,0,0,1-1,.2,4.58,4.58,0,0,1-1.15-.2A4.48,4.48,0,0,0,171.16,208Z" style="fill:#f9951b"/><path d="M155.58,185c.16,3.27.85,6.29,2.39,6.77a2.09,2.09,0,0,0,1.69-.39l0,.11c-.25.84-.48,1.72-.74,2.7a20.63,20.63,0,0,0-.81,5.65c.11,1.69.58,2.79,1.35,3a1.53,1.53,0,0,0,.81,0c0,.07,0,.15.06.22a13.27,13.27,0,0,0,2,3.81,5.09,5.09,0,0,0,1.41,1.26,11.51,11.51,0,0,0,1.27,2c1.88,2.55,4.32,4.16,5.77,3.51.8-.36,1.24-1.39,1.53-2.62.36.07.81.15,1.11.17a11.08,11.08,0,0,1,2.47.42,5.25,5.25,0,0,0,2.47.56,1.93,1.93,0,0,0,1.34-1,3.89,3.89,0,0,1,.49.15,17.65,17.65,0,0,1,2.64,1.48,4,4,0,0,0,2.52.85,2.34,2.34,0,0,0,1.6-1.5,24.86,24.86,0,0,1,4.48.89c1.82.5,3.66,1.17,5.17,1.6s2.69.68,3.32.17.52-1.84-.24-3.5a18.68,18.68,0,0,0-3.71-5.08c1.71-.93,3.25-2.09,3.37-3.36.09-.91-.63-1.78-1.73-2.58a1.57,1.57,0,0,0,.56-.34c.57-.55.21-2-.95-3.4a25.92,25.92,0,0,0-3.76-3.65c.89-.11,1.54-.35,1.79-.83.38-.7-.23-1.88-1.44-3.23a52.23,52.23,0,0,0-4.56-4.1,29.22,29.22,0,0,1-3.33-3.11,3,3,0,0,0,1.76-1.52c.26-.76-.15-1.7-1-2.66a18.91,18.91,0,0,0-2.45-2.25,1.65,1.65,0,0,0,.8-.91,2.79,2.79,0,0,0-.66-2.21,2,2,0,0,0,1.24-1c.31-.74-.19-1.75-1.17-2.87a12.63,12.63,0,0,0-1.8-1.71c-.72-.54-1.53-1.08-2.36-1.6a18.41,18.41,0,0,0-2.59-1.32,22.73,22.73,0,0,0-2.42-1c-1.37-.42-2.39-.67-2.65-.72" style="fill:#fbc042"/><path d="M198.93,215.87a9.78,9.78,0,0,1-2.55-.49c-.65-.19-1.36-.42-2.1-.66-1-.32-2-.66-3.06-.94a26.71,26.71,0,0,0-3.8-.81,2.87,2.87,0,0,1-1.94,1.44,4.67,4.67,0,0,1-3.08-1l-.45-.28a14.54,14.54,0,0,0-1.93-1.08,2.5,2.5,0,0,1-1.54.88,5.68,5.68,0,0,1-2.8-.58l-.09,0a10.45,10.45,0,0,0-2.23-.37l-.44-.05a3.69,3.69,0,0,1-1.79,2.42c-2.06.94-4.89-1.22-6.77-3.77a11.9,11.9,0,0,1-1.24-1.93,6.19,6.19,0,0,1-1.42-1.32,13.7,13.7,0,0,1-2-3.64,2,2,0,0,1-.45-.06c-.8-.21-1.79-1-2-3.75a21.26,21.26,0,0,1,.84-5.92l.35-1.32a2.17,2.17,0,0,1-.72-.1c-2.19-.69-2.82-4.47-3-7.53a.83.83,0,0,1,1.66-.08c.18,3.83,1,5.78,1.81,6a1.4,1.4,0,0,0,1-.3.83.83,0,0,1,1.24.91l0,.14c-.25.84-.48,1.71-.73,2.68a19.63,19.63,0,0,0-.78,5.41c.09,1.5.5,2.17.73,2.23a.77.77,0,0,0,.37,0,.83.83,0,0,1,1,.54l0,.14a12.54,12.54,0,0,0,1.93,3.63,4.29,4.29,0,0,0,1.16,1.05.83.83,0,0,1,.34.35,10.66,10.66,0,0,0,1.18,1.88c1.86,2.52,3.92,3.66,4.77,3.27.43-.19.79-.88,1.07-2.05a.83.83,0,0,1,1-.62c.2,0,.73.14,1,.16a12,12,0,0,1,2.64.45l.15.06a4.54,4.54,0,0,0,2,.48,1.15,1.15,0,0,0,.75-.63.83.83,0,0,1,.91-.38,4.7,4.7,0,0,1,.6.18,14.25,14.25,0,0,1,2.34,1.27l.44.27a3.49,3.49,0,0,0,1.95.74c.35-.06.7-.43,1-1a.82.82,0,0,1,.82-.48,25.77,25.77,0,0,1,4.64.92c1.06.29,2.11.63,3.13,1,.72.24,1.41.46,2,.64s2.19.63,2.57.32c.13-.11.26-.92-.47-2.51a17.91,17.91,0,0,0-3.54-4.84.83.83,0,0,1,.19-1.32c2.46-1.33,2.9-2.27,2.94-2.71s-.44-1.14-1.39-1.82a.83.83,0,0,1,.2-1.45.78.78,0,0,0,.27-.15c.09-.17-.05-1.09-1-2.28a25.2,25.2,0,0,0-3.65-3.53.83.83,0,0,1,.43-1.46c1-.12,1.15-.38,1.16-.39s0-.81-1.33-2.28a36,36,0,0,0-3.45-3.14l-1-.88a30.09,30.09,0,0,1-3.4-3.18.83.83,0,0,1,.28-1.32c.74-.33,1.19-.68,1.31-1s-.17-1.09-.82-1.85a18.16,18.16,0,0,0-2.34-2.15.83.83,0,0,1,.1-1.36.94.94,0,0,0,.43-.44c.05-.18.05-.61-.55-1.51a.83.83,0,0,1,.39-1.24,1.38,1.38,0,0,0,.77-.54c.11-.27-.1-.95-1-2a11.79,11.79,0,0,0-1.67-1.59c-.68-.51-1.45-1-2.31-1.57a11.74,11.74,0,0,0-1.85-1l-.65-.3-.62-.27a13.9,13.9,0,0,0-1.67-.66c-1.4-.43-2.35-.66-2.56-.7a.83.83,0,1,1,.27-1.64c.34.06,1.42.34,2.75.74a14.91,14.91,0,0,1,1.87.73l.63.27.66.3a13.13,13.13,0,0,1,2.08,1.09c.86.54,1.68,1.09,2.39,1.62a13.26,13.26,0,0,1,1.92,1.81c1.32,1.5,1.75,2.73,1.32,3.75a2.31,2.31,0,0,1-.85,1,2.88,2.88,0,0,1,.3,2.12,2.06,2.06,0,0,1-.33.65,15.32,15.32,0,0,1,1.81,1.74c1.37,1.59,1.37,2.76,1.13,3.47a2.94,2.94,0,0,1-1.2,1.46,28.46,28.46,0,0,0,2.5,2.25l1.05.89a37.37,37.37,0,0,1,3.61,3.3c1.6,1.78,2.11,3.15,1.56,4.18a2,2,0,0,1-.82.8,21.13,21.13,0,0,1,2.71,2.77c1.35,1.68,1.75,3.31,1.07,4.27a3.23,3.23,0,0,1,1.22,2.63c-.11,1.2-1.06,2.34-2.87,3.47a18.76,18.76,0,0,1,3.13,4.55c1,2.08,1,3.72,0,4.49A2.32,2.32,0,0,1,198.93,215.87Z" style="fill:#f9951b"/><path d="M124.29,133.08a12.91,12.91,0,0,0-12.2,8.74,10,10,0,1,0,1.78,11.74,12.89,12.89,0,1,0,10.41-20.48Z" style="fill:#8c540f"/><circle cx="105.06" cy="148.9" r="5.83" style="fill:#fff"/><circle cx="124.29" cy="145.98" r="8.74" style="fill:#fff"/><path d="M122.54,164H109.72l5.25,4.13v6.22a1.17,1.17,0,0,0,2.33,0v-6.22Z" style="fill:#8c540f"/></svg>