<svg xmlns="http://www.w3.org/2000/svg" viewBox="0 0 232 300"><title>mort</title><path d="M170.86,124.74a182.67,182.67,0,0,0-6.37-20.87c-9.64-26.12-12.62-45.37-19.24-43-2.87,1-6,6-7.75,13.36a41.27,41.27,0,0,0-43,0c-1.79-7.39-4.87-12.33-7.75-13.36-6.62-2.38-9.6,16.87-19.24,43a182.66,182.66,0,0,0-6.37,20.87c-4.09,14.5-6.39,31.42-6.39,50.35,0,65.36,27.42,64.24,61.25,64.24s61.25,1.11,61.25-64.24C177.25,156.16,175,139.24,170.86,124.74Z" style="fill:#2a2a2a"/><path d="M116,78c-23.85,0-38.49,26.68-35.3,42.33.52,2.53,1.07,6.11,4.1,6.69,4.08.78,8.53-2.12,12-3.86,1.73-.87,3.59-1.06,3.78,1.31.25,3.13-1.8,6.8,1.52,8.76a20.45,20.45,0,0,0,7.8,2.42l1-9.92,1,10.12c1.39.1,2.77.14,4.09.14s2.7,0,4.09-.14l1-10.12,1,9.92a20.45,20.45,0,0,0,7.8-2.42c3.32-2,1.27-5.63,1.52-8.76.19-2.38,2-2.18,3.78-1.31,3.47,1.74,7.92,4.65,12,3.86,3-.58,3.59-4.17,4.1-6.69C154.49,104.71,139.85,78.06,116,78Zm-13.78,35.73a11.23,11.23,0,1,1,11.23-11.23A11.23,11.23,0,0,1,102.22,113.76ZM116,118.43,112.43,114h7.15Zm13.78-4.67A11.23,11.23,0,1,1,141,102.53,11.23,11.23,0,0,1,129.78,113.76Z" style="fill:#fff"/></svg>