<svg xmlns="http://www.w3.org/2000/svg" viewBox="0 0 232 300"><title>reginald</title><path d="M76.06,179.93c-12.3,16.46-15,36.23-6,54.95-13-17.55-15.61-38.53-6-58.34Z" style="fill:#fda704"/><path d="M70.08,235.7a.83.83,0,0,1-.67-.34c-13.35-18.08-15.56-39.66-6.06-59.2a.83.83,0,0,1,1-.44l12,3.4a.83.83,0,0,1,.44,1.3c-12.29,16.45-14.46,36.1-6,54a.83.83,0,0,1-.67,1.32Zm-5.54-58.18c-7.86,16.64-7.19,34.13,1.77,50-4.92-15.94-2-32.7,8.37-47.15Z" style="fill:#f9951b"/><path d="M93.81,184.36c-12.3,16.46-14.95,36.23-6,54.95-13-17.55-15.61-38.53-6-58.34Z" style="fill:#fda704"/><path d="M87.83,240.14a.83.83,0,0,1-.67-.34c-13.35-18.08-15.56-39.66-6.06-59.2a.83.83,0,0,1,1-.44l12,3.4a.83.83,0,0,1,.44,1.3c-12.29,16.45-14.46,36.1-6,54a.83.83,0,0,1-.67,1.32ZM82.29,182c-7.86,16.64-7.19,34.13,1.77,50-4.92-15.94-2-32.7,8.37-47.15Z" style="fill:#f9951b"/><path d="M111.56,184.36c-12.3,16.46-14.95,36.23-6,54.95-13-17.55-15.61-38.53-6-58.34Z" style="fill:#fda704"/><path d="M105.58,240.14a.83.83,0,0,1-.67-.34c-13.35-18.08-15.56-39.66-6.06-59.2a.83.83,0,0,1,1-.44l12,3.4a.83.83,0,0,1,.44,1.3c-12.29,16.45-14.46,36.1-6,54a.83.83,0,0,1-.67,1.32ZM100,182c-7.86,16.64-7.19,34.13,1.77,50-4.92-15.94-2-32.7,8.37-47.15Z" style="fill:#f9951b"/><path d="M155.94,179.93c12.3,16.46,14.95,36.23,6,54.95,13-17.55,15.61-38.53,6-58.34Z" style="fill:#fda704"/><path d="M161.92,235.7a.83.83,0,0,1-.75-1.19c8.57-17.89,6.42-37.6-5.9-54.09a.83.83,0,0,1,.44-1.3l12-3.4a.83.83,0,0,1,1,.44c9.5,19.54,7.29,41.12-6.06,59.2A.83.83,0,0,1,161.92,235.7Zm-4.6-55.3c10.38,14.45,13.29,31.22,8.37,47.15,9-15.9,9.64-33.39,1.77-50Z" style="fill:#f9951b"/><path d="M138.19,184.36c12.3,16.46,15,36.23,6,54.95,13-17.55,15.61-38.53,6-58.34Z" style="fill:#fda704"/><path d="M144.17,240.14a.83.83,0,0,1-.75-1.19c8.57-17.89,6.42-37.6-5.9-54.09a.83.83,0,0,1,.44-1.3l12-3.4a.83.83,0,0,1,1,.44c9.5,19.54,7.29,41.12-6.06,59.2A.83.83,0,0,1,144.17,240.14Zm-4.6-55.3c10.38,14.45,13.29,31.22,8.37,47.15,9-15.9,9.63-33.39,1.77-50Z" style="fill:#f9951b"/><path d="M120.44,184.36c12.3,16.46,15,36.23,6,54.95,13-17.55,15.61-38.53,6-58.34Z" style="fill:#fda704"/><path d="M126.42,240.14a.83.83,0,0,1-.75-1.19c8.57-17.89,6.42-37.6-5.9-54.09a.83.83,0,0,1,.44-1.3l12-3.4a.83.83,0,0,1,1,.44c9.5,19.54,7.29,41.12-6.06,59.2A.83.83,0,0,1,126.42,240.14Zm-4.6-55.3c10.38,14.45,13.29,31.22,8.37,47.15,9-15.9,9.63-33.39,1.77-50Z" style="fill:#f9951b"/><path d="M120.59,206.45c1.72-.88,3.83-2.19,3.43-3a19.64,19.64,0,0,0,1.2,2.21c1,1.62,2.19,2.65,3.41,2.64s2.4-1,3.48-2.48a24.75,24.75,0,0,0,3-5.72l0-.09c.21.44.43.87.67,1.3a6.41,6.41,0,0,0,2.6,2.86c1.11.5,2.47.22,4-.77a13,13,0,0,0,2.06-1.86,26,26,0,0,0,1.71-2.15c.37.68.74,1.33,1.16,2a6,6,0,0,0,2.91,2.82c1.16.35,2.52-.27,3.9-1.74a15,15,0,0,0,1.79-2.64,24.68,24.68,0,0,0,1.37-3.2c.16-.46.31-.92.45-1.39a4.82,4.82,0,0,0,3.11,1.59c1.22,0,2.36-.92,3.35-2.48a15.69,15.69,0,0,0,1.24-2.69,26.64,26.64,0,0,0,.85-3.11c.17-.8.3-1.59.41-2.35l.2.11c1.69.83,3.25,1.14,4.28.49s1.53-2.07,1.7-3.92a21.85,21.85,0,0,0-.6-6.55,26,26,0,0,0-1.61-4.76l.57,0c.35,0,.7,0,1,0a4.16,4.16,0,0,0,1.86-.46,2.52,2.52,0,0,0,1.14-1.48,4.83,4.83,0,0,0,.21-1.18,6.4,6.4,0,0,0-.06-1.4,12.77,12.77,0,0,0-.33-1.5,10.59,10.59,0,0,0-.56-1.59,18.7,18.7,0,0,0-1.68-3.13c-.33-.5-.68-1-1-1.49s-.66-.8-1-1.18a3.19,3.19,0,0,0,1.83-.62c1-.76,1.22-2.24,1-4.11a18,18,0,0,0-.64-3c-.32-1-.72-2.09-1.16-3.14s-.86-2-1.3-2.84a2.82,2.82,0,0,0,1.79-.76c.84-.89.75-2.54,0-4.61a22.5,22.5,0,0,0-1.56-3.25,32.45,32.45,0,0,0-2.3-3.38,35.72,35.72,0,0,0-2.73-3.16c-.43-.47-.87-.9-1.31-1.31.27-1.08-.34-2.51-1.48-4.1a25.4,25.4,0,0,0-2.31-2.75c-.91-.93-1.93-1.87-3-2.78-.8-.73-1.66-1.42-2.53-2.06a2.05,2.05,0,0,0,.62-.93,3.2,3.2,0,0,0-.17-1.95,11.9,11.9,0,0,0-1.13-2.23,32.52,32.52,0,0,0-4.29-5.37c-.49-.48-.94-.94-1.5-1.41s-.91-.76-1.34-1.09a4,4,0,0,0,1-1.23,2.5,2.5,0,0,0,.08-1.9A5.57,5.57,0,0,0,147,97.85a16.1,16.1,0,0,0-6.18-3.38,43.63,43.63,0,0,0-4.65-1.2,7.51,7.51,0,0,0,.71-2.52c.06-1.21-.64-2.39-2.21-3.29a9.32,9.32,0,0,0-2.71-.87,13.23,13.23,0,0,0-3.15-.08c-.52.05-1.05.12-1.58.21s-1,.22-1.46.35-.71.2-1,.32c0-.22-.06-.45-.1-.66a4.27,4.27,0,0,0-5.74-3.81,16.93,16.93,0,0,0-2.89.93,16.94,16.94,0,0,0-2.89-.93,4.27,4.27,0,0,0-5.74,3.81c0,.21-.07.44-.1.66-.33-.11-.68-.22-1-.32s-1-.25-1.46-.35-1.06-.16-1.58-.21a13.23,13.23,0,0,0-3.14.08,9.32,9.32,0,0,0-2.71.87c-1.57.9-2.27,2.08-2.21,3.29a7.5,7.5,0,0,0,.71,2.52,43.6,43.6,0,0,0-4.65,1.2A16.1,16.1,0,0,0,85,97.85a5.56,5.56,0,0,0-1.47,2.22,2.5,2.5,0,0,0,.08,1.9,4,4,0,0,0,1,1.23c-.44.33-.89.7-1.34,1.09s-1,.93-1.5,1.41a32.52,32.52,0,0,0-4.29,5.37,11.93,11.93,0,0,0-1.13,2.23,3.21,3.21,0,0,0-.17,1.95,2.05,2.05,0,0,0,.62.93c-.87.65-1.73,1.33-2.53,2.06-1,.91-2.06,1.85-3,2.78A25.39,25.39,0,0,0,69,123.79c-1.13,1.59-1.75,3-1.48,4.1-.44.41-.88.85-1.31,1.31a35.79,35.79,0,0,0-2.73,3.16,32.24,32.24,0,0,0-2.3,3.38A22.47,22.47,0,0,0,59.64,139c-.71,2.06-.8,3.72,0,4.61a2.82,2.82,0,0,0,1.79.76c-.44.88-.88,1.83-1.3,2.84s-.84,2.11-1.16,3.14a18,18,0,0,0-.63,3c-.21,1.87.06,3.35,1,4.11a3.19,3.19,0,0,0,1.83.62c-.34.38-.68.77-1,1.18s-.71,1-1,1.49a18.71,18.71,0,0,0-1.68,3.13,10.58,10.58,0,0,0-.56,1.59,12.66,12.66,0,0,0-.33,1.5,6.4,6.4,0,0,0-.06,1.4,4.85,4.85,0,0,0,.21,1.18,2.52,2.52,0,0,0,1.14,1.48,4.16,4.16,0,0,0,1.86.46c.34,0,.69,0,1,0l.56,0a26,26,0,0,0-1.61,4.76,21.83,21.83,0,0,0-.6,6.55c.17,1.85.67,3.26,1.7,3.92s2.59.34,4.28-.49l.2-.11c.11.76.25,1.55.41,2.35a26.75,26.75,0,0,0,.85,3.11,15.67,15.67,0,0,0,1.24,2.69c1,1.56,2.13,2.48,3.35,2.48a4.82,4.82,0,0,0,3.11-1.59c.14.47.29.93.45,1.39a24.67,24.67,0,0,0,1.37,3.2,15,15,0,0,0,1.79,2.64c1.38,1.47,2.74,2.09,3.9,1.74a6,6,0,0,0,2.91-2.82c.42-.63.79-1.27,1.16-2a26,26,0,0,0,1.71,2.15,13,13,0,0,0,2.06,1.86c1.49,1,2.86,1.27,4,.77a6.42,6.42,0,0,0,2.6-2.86c.24-.42.46-.86.67-1.3l0,.09a24.77,24.77,0,0,0,3,5.72c1.08,1.47,2.25,2.48,3.48,2.48s2.38-1,3.41-2.64A19.64,19.64,0,0,0,108,203.4c.31.4.62.78.91,1.14a15.66,15.66,0,0,0,2.37,2.2c2.11,1.57,5,1.39,7.35.6A19.56,19.56,0,0,0,120.59,206.45Z" style="fill:#c5d618"/><path d="M128.62,209.08c-1.44,0-2.82-1-4.1-3-.16-.26-.33-.53-.5-.83a13.59,13.59,0,0,1-3,2,20,20,0,0,1-2.09.94,11.86,11.86,0,0,1-3.69.64h0a7.22,7.22,0,0,1-4.42-1.36,16.45,16.45,0,0,1-2.5-2.32l-.13-.15c-.22.41-.44.78-.66,1.12-1.28,2-2.66,3-4.1,3s-2.77-.93-4.16-2.82a23.2,23.2,0,0,1-2.42-4.33A6.85,6.85,0,0,1,94,204.87c-1.36.61-3,.33-4.77-.84A13.86,13.86,0,0,1,87,202c-.31-.34-.64-.73-1-1.19-.18.3-.37.61-.57.91-.76,1.22-1.85,2.71-3.36,3.16s-3.12-.24-4.74-2a15.86,15.86,0,0,1-1.92-2.82A25.64,25.64,0,0,1,74,196.8l-.08-.23a4.61,4.61,0,0,1-2.69,1c-1.49,0-2.85-1-4.06-2.87a16.42,16.42,0,0,1-1.32-2.85,27.72,27.72,0,0,1-.88-3.23c-.09-.41-.17-.84-.25-1.3-1.78.72-3.23.74-4.27.08-1.19-.75-1.88-2.24-2.09-4.55a22.75,22.75,0,0,1,.62-6.82,26.75,26.75,0,0,1,1.15-3.69h-.37a4.88,4.88,0,0,1-2.23-.56A3.34,3.34,0,0,1,56,169.83a5.7,5.7,0,0,1-.25-1.38,7.28,7.28,0,0,1,.07-1.6,13.42,13.42,0,0,1,.34-1.58,11.29,11.29,0,0,1,.6-1.71,19.71,19.71,0,0,1,1.75-3.26c.33-.49.68-1,1-1.5l.14-.18a3.31,3.31,0,0,1-.82-.48c-1.13-.91-1.58-2.54-1.32-4.86a18.75,18.75,0,0,1,.66-3.17c.31-1,.71-2.08,1.19-3.22.26-.63.55-1.28.87-1.94a3.07,3.07,0,0,1-1.19-.76c-1-1.08-1.1-2.92-.22-5.45a23.45,23.45,0,0,1,1.62-3.39,33.35,33.35,0,0,1,2.37-3.49,36.43,36.43,0,0,1,2.78-3.22c.3-.32.63-.66,1-1-.08-1.17.47-2.58,1.69-4.28a26.16,26.16,0,0,1,2.39-2.85c.88-.9,1.9-1.85,3-2.83.56-.51,1.18-1,1.89-1.58a2.6,2.6,0,0,1-.24-.55A4,4,0,0,1,75.6,113a12.68,12.68,0,0,1,1.21-2.4,33.62,33.62,0,0,1,4.39-5.51l.37-.37c.36-.36.74-.73,1.19-1.1l.62-.52a4,4,0,0,1-.53-.78,3.32,3.32,0,0,1-.13-2.53,6.3,6.3,0,0,1,1.68-2.56,17.27,17.27,0,0,1,6.51-3.58c1.36-.44,2.67-.77,3.77-1a6.53,6.53,0,0,1-.4-1.87,4.5,4.5,0,0,1,2.63-4,10.15,10.15,0,0,1,3-1,13.73,13.73,0,0,1,3.38-.08c.51,0,1.06.12,1.62.21s1,.24,1.54.37l.17,0a5.69,5.69,0,0,1,2.21-3.64,5.81,5.81,0,0,1,4.46-.57A16.89,16.89,0,0,1,116,83a16.76,16.76,0,0,1,2.72-.85,5.79,5.79,0,0,1,4.47.57,5.69,5.69,0,0,1,2.21,3.64l.18,0c.49-.13,1-.26,1.51-.36s1.13-.17,1.67-.22a14,14,0,0,1,3.33.08,10.13,10.13,0,0,1,3,1c1.81,1,2.74,2.48,2.67,4.07a6.54,6.54,0,0,1-.4,1.87c1.11.25,2.41.57,3.78,1a17.26,17.26,0,0,1,6.51,3.58,6.31,6.31,0,0,1,1.68,2.57,3.31,3.31,0,0,1-.13,2.5,4.08,4.08,0,0,1-.54.8l.63.53c.44.36.81.73,1.17,1.09l.36.35a33.66,33.66,0,0,1,4.41,5.53,12.63,12.63,0,0,1,1.21,2.4,4,4,0,0,1,.18,2.46,2.61,2.61,0,0,1-.24.55c.71.55,1.34,1.08,1.91,1.59,1.12,1,2.13,1.92,3,2.82a26.17,26.17,0,0,1,2.4,2.85c1.22,1.71,1.77,3.11,1.69,4.28.39.37.72.71,1,1.05a36.24,36.24,0,0,1,2.78,3.22,33.38,33.38,0,0,1,2.35,3.45,23.51,23.51,0,0,1,1.63,3.39c.89,2.56.81,4.39-.21,5.47a3.07,3.07,0,0,1-1.19.76c.32.67.6,1.31.87,1.94.48,1.14.88,2.22,1.18,3.21a18.93,18.93,0,0,1,.67,3.18c.26,2.32-.18,3.95-1.32,4.86a3.36,3.36,0,0,1-.82.48l.13.17c.38.51.73,1,1.07,1.54a19.73,19.73,0,0,1,1.75,3.25,11.34,11.34,0,0,1,.6,1.71,13.6,13.6,0,0,1,.35,1.6,7.23,7.23,0,0,1,.07,1.58,5.67,5.67,0,0,1-.25,1.39,3.34,3.34,0,0,1-1.52,1.94,4.88,4.88,0,0,1-2.23.56h-.37a26.71,26.71,0,0,1,1.15,3.69,22.75,22.75,0,0,1,.62,6.81c-.21,2.31-.89,3.8-2.09,4.55s-2.5.64-4.27-.08c-.08.46-.16.89-.25,1.3a27.53,27.53,0,0,1-.87,3.21,16.44,16.44,0,0,1-1.32,2.85c-1.22,1.92-2.58,2.88-4.06,2.89a4.62,4.62,0,0,1-2.7-1l-.08.24a25.5,25.5,0,0,1-1.41,3.3,16,16,0,0,1-1.9,2.81c-1.65,1.76-3.3,2.44-4.77,2s-2.6-1.93-3.38-3.18c-.19-.29-.38-.58-.56-.88-.36.46-.69.86-1,1.19a13.87,13.87,0,0,1-2.2,2c-1.77,1.18-3.42,1.46-4.79.85a6.85,6.85,0,0,1-2.83-2.95,23.2,23.2,0,0,1-2.42,4.33c-1.39,1.89-2.75,2.82-4.14,2.82Zm-3.85-6a18.79,18.79,0,0,0,1.14,2.12c.94,1.48,1.88,2.26,2.7,2.26v0c.81,0,1.79-.75,2.81-2.14a23.81,23.81,0,0,0,2.85-5.52.9.9,0,0,1,.76-.58.81.81,0,0,1,.8.43c.24.51.44.89.64,1.24a5.81,5.81,0,0,0,2.22,2.52c.84.38,1.92.13,3.17-.71a12.17,12.17,0,0,0,1.91-1.73,24.55,24.55,0,0,0,1.65-2.07.83.83,0,0,1,1.4.09c.41.75.74,1.33,1.12,1.89.64,1,1.48,2.2,2.46,2.49s1.93-.31,3.06-1.51a14.19,14.19,0,0,0,1.66-2.47,23.67,23.67,0,0,0,1.32-3.07c.16-.46.31-.92.45-1.37a.83.83,0,0,1,1.36-.36,4.05,4.05,0,0,0,2.54,1.36c1.09,0,2-1.14,2.66-2.1a15,15,0,0,0,1.16-2.53,25.77,25.77,0,0,0,.82-3c.14-.69.27-1.42.41-2.31a.83.83,0,0,1,1.19-.62l.12.07c1.65.82,2.87,1,3.54.57s1.16-1.56,1.32-3.29a21,21,0,0,0-.58-6.29,25.27,25.27,0,0,0-1.56-4.6.83.83,0,0,1,.82-1.17l.54,0c.32,0,.64,0,1,0a3.33,3.33,0,0,0,1.49-.35,1.71,1.71,0,0,0,.76-1,4,4,0,0,0,.17-1,5.55,5.55,0,0,0,0-1.21,12.09,12.09,0,0,0-.31-1.42,9.7,9.7,0,0,0-.51-1.46,18.23,18.23,0,0,0-1.61-3c-.34-.51-.68-1-1-1.48s-.6-.73-.92-1.09a.87.87,0,0,1-.16-.89.83.83,0,0,1,.7-.53,2.4,2.4,0,0,0,1.36-.44c.82-.66.84-2.2.7-3.37a17.23,17.23,0,0,0-.61-2.89c-.29-.93-.67-2-1.13-3.05-.37-.89-.79-1.8-1.28-2.79a.83.83,0,0,1,.65-1.2,2,2,0,0,0,1.28-.51c.55-.58.5-1.92-.14-3.76a21.79,21.79,0,0,0-1.49-3.1,31.57,31.57,0,0,0-2.23-3.27,35.18,35.18,0,0,0-2.68-3.1c-.38-.42-.79-.82-1.28-1.29a.83.83,0,0,1-.24-.8c.11-.42.07-1.43-1.35-3.42a24.45,24.45,0,0,0-2.24-2.66c-.84-.86-1.83-1.78-2.92-2.73-.72-.65-1.52-1.31-2.48-2a.83.83,0,0,1-.06-1.28A1.22,1.22,0,0,0,155,115a2.43,2.43,0,0,0-.16-1.43,11.16,11.16,0,0,0-1-2.07,31.92,31.92,0,0,0-4.18-5.23l-.35-.35c-.35-.35-.69-.68-1.08-1s-.89-.75-1.31-1.07a.83.83,0,0,1,0-1.3,3.12,3.12,0,0,0,.84-1,1.69,1.69,0,0,0,0-1.27,4.8,4.8,0,0,0-1.27-1.89,15.24,15.24,0,0,0-5.84-3.17A43,43,0,0,0,136,94.08a.83.83,0,0,1-.6-1.14,6.85,6.85,0,0,0,.64-2.23,3,3,0,0,0-1.8-2.53,8.48,8.48,0,0,0-2.42-.77,12.34,12.34,0,0,0-2.91-.07c-.53.05-1,.12-1.55.2s-.92.21-1.38.34-.68.19-1,.3a.83.83,0,0,1-1.09-.67l0-.18c0-.14,0-.29-.07-.43a3.47,3.47,0,0,0-4.77-3.17,15.94,15.94,0,0,0-2.74.89.83.83,0,0,1-.63,0,16,16,0,0,0-2.74-.89,3.47,3.47,0,0,0-4.76,3.17c0,.14,0,.29-.07.44l0,.18a.83.83,0,0,1-1.09.67c-.31-.11-.64-.21-1-.3s-.93-.25-1.42-.34-1-.15-1.5-.2a12.1,12.1,0,0,0-3,.07,8.47,8.47,0,0,0-2.44.78,3,3,0,0,0-1.76,2.51,6.83,6.83,0,0,0,.64,2.23.83.83,0,0,1-.6,1.14,42.88,42.88,0,0,0-4.56,1.18,15.24,15.24,0,0,0-5.85,3.18,4.79,4.79,0,0,0-1.26,1.87,1.7,1.7,0,0,0,0,1.3,3.12,3.12,0,0,0,.83.95.83.83,0,0,1,0,1.3c-.42.32-.86.68-1.3,1.06s-.74.67-1.09,1l-.37.36a31.85,31.85,0,0,0-4.16,5.22,11.09,11.09,0,0,0-1.05,2.07A2.43,2.43,0,0,0,77,115a1.23,1.23,0,0,0,.38.55.83.83,0,0,1-.06,1.28c-1,.71-1.76,1.37-2.47,2-1.11,1-2.09,1.89-2.94,2.75a24.46,24.46,0,0,0-2.23,2.66c-1.42,2-1.45,3-1.35,3.42a.83.83,0,0,1-.24.8c-.5.47-.9.87-1.27,1.27a35.07,35.07,0,0,0-2.68,3.11,32,32,0,0,0-2.25,3.31,21.76,21.76,0,0,0-1.49,3.1c-.63,1.83-.68,3.16-.13,3.74a2,2,0,0,0,1.28.51.83.83,0,0,1,.65,1.2c-.49,1-.91,1.89-1.28,2.79-.46,1.1-.84,2.13-1.13,3.06a17.1,17.1,0,0,0-.6,2.88c-.13,1.18-.12,2.72.7,3.37a2.4,2.4,0,0,0,1.36.44.83.83,0,0,1,.57,1.38c-.34.39-.66.75-1,1.14s-.68,1-1,1.44a18.23,18.23,0,0,0-1.61,3,9.74,9.74,0,0,0-.52,1.47,11.93,11.93,0,0,0-.31,1.41,5.58,5.58,0,0,0-.05,1.23,4,4,0,0,0,.17,1,1.71,1.71,0,0,0,.76,1,3.33,3.33,0,0,0,1.49.35c.31,0,.64,0,1,0l.54,0a.83.83,0,0,1,.82,1.17,25.29,25.29,0,0,0-1.56,4.6,21.07,21.07,0,0,0-.58,6.3c.16,1.73.6,2.83,1.32,3.29s1.93.22,3.47-.54l.19-.1a.83.83,0,0,1,1.19.62c.13.89.26,1.62.41,2.3a25.87,25.87,0,0,0,.82,3,14.86,14.86,0,0,0,1.17,2.53c.6.94,1.55,2.08,2.64,2.08a4.05,4.05,0,0,0,2.54-1.36.83.83,0,0,1,1.36.36c.14.46.29.91.44,1.36a23.73,23.73,0,0,0,1.33,3.1,14.14,14.14,0,0,0,1.68,2.48c1.1,1.17,2.2,1.73,3,1.49s1.82-1.47,2.44-2.47c.4-.59.73-1.17,1.14-1.92a.83.83,0,0,1,.68-.43.84.84,0,0,1,.72.34,24.47,24.47,0,0,0,1.65,2.08,12.16,12.16,0,0,0,1.93,1.74c1.23.82,2.31,1.08,3.15.7a5.79,5.79,0,0,0,2.22-2.51c.2-.35.41-.75.65-1.25a.82.82,0,0,1,.79-.47.83.83,0,0,1,.74.54L97,200h0l.69-.26a23.81,23.81,0,0,0,2.85,5.52c1,1.4,2,2.14,2.81,2.14s1.77-.78,2.71-2.26a18.63,18.63,0,0,0,1.14-2.12.83.83,0,0,1,1.41-.15c.3.39.6.77.89,1.12a14.7,14.7,0,0,0,2.23,2.06,5.6,5.6,0,0,0,3.43,1h0a10.19,10.19,0,0,0,3.16-.55,19.21,19.21,0,0,0,1.87-.85c2.14-1.09,2.87-1.82,3-2.07a.83.83,0,0,1,1.55-.59Z" style="fill:#a0aa16"/><path d="M184,133.31a8.25,8.25,0,0,0-9.82-5.14,6.84,6.84,0,0,0-4,2.52,5.78,5.78,0,0,0-1,2.28,24.57,24.57,0,0,1,0,2.67,1.28,1.28,0,0,0,.22-.61c1.12-5.21,8.45-4.59,9.87.09a8.46,8.46,0,0,1-.84,6.24,14.56,14.56,0,0,1-8.55,7.53c-7.69,2.18-14.72-4.53-19.14-9.92-19.83-24.2-34.56-5.69-34.56-5.69l-.18.52-.18-.52S101.09,114.75,81.26,139c-4.42,5.39-11.45,12.1-19.14,9.92a14.56,14.56,0,0,1-8.55-7.53,8.46,8.46,0,0,1-.84-6.24c1.42-4.68,8.75-5.3,9.87-.09a1.27,1.27,0,0,0,.22.61,24.55,24.55,0,0,1,0-2.67,5.77,5.77,0,0,0-1-2.28,6.84,6.84,0,0,0-4-2.52A8.25,8.25,0,0,0,48,133.31a14,14,0,0,0-.41,7.86c1.72,8.35,7.23,13.62,14.47,17.62,8.94,4.94,22.79,9.76,32.38,4.05,7.12-4.24,12.28-13.77,21.39-14.26l.18,0,.18,0c7.62.42,12.51,7.52,17.91,11.84,10.79,8.63,24.92,4.41,35.86-1.63,7.24-4,12.74-9.27,14.47-17.62A14,14,0,0,0,184,133.31Z" style="fill:#fda704"/><path d="M84.13,166.26c-8.95,0-17.92-4.22-22.48-6.74-8.57-4.74-13.3-10.51-14.88-18.18a14.77,14.77,0,0,1,.45-8.33,9,9,0,0,1,8.51-5.92,10,10,0,0,1,2.27.27,7.66,7.66,0,0,1,4.53,2.84,6.58,6.58,0,0,1,1.12,2.6,6.28,6.28,0,0,1,0,1.43c0,.31-.06.8,0,1a.83.83,0,0,1-.75,1.19h0a.83.83,0,0,1-.64-.3,1.89,1.89,0,0,1-.38-.89A3.66,3.66,0,0,0,58,132.18a4.66,4.66,0,0,0-4.48,3.17,7.57,7.57,0,0,0,.78,5.61,13.66,13.66,0,0,0,8,7.11c5.58,1.58,11.74-1.68,18.27-9.65,6.94-8.47,14.06-12.76,21.17-12.76,7.57,0,12.68,4.87,14.21,6.54,1.53-1.67,6.64-6.54,14.21-6.54,7.11,0,14.23,4.29,21.17,12.76,5.46,6.66,10.66,10,15.47,10h0a10.24,10.24,0,0,0,2.79-.39,13.65,13.65,0,0,0,8-7.11,7.57,7.57,0,0,0,.78-5.61,4.66,4.66,0,0,0-4.48-3.17,3.64,3.64,0,0,0-3.78,3,2,2,0,0,1-.39,1h0a.83.83,0,0,1-1.41-.84c0-.21,0-.75,0-1.08a6.28,6.28,0,0,1,0-1.43,6.58,6.58,0,0,1,1.12-2.6,7.66,7.66,0,0,1,4.53-2.84,10,10,0,0,1,2.27-.27,9,9,0,0,1,8.51,5.92,14.77,14.77,0,0,1,.45,8.33c-1.58,7.67-6.31,13.44-14.88,18.18-8,4.4-15.32,6.63-21.87,6.63h0a23.26,23.26,0,0,1-14.91-5.08c-1.43-1.15-2.85-2.5-4.22-3.82-3.87-3.71-7.88-7.55-13.21-7.84h-.27c-5.54.3-9.68,4.26-13.68,8.09a43.1,43.1,0,0,1-7.33,6.06A20.66,20.66,0,0,1,84.13,166.26ZM55.74,128.75a7.39,7.39,0,0,0-7,4.86A13.13,13.13,0,0,0,48.4,141c1.47,7.15,5.94,12.58,14.05,17.06,4.41,2.44,13.1,6.53,21.68,6.53A19,19,0,0,0,94,162.12a41.28,41.28,0,0,0,7-5.83c4.22-4,8.59-8.22,14.74-8.55l.11,0h.22l.1,0c6,.33,10.19,4.39,14.28,8.31,1.41,1.35,2.73,2.62,4.11,3.72,8.54,6.84,20.71,6.16,34.94-1.71,8.11-4.48,12.58-9.91,14.05-17.06a13.13,13.13,0,0,0-.37-7.39,7.39,7.39,0,0,0-7-4.86,8.31,8.31,0,0,0-1.89.22,6,6,0,0,0-3.56,2.19,4.6,4.6,0,0,0-.33.54,5.54,5.54,0,0,1,3.52-1.18,6.31,6.31,0,0,1,6.07,4.35,9.21,9.21,0,0,1-.9,6.86,15.31,15.31,0,0,1-9.07,7.95,11.89,11.89,0,0,1-3.25.45h0c-5.33,0-11-3.58-16.76-10.65-6.61-8.07-13.3-12.15-19.88-12.15-7.56,0-12.59,5.54-13.3,6.36l-.12.37a.83.83,0,0,1-.79.57h0a.83.83,0,0,1-.79-.57l-.13-.37c-.7-.82-5.74-6.36-13.3-6.36-6.59,0-13.28,4.09-19.88,12.15-7,8.51-13.77,12-20,10.19a15.31,15.31,0,0,1-9.07-7.95,9.21,9.21,0,0,1-.9-6.86A6.31,6.31,0,0,1,58,130.52a5.54,5.54,0,0,1,3.52,1.18,4.61,4.61,0,0,0-.33-.54A6,6,0,0,0,57.63,129,8.33,8.33,0,0,0,55.74,128.75Z" style="fill:#f9951b"/><path d="M169.95,150.48c-10.94,6-25.07,10.26-35.86,1.63-5.4-4.32-10.28-11.42-17.91-11.84l-.18,0-.18,0c-9.12.49-14.27,10-21.39,14.26-9.59,5.71-23.44.89-32.38-4.05-6.95-3.84-12.29-8.86-14.23-16.64a14.29,14.29,0,0,0-.23,7.33c1.72,8.35,7.23,13.62,14.47,17.62,8.94,4.94,22.79,9.76,32.38,4.05,7.12-4.24,12.28-13.77,21.39-14.26l.18,0,.18,0c7.62.42,12.51,7.52,17.91,11.84,10.79,8.63,24.92,4.41,35.86-1.63,7.24-4,12.74-9.27,14.47-17.62a14.3,14.3,0,0,0-.23-7.33C182.24,141.62,176.9,146.64,169.95,150.48Z" style="fill:#f8951d"/><path d="M104.91,120.29a.83.83,0,0,1-.83-.83,5.83,5.83,0,0,0-11.65,0,.83.83,0,0,1-1.66,0,7.49,7.49,0,0,1,15,0A.83.83,0,0,1,104.91,120.29Z" style="fill:#50550b"/><path d="M140.41,120.29a.83.83,0,0,1-.83-.83,5.83,5.83,0,0,0-11.65,0,.83.83,0,1,1-1.66,0,7.49,7.49,0,0,1,15,0A.83.83,0,0,1,140.41,120.29Z" style="fill:#50550b"/><path d="M133.75,134.71a14.14,14.14,0,1,1,14.14-14.14A14.16,14.16,0,0,1,133.75,134.71Zm0-26.62a12.48,12.48,0,1,0,12.48,12.48A12.49,12.49,0,0,0,133.75,108.09Z" style="fill:#50550b"/><path d="M146.9,123.62a.83.83,0,0,1,0-1.66,1.39,1.39,0,1,0,0-2.78.83.83,0,0,1,0-1.66,3,3,0,0,1,0,6.1Z" style="fill:#50550b"/><path d="M149.12,191.29a.83.83,0,0,1-.83-.83V120.57a.83.83,0,1,1,1.66,0v69.89A.83.83,0,0,1,149.12,191.29Z" style="fill:#50550b"/><path d="M89.38,96.68V78.93a8.87,8.87,0,0,1,8.88-8.87h35.5a8.87,8.87,0,0,1,8.87,8.87V96.68Z" style="fill:#2a2a2a"/><path d="M142.62,97.51H89.38a.83.83,0,0,1-.83-.83V78.93a9.72,9.72,0,0,1,9.71-9.71h35.5a9.72,9.72,0,0,1,9.71,9.71V96.68A.83.83,0,0,1,142.62,97.51ZM90.21,95.84h51.59V78.93a8.05,8.05,0,0,0-8-8H98.25a8.05,8.05,0,0,0-8,8Z" style="fill:#111"/><rect x="89.38" y="83.36" width="53.25" height="13.31" style="fill:#555"/><path d="M142.62,97.51H89.38a.83.83,0,0,1-.83-.83V83.36a.83.83,0,0,1,.83-.83h53.25a.83.83,0,0,1,.83.83V96.68A.83.83,0,0,1,142.62,97.51ZM90.21,95.84h51.59V84.19H90.21Z" style="fill:#111"/><path d="M78.81,77a11.14,11.14,0,1,0-2.88,3.43A34.78,34.78,0,0,1,90.08,96.89l4.1-1.7A39.21,39.21,0,0,0,78.81,77Z" style="fill:#c5d618"/><path d="M90.08,97.72a.83.83,0,0,1-.77-.51A33.71,33.71,0,0,0,76,81.43,11.78,11.78,0,0,1,69,83.67a11.92,11.92,0,1,1,10.85-7A39.81,39.81,0,0,1,94.95,94.87.83.83,0,0,1,94.5,96l-4.1,1.7A.83.83,0,0,1,90.08,97.72ZM75.93,79.6a.84.84,0,0,1,.43.12A35.36,35.36,0,0,1,90.52,95.81l2.56-1.06a38.17,38.17,0,0,0-14.72-17,.83.83,0,0,1-.29-1.1A10.26,10.26,0,1,0,69,82a10.15,10.15,0,0,0,6.38-2.23A.83.83,0,0,1,75.93,79.6Z" style="fill:#a0aa16"/><path d="M153.19,77a11.14,11.14,0,1,1,2.88,3.43,34.78,34.78,0,0,0-14.15,16.46l-4.1-1.7A39.21,39.21,0,0,1,153.19,77Z" style="fill:#c5d618"/><path d="M141.92,97.72a.83.83,0,0,1-.32-.06L137.5,96a.83.83,0,0,1-.45-1.09A39.81,39.81,0,0,1,152.12,76.7a11.92,11.92,0,1,1,10.85,7A11.78,11.78,0,0,1,156,81.43a33.71,33.71,0,0,0-13.34,15.77A.83.83,0,0,1,141.92,97.72Zm-3-3,2.56,1.06a35.36,35.36,0,0,1,14.16-16.09.83.83,0,0,1,.95.06A10.15,10.15,0,0,0,163,82a10.26,10.26,0,1,0-9-5.4.83.83,0,0,1-.29,1.1A38.18,38.18,0,0,0,138.91,94.74Z" style="fill:#a0aa16"/><path d="M89.46,95.12A25.34,25.34,0,0,0,89,99.84c0,3.51.62,7,2.82,8.09s5.48-.38,8.17-2l.34-.22A6.18,6.18,0,0,0,103.9,107c4.9,0,6.21-5.21,6.21-5.88" style="fill:#c5d618"/><path d="M93.5,109.12a4.76,4.76,0,0,1-2.09-.44c-2.79-1.34-3.33-5.55-3.29-8.85A26.13,26.13,0,0,1,88.65,95a.83.83,0,1,1,1.64.3,24.74,24.74,0,0,0-.5,4.56c0,3.93.81,6.6,2.35,7.34s4.07,0,7.38-2l.32-.21a.83.83,0,0,1,.94,0,5.36,5.36,0,0,0,3.13,1.21c4.13,0,5.35-4.43,5.38-5.06a.84.84,0,0,1,.83-.81h0a.82.82,0,0,1,.81.82c0,1.37-1.84,6.71-7,6.71a6.66,6.66,0,0,1-3.64-1.2C97.59,108.3,95.33,109.12,93.5,109.12Z" style="fill:#a0aa16"/><path d="M79.68,107.76c.54-.14.85-.61,1.65-1.43,6.34-6.46,18.73-6.31,27.09-6.74a138.23,138.23,0,0,1,23,.74c6.15.71,14.73,1.06,19.27,5.91a9.41,9.41,0,0,0,2.84-1.87c7.77-7.77.22-11.54-7.54-10.73s-44.15,1.64-60.35-3.91c-4.35-1.49-9.33-2.38-13.79-.82-2.82,1-5.48,3-6.41,5.77a6.7,6.7,0,0,0-.19,3.53c.79,3.84,4.47,6.38,8.1,7.85A37,37,0,0,0,78,107.58,3.52,3.52,0,0,0,79.68,107.76Z" style="fill:#2a2a2a"/><path d="M79.31,108.64a6.13,6.13,0,0,1-1.5-.25,37.86,37.86,0,0,1-4.73-1.55c-4.83-2-7.88-5-8.61-8.45a7.52,7.52,0,0,1,.22-4c.92-2.75,3.51-5.1,6.92-6.29A16.3,16.3,0,0,1,77,87.26a27.62,27.62,0,0,1,9,1.68c11.71,4,33.91,4.44,42.91,4.44,7.91,0,14.4-.3,17.08-.58a20.82,20.82,0,0,1,2.13-.11c4.66,0,8.21,1.58,9.26,4.12.66,1.6.65,4.31-3.17,8.14a10.12,10.12,0,0,1-3.09,2,.83.83,0,0,1-.95-.19c-3.82-4.08-10.9-4.82-16.59-5.42l-2.17-.24a137.92,137.92,0,0,0-22.88-.74l-2.58.12c-8.23.35-18.48.78-24,6.38l-.48.51a3.26,3.26,0,0,1-1.55,1.14A2.29,2.29,0,0,1,79.31,108.64ZM77,88.93a14.63,14.63,0,0,0-4.83.77c-2.93,1-5.13,3-5.89,5.25a5.89,5.89,0,0,0-.17,3.1c.82,4,5.11,6.24,7.6,7.25a36.46,36.46,0,0,0,4.52,1.48,3.19,3.19,0,0,0,1.25.18c.17,0,.36-.25.75-.66l.51-.54c5.94-6.06,17-6.53,25.08-6.88l2.56-.12a139.67,139.67,0,0,1,23.16.75l2.15.23c5.77.6,12.9,1.35,17.2,5.5a8,8,0,0,0,2.08-1.46c2.51-2.51,3.49-4.7,2.81-6.33-.78-1.88-3.81-3.09-7.73-3.09a18.88,18.88,0,0,0-2,.1c-2.82.29-9.24.58-17.25.58-11.28,0-31.93-.59-43.45-4.53A26.35,26.35,0,0,0,77,88.93Z" style="fill:#111"/><path d="M99.46,167.55c0,.78,3.62,12.63,8.1,12.63,2,0,3.74-2.26,5.14-4.87.2.44.42.88.64,1.32,1.85,3.56,4.24,6.76,6.45,6.43,1.83-.27,3.27-2.81,4.34-5.65l.13.09a9.8,9.8,0,0,0,2.34,1.1c1.59.44,2.86.21,3.63-.58a7.18,7.18,0,0,0,1.44-3.16c.34-1.22.59-2.45.86-3.72" style="fill:#c5d618"/><path d="M119.47,183.92c-2.16,0-4.45-2.3-6.83-6.84-1.64,2.61-3.35,3.94-5.08,3.94-5.42,0-8.93-12.84-8.93-13.46a.83.83,0,0,1,1.66,0c.17,1.46,3.79,11.83,7.27,11.83,1.31,0,2.88-1.58,4.41-4.43a.87.87,0,0,1,.76-.44.83.83,0,0,1,.73.48c.2.43.41.86.63,1.3,2.06,4,4.16,6.2,5.58,6,1.21-.18,2.51-2,3.68-5.12a.83.83,0,0,1,1.24-.4l.09.06a9,9,0,0,0,2.17,1,2.77,2.77,0,0,0,2.79-.36,6.61,6.61,0,0,0,1.24-2.8c.34-1.22.59-2.47.85-3.67a.83.83,0,0,1,1.63.34c-.26,1.23-.52,2.5-.87,3.77a7.92,7.92,0,0,1-1.65,3.52c-1,1-2.59,1.32-4.45.8a10.55,10.55,0,0,1-1.83-.77c-1.36,3.27-2.88,5-4.63,5.25A3.11,3.11,0,0,1,119.47,183.92Z" style="fill:#a0aa16"/></svg>