<svg xmlns="http://www.w3.org/2000/svg" viewBox="0 0 232 300"><title>simon</title><path d="M168.08,223.67c-.65-10.52.14-21.28.13-31.7,0-.93,0-1.87,0-2.8a51.74,51.74,0,1,0-103.48,0c0,6.81,0,13.63,0,20.44-.06,10.16.2,20.32-.53,30.47-.57,8-2.48,16.3-6.48,23.34-2.81,4.93-6.46,9.34-7.8,15-1,4.36-1.45,9.73,3,12.44a13.49,13.49,0,0,0,6.33,1.66,38,38,0,0,0,6.9-.69,84.29,84.29,0,0,0,10.39-2.65,13.83,13.83,0,0,1,11.17,1,21.89,21.89,0,0,0,13.46,2.74c8.34-.8,16.68-5.45,25.09-4.83a25.57,25.57,0,0,1,11.46,3.81c4.11,2.52,9.41,4.26,14.11,2.32a17.34,17.34,0,0,0,4.54-2.54c1.64-1.39,3.59-3.7,6.1-3.23,3.43.65,6.38,2.81,9.88,3.17s7.54-.89,9.7-3.62c2.44-3.07,1.7-6.88.31-10.23-2.25-5.43-4.77-10.77-6.63-16.36a194.18,194.18,0,0,1-6.48-27.57A91.06,91.06,0,0,1,168.08,223.67Z" style="fill:#62c3ca"/><path d="M147.48,295.83a20.34,20.34,0,0,1-10.22-3.27,24.86,24.86,0,0,0-11.09-3.69c-.49,0-1-.05-1.5-.05-4.23,0-8.57,1.26-12.76,2.48a59.7,59.7,0,0,1-10.68,2.41,22.71,22.71,0,0,1-14-2.85,11.68,11.68,0,0,0-6-1.59,15.28,15.28,0,0,0-4.46.69,84.77,84.77,0,0,1-10.49,2.67,39.7,39.7,0,0,1-6.81.71h-.24a14.16,14.16,0,0,1-6.75-1.78c-5.69-3.48-3.93-10.9-3.36-13.34,1-4.21,3.26-7.77,5.45-11.22.82-1.29,1.67-2.63,2.44-4,3.54-6.21,5.74-14.16,6.38-23,.55-7.66.54-15.48.52-23,0-2.46,0-4.92,0-7.37,0-4.63,0-9.25,0-13.88q0-3.28,0-6.56a52.57,52.57,0,1,1,105.14,0V192c0,3.74-.09,7.59-.19,11.31-.17,6.69-.35,13.61.06,20.34a89.66,89.66,0,0,0,1.14,10,195.21,195.21,0,0,0,6.45,27.46c1.3,3.93,3,7.81,4.59,11.57.68,1.57,1.36,3.15,2,4.73,1.93,4.66,1.79,8.28-.43,11.07a11.88,11.88,0,0,1-9.21,4h0c-.41,0-.83,0-1.22-.06a19.76,19.76,0,0,1-5.63-1.71,21.93,21.93,0,0,0-4.33-1.47c-1.65-.31-3.21,1.06-4.55,2.29-.29.27-.58.53-.85.76a18.2,18.2,0,0,1-4.76,2.67A12.1,12.1,0,0,1,147.48,295.83Zm-22.81-8.68c.55,0,1.09,0,1.62.06a26.52,26.52,0,0,1,11.84,3.94,18.7,18.7,0,0,0,9.35,3,10.44,10.44,0,0,0,4-.77,16.68,16.68,0,0,0,4.32-2.41c.26-.22.53-.47.81-.72,1.35-1.23,3-2.77,5.16-2.77a4.41,4.41,0,0,1,.82.08,23.5,23.5,0,0,1,4.66,1.57,18.24,18.24,0,0,0,5.15,1.59,10.52,10.52,0,0,0,1.06.05,10.33,10.33,0,0,0,7.91-3.36c1.83-2.3,1.89-5.29.19-9.4-.65-1.58-1.33-3.14-2-4.71-1.63-3.79-3.32-7.7-4.65-11.7a196.83,196.83,0,0,1-6.51-27.69,91.21,91.21,0,0,1-1.16-10.21c-.42-6.79-.24-13.75-.06-20.48.1-3.71.19-7.55.19-11.27v-2.8a50.91,50.91,0,1,0-101.82,0q0,3.28,0,6.56c0,4.63,0,9.26,0,13.89,0,2.45,0,4.91,0,7.36,0,7.59,0,15.44-.53,23.16-.65,9.07-2.93,17.26-6.59,23.69-.79,1.38-1.65,2.74-2.48,4-2.21,3.48-4.3,6.77-5.23,10.71-1.4,5.93-.58,9.59,2.61,11.54a12.58,12.58,0,0,0,5.9,1.54h.23A38.16,38.16,0,0,0,66,291a83.35,83.35,0,0,0,10.29-2.63,17,17,0,0,1,4.94-.76,13.32,13.32,0,0,1,6.89,1.82,21.07,21.07,0,0,0,13,2.63,58.45,58.45,0,0,0,10.38-2.35C115.75,288.44,120.21,287.14,124.67,287.14Z" style="fill:#57b0b6"/><path d="M49.91,278.38c1.34-5.64,5-10,7.8-15a44.81,44.81,0,0,0,3.4-7.6,159.58,159.58,0,0,1-15.25,7.87C37.4,267.24,36,281.13,49.24,283A23.26,23.26,0,0,1,49.91,278.38Z" style="fill:#57b0b6"/><path d="M50,284l-.92-.13c-5.93-.84-9.84-4.24-10.47-9.1a11.48,11.48,0,0,1,6.88-11.83,155,155,0,0,0,15.16-7.82L62.61,254l-.72,2.09a45.81,45.81,0,0,1-3.46,7.74c-.79,1.38-1.65,2.74-2.48,4-2.21,3.48-4.3,6.77-5.23,10.71a22.14,22.14,0,0,0-.65,4.46Zm9.49-26.31a141.35,141.35,0,0,1-13.36,6.79,9.79,9.79,0,0,0-5.88,10.08c.5,3.89,3.46,6.59,8.16,7.51a25.64,25.64,0,0,1,.64-3.84c1-4.21,3.26-7.77,5.45-11.22.82-1.29,1.67-2.63,2.44-4A42.59,42.59,0,0,0,59.54,257.65Z" style="fill:#57b0b6"/><path d="M187,261.77c-6.63-3-11.76-9.11-14.93-13.8,1,4.53,2.23,9,3.68,13.39,1.86,5.59,4.38,10.92,6.63,16.36a16.37,16.37,0,0,1,1.22,4.43C193.82,278.07,195.9,265.78,187,261.77Z" style="fill:#57b0b6"/><path d="M182.85,283.32l-.12-1.09a15.35,15.35,0,0,0-1.16-4.2c-.65-1.58-1.33-3.14-2-4.71-1.63-3.79-3.32-7.7-4.65-11.7s-2.56-8.47-3.7-13.46l-1-4.33,2.49,3.68c3.08,4.56,8.12,10.61,14.58,13.51a9.92,9.92,0,0,1,6.13,9.44c-.12,5.31-3.87,10.21-9.57,12.47Zm-9-31.51c.84,3.33,1.73,6.39,2.69,9.28,1.3,3.93,3,7.81,4.59,11.57.68,1.58,1.36,3.15,2,4.73a18.69,18.69,0,0,1,1.11,3.56c4.53-2.15,7.46-6.2,7.55-10.54a8.2,8.2,0,0,0-5.15-7.88C181.33,260.16,177,255.84,173.81,251.82Z" style="fill:#57b0b6"/><path d="M142.53,246.95a16.65,16.65,0,0,1-11.34-4.34c-3.62-3.24-13-10.65-21.69-9.62-3.76.45-6.93,2.49-9.41,6.06-2.73,3.94-6.08,6.28-10,7-6.41,1.14-11.89-2.66-12.12-2.82a.83.83,0,0,1,1-1.36c.05,0,5.16,3.56,10.88,2.54,3.42-.61,6.4-2.72,8.87-6.28,2.76-4,6.32-6.26,10.58-6.77,9.38-1.11,19.21,6.65,23,10a15.56,15.56,0,0,0,14.11,3.48c3.55-.81,6-2.51,6.34-3.42a.83.83,0,0,1,1.54.63c-.71,1.72-3.87,3.57-7.5,4.41A19.17,19.17,0,0,1,142.53,246.95Z" style="fill:#3e646d"/><circle cx="116" cy="203.83" r="21.56" style="fill:#fff"/><path d="M116,226.21a22.39,22.39,0,1,1,22.39-22.39A22.42,22.42,0,0,1,116,226.21Zm0-43.12a20.73,20.73,0,1,0,20.73,20.73A20.75,20.75,0,0,0,116,183.1Z" style="fill:#57b0b6"/><path d="M125.31,198.41a3.58,3.58,0,1,1-3.89-3.89,10.81,10.81,0,1,0,3.89,3.89Z" style="fill:#3e646d"/><circle cx="116" cy="146.05" r="17.25" style="fill:#fff"/><path d="M116,164.13A18.08,18.08,0,1,1,134.08,146,18.1,18.1,0,0,1,116,164.13Zm0-34.49A16.42,16.42,0,1,0,132.42,146,16.43,16.43,0,0,0,116,129.63Z" style="fill:#57b0b6"/><path d="M123.45,141.71a2.87,2.87,0,1,1-3.11-3.11,8.64,8.64,0,1,0,3.11,3.11Z" style="fill:#3e646d"/><circle cx="159.12" cy="189.17" r="17.25" style="fill:#fff"/><path d="M159.12,207.24a18.08,18.08,0,1,1,18.08-18.08A18.1,18.1,0,0,1,159.12,207.24Zm0-34.49a16.42,16.42,0,1,0,16.42,16.42A16.43,16.43,0,0,0,159.12,172.75Z" style="fill:#57b0b6"/><path d="M166.57,184.83a2.87,2.87,0,1,1-3.11-3.11,8.64,8.64,0,1,0,3.11,3.11Z" style="fill:#3e646d"/><circle cx="72.88" cy="189.17" r="17.25" style="fill:#fff"/><path d="M72.88,207.24A18.08,18.08,0,1,1,91,189.17,18.1,18.1,0,0,1,72.88,207.24Zm0-34.49A16.42,16.42,0,1,0,89.3,189.17,16.43,16.43,0,0,0,72.88,172.75Z" style="fill:#57b0b6"/><path d="M80.33,184.83a2.87,2.87,0,1,1-3.11-3.11,8.64,8.64,0,1,0,3.11,3.11Z" style="fill:#3e646d"/><circle cx="133.25" cy="171.92" r="8.62" style="fill:#fff"/><path d="M133.25,181.37a9.45,9.45,0,1,1,9.45-9.45A9.47,9.47,0,0,1,133.25,181.37Zm0-17.25a7.79,7.79,0,1,0,7.79,7.79A7.8,7.8,0,0,0,133.25,164.13Z" style="fill:#57b0b6"/><path d="M137,169.75a1.43,1.43,0,1,1-1.56-1.56,4.32,4.32,0,1,0,1.56,1.56Z" style="fill:#3e646d"/><circle cx="98.75" cy="171.92" r="8.62" style="fill:#fff"/><path d="M98.75,181.37a9.45,9.45,0,1,1,9.45-9.45A9.47,9.47,0,0,1,98.75,181.37Zm0-17.25a7.79,7.79,0,1,0,7.79,7.79A7.8,7.8,0,0,0,98.75,164.13Z" style="fill:#57b0b6"/><path d="M102.48,169.75a1.43,1.43,0,1,1-1.56-1.56,4.32,4.32,0,1,0,1.56,1.56Z" style="fill:#3e646d"/><circle cx="153.08" cy="156.4" r="10.78" style="fill:#fff"/><path d="M153.08,168a11.61,11.61,0,1,1,11.61-11.61A11.62,11.62,0,0,1,153.08,168Zm0-21.56A9.95,9.95,0,1,0,163,156.4,10,10,0,0,0,153.08,146.45Z" style="fill:#57b0b6"/><path d="M157.74,153.69a1.79,1.79,0,1,1-1.95-1.95,5.4,5.4,0,1,0,1.95,1.95Z" style="fill:#3e646d"/><circle cx="78.92" cy="156.4" r="10.78" style="fill:#fff"/><path d="M78.92,168A11.61,11.61,0,1,1,90.53,156.4,11.62,11.62,0,0,1,78.92,168Zm0-21.56a9.95,9.95,0,1,0,9.95,9.95A10,10,0,0,0,78.92,146.45Z" style="fill:#57b0b6"/><path d="M83.58,153.69a1.79,1.79,0,1,1-1.95-1.95,5.4,5.4,0,1,0,1.95,1.95Z" style="fill:#3e646d"/></svg>