<svg xmlns="http://www.w3.org/2000/svg" viewBox="0 0 232 300"><title>snot</title><g style="isolation:isolate"><path d="M75.68,154.44c-.9-1.9-1.74-3.81-2.51-5.7C68.72,138.65,66.5,129,63.05,128.81c-3-.38-10,9.78-11.49,24.3a71.62,71.62,0,0,0,3.62,32.41A75.41,75.41,0,0,1,75.68,154.44Z" style="fill:#f3f7d1"/><path d="M55.2,188l-.79-2.16A72.43,72.43,0,0,1,50.74,153c1.47-14.27,8.38-25,12.15-25l.27,0c2.89.15,4.64,4.75,7.28,11.71,1,2.67,2.16,5.69,3.5,8.71.74,1.84,1.58,3.75,2.5,5.68l.26.56-.46.41A74.65,74.65,0,0,0,56,185.8Zm7.69-58.34c-2.33,0-9,9.39-10.5,23.57a71,71,0,0,0,2.82,29.85,76,76,0,0,1,19.45-28.81c-.83-1.77-1.59-3.51-2.26-5.19-1.34-3-2.5-6.08-3.52-8.76-2.06-5.43-4-10.55-5.88-10.65Z" style="fill:#a0aa16"/><path d="M176.81,185.52a71.6,71.6,0,0,0,3.62-32.41c-1.49-14.52-8.51-24.68-11.49-24.3-3.44.18-5.66,9.84-10.12,19.93-.77,1.9-1.61,3.8-2.51,5.7A75.41,75.41,0,0,1,176.81,185.52Z" style="fill:#f3f7d1"/><path d="M176.79,188,176,185.8a74.64,74.64,0,0,0-20.26-30.74l-.46-.41.26-.56c.91-1.94,1.75-3.84,2.49-5.66,1.34-3,2.49-6.06,3.51-8.73,2.65-7,4.39-11.56,7.34-11.72h.21c3.77,0,10.68,10.76,12.15,25.06a72.4,72.4,0,0,1-3.67,32.78Zm-19.46-33.73a76,76,0,0,1,19.45,28.81,70.88,70.88,0,0,0,2.83-29.82c-1.46-14.2-8.17-23.59-10.5-23.59H169c-1.87.1-3.81,5.22-5.88,10.65-1,2.69-2.18,5.73-3.53,8.79C158.92,150.72,158.16,152.46,157.33,154.24Z" style="fill:#a0aa16"/><g style="mix-blend-mode:multiply"><path d="M59.88,153.11c.92-8.93,3.93-16.21,6.8-20.4-1.16-2.35-2.3-3.83-3.62-3.9-3-.38-10,9.78-11.49,24.3a71.62,71.62,0,0,0,3.62,32.41,79.83,79.83,0,0,1,5.24-11.71A69.39,69.39,0,0,1,59.88,153.11Z" style="fill:#f3f7d1"/></g><g style="mix-blend-mode:multiply"><path d="M180.43,153.11c-1.49-14.52-8.51-24.68-11.49-24.3-1.32.07-2.47,1.54-3.62,3.9,2.87,4.19,5.88,11.47,6.8,20.4a69.39,69.39,0,0,1-.56,20.7,79.83,79.83,0,0,1,5.24,11.71A71.6,71.6,0,0,0,180.43,153.11Z" style="fill:#f3f7d1"/></g><path d="M96.55,270.91V246.38H91.69v24.53a14.58,14.58,0,0,0-12.15,14.37h29.17A14.58,14.58,0,0,0,96.55,270.91Z" style="fill:#c5d618"/><path d="M109.54,286.1H78.7v-.83a15.35,15.35,0,0,1,12.15-15.05V245.55h6.52v24.67a15.35,15.35,0,0,1,12.15,15.05Zm-29.15-1.66h27.46a13.7,13.7,0,0,0-11.44-12.72l-.69-.12v-24.4h-3.2v24.4l-.69.12A13.7,13.7,0,0,0,80.39,284.44Z" style="fill:#a0aa16"/><path d="M114.05,287.67c0,4-3.26,3.4-7.29,3.4s-7.29.62-7.29-3.4,3.26-12.16,7.29-12.16S114.05,283.64,114.05,287.67Z" style="fill:#c5d618"/><path d="M109.46,291.94l-1.28,0c-.92,0-1.92,0-2.85,0-2.1,0-3.78.05-5-.66a3.77,3.77,0,0,1-1.7-3.59c0-4.45,3.43-13,8.12-13s8.12,8.54,8.12,13C114.88,291.94,111.49,291.94,109.46,291.94Zm-2.7-1.7,1.46,0,1.24,0c3,0,3.76-.54,3.76-2.61,0-4.06-3.26-11.32-6.46-11.32s-6.46,7.27-6.46,11.32c0,1.45.47,1.92.87,2.15a6.26,6.26,0,0,0,2.89.45l1.24,0Z" style="fill:#a0aa16"/><ellipse cx="106.76" cy="288.19" rx="1.46" ry="4.86" style="fill:#f3f7d1"/><path d="M106.76,293.88c-1.69,0-2.29-3.07-2.29-5.69s.6-5.69,2.29-5.69,2.29,3.07,2.29,5.69S108.45,293.88,106.76,293.88Zm0-9.52a12,12,0,0,0,0,7.65,12,12,0,0,0,0-7.65Z" style="fill:#a0aa16"/><path d="M88.77,287.67c0,4-3.27,3.4-7.29,3.4s-7.29.62-7.29-3.4,3.26-12.16,7.29-12.16S88.77,283.64,88.77,287.67Z" style="fill:#c5d618"/><path d="M84.18,291.94l-1.28,0c-.92,0-1.93,0-2.85,0-2.1,0-3.78.05-5-.66a3.77,3.77,0,0,1-1.7-3.59c0-4.45,3.43-13,8.12-13s8.12,8.54,8.12,13C89.61,291.94,86.21,291.94,84.18,291.94Zm-2.7-1.7,1.46,0,1.24,0c3,0,3.76-.54,3.76-2.61,0-4.06-3.26-11.32-6.46-11.32S75,283.61,75,287.67c0,1.45.47,1.92.87,2.15a6.26,6.26,0,0,0,2.89.45l1.24,0Z" style="fill:#a0aa16"/><ellipse cx="81.48" cy="288.19" rx="1.46" ry="4.86" style="fill:#f3f7d1"/><path d="M81.48,293.88c-1.69,0-2.29-3.07-2.29-5.69s.6-5.69,2.29-5.69,2.29,3.07,2.29,5.69S83.17,293.88,81.48,293.88Zm0-9.52a12,12,0,0,0,0,7.65,12,12,0,0,0,0-7.65Z" style="fill:#a0aa16"/><path d="M101.41,289.61c0,4-3.27,3.4-7.29,3.4s-7.29.62-7.29-3.4,3.27-12.15,7.29-12.15S101.41,285.59,101.41,289.61Z" style="fill:#c5d618"/><path d="M96.82,293.88l-1.28,0c-.92,0-1.93,0-2.85,0-2.1,0-3.78.05-5-.66a3.77,3.77,0,0,1-1.7-3.59c0-4.45,3.43-13,8.12-13s8.12,8.54,8.12,13C102.24,293.88,98.85,293.88,96.82,293.88Zm-2.7-1.7,1.46,0,1.24,0c3,0,3.76-.54,3.76-2.61,0-4.06-3.26-11.32-6.46-11.32s-6.46,7.26-6.46,11.32c0,1.45.47,1.92.88,2.15a6.26,6.26,0,0,0,2.89.45l1.24,0Z" style="fill:#a0aa16"/><ellipse cx="94.12" cy="290.14" rx="1.46" ry="4.86" style="fill:#f3f7d1"/><path d="M94.12,295.83c-1.69,0-2.29-3.07-2.29-5.69s.6-5.69,2.29-5.69,2.29,3.07,2.29,5.69S95.81,295.83,94.12,295.83Zm0-9.52a12,12,0,0,0,0,7.65,12,12,0,0,0,0-7.65Z" style="fill:#a0aa16"/><path d="M140.31,270.91V246.38h-4.86v24.53a14.58,14.58,0,0,0-12.15,14.37h29.17A14.58,14.58,0,0,0,140.31,270.91Z" style="fill:#c5d618"/><path d="M153.3,286.1H122.46v-.83a15.35,15.35,0,0,1,12.15-15.05V245.55h6.52v24.67a15.35,15.35,0,0,1,12.15,15.05Zm-29.15-1.66h27.46a13.7,13.7,0,0,0-11.44-12.72l-.69-.12v-24.4h-3.2v24.4l-.69.12A13.7,13.7,0,0,0,124.15,284.44Z" style="fill:#a0aa16"/><path d="M157.81,287.67c0,4-3.26,3.4-7.29,3.4s-7.29.62-7.29-3.4,3.27-12.16,7.29-12.16S157.81,283.64,157.81,287.67Z" style="fill:#c5d618"/><path d="M153.22,291.94l-1.28,0c-.92,0-1.93,0-2.85,0-2.1,0-3.78.05-5-.66a3.77,3.77,0,0,1-1.7-3.59c0-4.45,3.43-13,8.12-13s8.12,8.54,8.12,13C158.64,291.94,155.25,291.94,153.22,291.94Zm-2.7-1.7,1.46,0,1.24,0c3,0,3.76-.54,3.76-2.61,0-4.06-3.26-11.32-6.46-11.32s-6.46,7.27-6.46,11.32c0,1.45.47,1.92.87,2.15a6.26,6.26,0,0,0,2.89.45l1.24,0Z" style="fill:#a0aa16"/><ellipse cx="150.52" cy="288.19" rx="1.46" ry="4.86" style="fill:#f3f7d1"/><path d="M150.52,293.88c-1.69,0-2.29-3.07-2.29-5.69s.6-5.69,2.29-5.69,2.29,3.07,2.29,5.69S152.21,293.88,150.52,293.88Zm0-9.52a12,12,0,0,0,0,7.65,12,12,0,0,0,0-7.65Z" style="fill:#a0aa16"/><path d="M132.53,287.67c0,4-3.27,3.4-7.29,3.4s-7.29.62-7.29-3.4,3.26-12.16,7.29-12.16S132.53,283.64,132.53,287.67Z" style="fill:#c5d618"/><path d="M127.94,291.94l-1.28,0c-.92,0-1.92,0-2.85,0-2.1,0-3.78.05-5-.66a3.77,3.77,0,0,1-1.7-3.59c0-4.45,3.43-13,8.12-13s8.12,8.54,8.12,13C133.36,291.94,130,291.94,127.94,291.94Zm-2.7-1.7,1.46,0,1.24,0c3,0,3.76-.54,3.76-2.61,0-4.06-3.26-11.32-6.46-11.32s-6.46,7.27-6.46,11.32c0,1.45.47,1.92.88,2.15a6.25,6.25,0,0,0,2.88.45l1.24,0Z" style="fill:#a0aa16"/><ellipse cx="125.24" cy="288.19" rx="1.46" ry="4.86" style="fill:#f3f7d1"/><path d="M125.24,293.88c-1.69,0-2.29-3.07-2.29-5.69s.6-5.69,2.29-5.69,2.29,3.07,2.29,5.69S126.93,293.88,125.24,293.88Zm0-9.52a12,12,0,0,0,0,7.65,12,12,0,0,0,0-7.65Z" style="fill:#a0aa16"/><path d="M145.17,289.61c0,4-3.26,3.4-7.29,3.4s-7.29.62-7.29-3.4,3.26-12.15,7.29-12.15S145.17,285.59,145.17,289.61Z" style="fill:#c5d618"/><path d="M140.58,293.88l-1.28,0c-.92,0-1.92,0-2.85,0-2.1,0-3.78.05-5-.66a3.77,3.77,0,0,1-1.7-3.59c0-4.45,3.43-13,8.12-13s8.12,8.54,8.12,13C146,293.88,142.61,293.88,140.58,293.88Zm-2.7-1.7,1.46,0,1.24,0c3,0,3.76-.54,3.76-2.61,0-4.06-3.26-11.32-6.46-11.32s-6.46,7.26-6.46,11.32c0,1.45.47,1.92.87,2.15a6.26,6.26,0,0,0,2.89.45l1.24,0Z" style="fill:#a0aa16"/><ellipse cx="137.88" cy="290.14" rx="1.46" ry="4.86" style="fill:#f3f7d1"/><path d="M137.88,295.83c-1.69,0-2.29-3.07-2.29-5.69s.6-5.69,2.29-5.69,2.29,3.07,2.29,5.69S139.57,295.83,137.88,295.83Zm0-9.52a12,12,0,0,0,0,7.65,12,12,0,0,0,0-7.65Z" style="fill:#a0aa16"/><path d="M65.3,236.11a65.63,65.63,0,0,0,101.41,0c-12-.72-30.28-10.08-50.7-10.08S77.34,235.39,65.3,236.11Z" style="fill:#c5d618"/><path d="M116,260.9a66.29,66.29,0,0,1-51.35-24.26l-1-1.26,1.63-.1c4.8-.29,10.58-2,17.28-3.91,9.95-2.89,21.22-6.16,33.47-6.16s23.53,3.27,33.47,6.16c6.7,1.95,12.49,3.63,17.28,3.91l1.63.1-1,1.26A66.28,66.28,0,0,1,116,260.9ZM67,236.8a64.8,64.8,0,0,0,98.08,0c-4.62-.52-10-2.07-16-3.84-9.84-2.86-21-6.1-33-6.1s-23.17,3.24-33,6.1C76.92,234.73,71.58,236.28,67,236.8Z" style="fill:#a0aa16"/><path d="M156.72,234.27c0,7.57-1.12,14.46,1.08,15.63,2,1.35,8.37-4.74,11.94-13.81C166.08,236.4,161.7,235.58,156.72,234.27Z" style="fill:#f3f7d1"/><path d="M158.48,250.92a2,2,0,0,1-1.14-.33c-2-1-1.81-4.9-1.6-10.24.07-1.86.16-4,.15-6.07V233.2l1,.27c5.83,1.53,9.65,2.06,12.73,1.79l1.33-.11-.49,1.25C167.15,245,161.47,250.92,158.48,250.92Zm-.92-15.57c0,1.78-.09,3.51-.15,5.07-.16,4-.33,8.15.79,8.75a.48.48,0,0,0,.29.09c1.74,0,6.69-4.63,10-12.27A42.43,42.43,0,0,1,157.55,235.34Z" style="fill:#a0aa16"/><path d="M75.28,234.27c-5,1.3-9.36,2.13-13,1.82,3.57,9.07,9.91,15.16,11.94,13.81C76.4,248.73,75.24,241.84,75.28,234.27Z" style="fill:#f3f7d1"/><path d="M73.52,250.92h0c-3,0-8.67-6-12-14.53L61,235.15l1.34.11c3.09.27,6.9-.27,12.73-1.79l1-.27v1.08c0,2.11.07,4.22.15,6.08.22,5.34.37,9.19-1.67,10.28A1.92,1.92,0,0,1,73.52,250.92ZM63.53,237c3.31,7.64,8.25,12.27,10,12.27h0a.39.39,0,0,0,.21,0c1.19-.64,1-4.78.86-8.78-.06-1.56-.13-3.3-.15-5.08A42.48,42.48,0,0,1,63.53,237Z" style="fill:#a0aa16"/><path d="M144,230.68c.07,1.06.1,2.13.1,3.2.22,5.91-.91,11.62.79,12.52,1.5,1,6.33-3.72,8.79-10.6.28-.69.53-1.4.76-2.13C151.22,232.77,147.73,231.71,144,230.68Z" style="fill:#f3f7d1"/><path d="M145.42,247.37h0a1.66,1.66,0,0,1-.94-.27c-1.51-.8-1.41-3.46-1.24-7.48.07-1.75.15-3.72.08-5.69,0-1,0-2-.1-3.18l-.07-1.17,1.13.32c1.79.5,3.53,1,5.22,1.5s3.54,1,5.22,1.49l.83.23-.26.82c-.26.81-.51,1.52-.78,2.19C152.2,242.54,147.8,247.37,145.42,247.37Zm-.48-15.57c0,.73,0,1.42,0,2.09.07,2,0,4-.08,5.79-.1,2.38-.23,5.64.43,6l.09,0c1.18,0,5.26-3.85,7.53-10.19.17-.41.32-.83.48-1.28L149,233Z" style="fill:#a0aa16"/><path d="M87.85,233.88c0-1.07,0-2.14.1-3.2-3.68,1-7.17,2.08-10.44,3,.23.73.48,1.44.76,2.13,2.47,6.88,7.29,11.6,8.79,10.6C88.76,245.5,87.64,239.79,87.85,233.88Z" style="fill:#f3f7d1"/><path d="M86.58,247.37h0c-2.38,0-6.78-4.83-9.09-11.29-.25-.61-.51-1.33-.77-2.16l-.26-.82.83-.23c1.68-.47,3.43-1,5.23-1.5s3.42-1,5.2-1.49l1.13-.32-.07,1.17c-.07,1.11-.1,2.16-.09,3.14-.07,2,0,4,.08,5.73.16,4,.27,6.69-1.31,7.53A1.58,1.58,0,0,1,86.58,247.37Zm-8-13.13c.16.45.31.86.47,1.25,2.28,6.37,6.36,10.22,7.54,10.22h0c.71-.38.58-3.64.48-6-.07-1.78-.15-3.79-.08-5.82,0-.64,0-1.34,0-2.06L83,233Z" style="fill:#a0aa16"/><path d="M123.41,226.43c2.47,2.17,4.09,5.52,1.82,10.52-5.05,11.18-11.48,25.28,5.35,27.55,13.34,1.8,13.45-22.49,5.65-35.85A101.42,101.42,0,0,0,123.41,226.43Z" style="fill:#e380b6"/><path d="M132,265.43h0a11.16,11.16,0,0,1-1.48-.1c-5.2-.7-8.69-2.6-10.38-5.65-3.33-6,.75-15,4.35-23l0-.09c1.74-3.86,1.2-7.08-1.62-9.56l-1.95-1.71,2.58.26a101.8,101.8,0,0,1,12.93,2.24l.35.08.18.31c5.76,9.87,7.1,25,2.86,32.39A8.78,8.78,0,0,1,132,265.43Zm-6.43-37.92c1.58,2.18,2.46,5.38.47,9.78l0,.09c-3.27,7.22-7.33,16.21-4.41,21.48,1.44,2.6,4.44,4.18,9.15,4.81a9.42,9.42,0,0,0,1.26.09h0a7.11,7.11,0,0,0,6.42-4c3.94-6.86,2.68-21-2.67-30.41C132.07,228.54,128.72,227.93,125.53,227.51Z" style="fill:#e14e9e"/><path d="M131.56,227.65c.86,3.1,1.15,7.89-.19,15.32a.49.49,0,0,0,.39.56h.09a.49.49,0,0,0,.48-.4c1.29-7.2,1.09-12,.28-15.28Z" style="fill:#e14e9e"/><path d="M131.85,244h-.16a.9.9,0,0,1-.73-1c1.15-6.39,1.22-11.48.2-15.13l-.18-.65.66.13,1.06.21.26.05.06.26c1,3.89.87,9.09-.28,15.46A.9.9,0,0,1,131.85,244Zm.27-15.77c.88,3.72.76,8.71-.34,14.86a.07.07,0,0,0,.06.08h0a.07.07,0,0,0,.07-.06c1.1-6.11,1.22-11.11.35-14.86Z" style="fill:#e14e9e"/><path d="M140.35,257.28c-.06.18-1.48.27-1.69.27a4.28,4.28,0,0,1-1.45-.17,5.53,5.53,0,0,1-2.13-1.3c-1-.93-2-2.68-3.5-2.87s-2.34.9-3.29,1.81c-2,1.95-5.38.79-7.12-1-.3-.31-1.37-1.42-1.3-1.89-.75,5.44.86,10,7.86,11.82a71.38,71.38,0,0,0-1,8.5,2.43,2.43,0,0,0,4.86,0,71.29,71.29,0,0,0-.94-7.94C135.67,265.17,138.81,262.09,140.35,257.28Z" style="fill:#62c1c7"/><path d="M129.13,275.71a3.27,3.27,0,0,1-3.26-3.26,70.75,70.75,0,0,1,.92-7.91c-6-1.84-8.63-6.05-7.73-12.52h0l1.65.23a.41.41,0,0,0,0-.16,4.71,4.71,0,0,0,1.08,1.35,5.86,5.86,0,0,0,3.9,1.76,2.86,2.86,0,0,0,2.05-.78l.34-.33c.89-.89,1.93-1.92,3.63-1.7,1.36.18,2.32,1.27,3.16,2.24.28.32.54.62.79.85a4.69,4.69,0,0,0,1.8,1.12,3.5,3.5,0,0,0,1.17.14,8.72,8.72,0,0,0,1.33-.15.72.72,0,0,0-.4.45l1.58.51c-1.63,5.09-4.89,7.9-9.19,7.9h-.33a69.33,69.33,0,0,1,.77,7A3.27,3.27,0,0,1,129.13,275.71Zm-8.59-21.16c0,4.53,2.44,7.29,7.41,8.59l.75.2-.15.76a70.57,70.57,0,0,0-1,8.35,1.6,1.6,0,0,0,3.2,0,71.11,71.11,0,0,0-.92-7.79l-.2-1.12,1.13.15a9.38,9.38,0,0,0,1.22.08c3.87,0,6-2.7,7.12-5.4l-.37,0a5.14,5.14,0,0,1-1.73-.21,6.29,6.29,0,0,1-2.45-1.49,12.69,12.69,0,0,1-.91-1c-.65-.74-1.39-1.59-2.13-1.68-.89-.12-1.51.5-2.24,1.23l-.36.36a4.53,4.53,0,0,1-3.2,1.24,7.52,7.52,0,0,1-5.09-2.26Z" style="fill:#57b0b6"/><path d="M181.64,213.88C181.64,255.5,152.25,226,116,226S50.36,255.5,50.36,213.88,79.75,138.52,116,138.52,181.64,172.26,181.64,213.88Z" style="fill:#c5d618"/><path d="M168.13,237c-5.27,0-11.69-1.86-19.12-4-9.84-2.86-21-6.1-33-6.1s-23.17,3.24-33,6.1c-7.43,2.16-13.85,4-19.12,4-4.84,0-8.32-1.65-10.62-5-2.5-3.69-3.72-9.6-3.72-18.06,0-42,29.82-76.19,66.47-76.19s66.47,34.18,66.47,76.19C182.47,230.08,178.18,237,168.13,237ZM116,225.21c12.25,0,23.53,3.27,33.47,6.16,7.31,2.12,13.63,4,18.66,4,6.58,0,12.68-2.6,12.68-21.44,0-41.1-29.07-74.53-64.81-74.53s-64.8,33.43-64.8,74.53c0,8.12,1.12,13.73,3.43,17.13,2,2.94,4.93,4.31,9.24,4.31,5,0,11.34-1.83,18.65-4C92.47,228.48,103.75,225.21,116,225.21Z" style="fill:#a0aa16"/><circle cx="116" cy="183.74" r="29.17" style="fill:#fff"/><path d="M116,213.74a30,30,0,1,1,30-30A30,30,0,0,1,116,213.74Zm0-58.34a28.34,28.34,0,1,0,28.34,28.34A28.37,28.37,0,0,0,116,155.4Z" style="fill:#a0aa16"/><path d="M128.59,176.41a4.85,4.85,0,1,1-5.26-5.27,14.63,14.63,0,1,0,5.26,5.27Z" style="fill:#50550b"/><path d="M177.77,230.44a7.39,7.39,0,0,0,.83.16c1.76-3.09,2.79-7.67,3-14.23a7.24,7.24,0,0,0-.83-.18C180.57,223.1,179.46,227.58,177.77,230.44Z" style="fill:#a0aa16"/><circle cx="77.51" cy="218.03" r="9.72" style="fill:#a0aa16;stroke:#a0aa16;stroke-miterlimit:10;stroke-width:3px"/><circle cx="155.46" cy="215.94" r="12.15" style="fill:#a0aa16;stroke:#a0aa16;stroke-miterlimit:10;stroke-width:3px"/><circle cx="146.63" cy="159.98" r="7.29" style="fill:#a0aa16;stroke:#a0aa16;stroke-miterlimit:10;stroke-width:3px"/><path d="M72,188.6a26.65,26.65,0,0,0-8-19.1,81.72,81.72,0,0,0-12.77,44.38c0,.27,0,.52,0,.79A26.74,26.74,0,0,0,72,188.6Z" style="fill:#a0aa16;stroke:#a0aa16;stroke-miterlimit:10;stroke-width:3px"/><path d="M101.06,152a14.58,14.58,0,0,0,14.45-12.67A57.45,57.45,0,0,0,89.26,146,14.55,14.55,0,0,0,101.06,152Z" style="fill:#a0aa16;stroke:#a0aa16;stroke-miterlimit:10;stroke-width:3px"/><path d="M172.32,223.39a7.29,7.29,0,0,0,5.45,7.05c1.68-2.86,2.79-7.33,3-14.24a7.25,7.25,0,0,0-8.45,7.19Z" style="fill:#a0aa16"/><path d="M156.66,180.88a24.3,24.3,0,0,0,23.7,24.29,79.69,79.69,0,0,0-16.54-41.53A24.24,24.24,0,0,0,156.66,180.88Z" style="fill:#a0aa16;stroke:#a0aa16;stroke-miterlimit:10;stroke-width:3px"/></g></svg>