<svg xmlns="http://www.w3.org/2000/svg" viewBox="0 0 232 300"><title>steve</title><g style="isolation:isolate"><path d="M156.67,174.25c-7.55,7.55-13.72,1.47-21.28-6.08s-13.63-13.72-6.08-21.28,32-19.71,39.51-12.16S164.22,166.7,156.67,174.25Z" style="fill:#fda704"/><path d="M149.67,178.55c-5.08,0-9.83-4.75-14.87-9.78-7.34-7.34-14.26-14.27-6.08-22.45,5.89-5.89,22-14.78,32.94-14.78,3.39,0,6,.88,7.74,2.63,4.81,4.81,1.92,15-.22,20.64-2.93,7.71-7.84,16-11.93,20C154.76,177.34,152.28,178.55,149.67,178.55Zm12-45.36c-10.13,0-26,8.54-31.77,14.3-6.68,6.68-2.28,11.74,6.08,20.1,4.78,4.78,9.3,9.3,13.69,9.3,2.15,0,4.24-1.05,6.41-3.22,3.94-3.94,8.7-11.95,11.55-19.46,3.41-9,3.63-15.84.6-18.87C166.82,133.91,164.61,133.19,161.67,133.19Z" style="fill:#3e646d"/><path d="M173.48,197.61c-7.27,6.1-11.53-.37-17.64-7.64s-11.74-12.59-4.47-18.7,31.29-16.21,37.39-8.93S180.75,191.5,173.48,197.61Z" style="fill:#fda704"/><path d="M168,200.86c-4.21,0-7.51-4-11.34-8.63l-1.45-1.74-1.46-1.73c-3.72-4.36-6.93-8.13-6.6-12.07.18-2.14,1.39-4.13,3.7-6.07C156.37,166,171.42,159,181.5,159c3.67,0,6.33,1,7.91,2.83,3.91,4.66.09,13.9-2.53,19-3.49,6.79-8.9,14.13-12.87,17.45A9.45,9.45,0,0,1,168,200.86Zm13.51-40.23c-9.37,0-24.18,6.73-29.59,11.27-2,1.64-3,3.26-3.12,4.94-.27,3.24,2.73,6.77,6.21,10.85l1.47,1.74,1.45,1.75c3.56,4.31,6.63,8,10.05,8a7.9,7.9,0,0,0,5-2.23c3.27-2.75,8.6-9.45,12.46-16.94,4.14-8,5.13-14.3,2.73-17.16C186.89,161.39,184.66,160.63,181.5,160.63Z" style="fill:#3e646d"/><path d="M184.54,223c-6.81,4.77-9.14-1.82-13.91-8.63s-10.15-11.25-3.35-16,30.27-13,35-6.17S191.34,218.21,184.54,223Z" style="fill:#fda704"/><path d="M180.35,225.43c-3.5,0-5.71-3.42-8.26-7.38-.68-1-1.38-2.13-2.14-3.22s-1.54-2.12-2.3-3.11c-2.59-3.42-4.82-6.37-4.36-9.33.27-1.72,1.42-3.27,3.51-4.73,5.07-3.55,18.89-8.91,28.18-8.91,3.95,0,6.65,1,8,2.95,5.33,7.61-11.43,27.39-18,32A8.25,8.25,0,0,1,180.35,225.43Zm14.63-35c-8.66,0-22.27,5.14-27.22,8.61-1.7,1.19-2.62,2.38-2.82,3.63-.36,2.27,1.68,5,4,8.07.76,1,1.55,2,2.33,3.16s1.49,2.21,2.18,3.27c2.39,3.7,4.27,6.62,6.87,6.62a6.71,6.71,0,0,0,3.71-1.47c7-4.91,21.76-23.68,17.57-29.66C200.59,191.16,198.36,190.4,195,190.4Z" style="fill:#3e646d"/><path d="M190.29,246.86c-6.17,3.56-6.61-2.85-10.17-9s-8.89-9.76-2.72-13.32,28.94-10,32.5-3.88S196.46,243.3,190.29,246.86Z" style="fill:#fda704"/><path d="M187.23,248.71c-2.92,0-4.21-2.87-5.71-6.19-.6-1.32-1.28-2.82-2.11-4.27s-1.79-2.78-2.64-4c-1.83-2.55-3.41-4.74-2.94-6.93.29-1.34,1.32-2.51,3.16-3.57,4.56-2.63,17.3-6.54,25.54-6.54,4.23,0,7,1,8.1,3,3.94,6.82-13.64,23.73-19.92,27.35A7.11,7.11,0,0,1,187.23,248.71Zm15.3-29.79c-8,0-20.3,3.78-24.71,6.32-1.41.81-2.18,1.62-2.36,2.48-.31,1.46,1.06,3.38,2.66,5.61a38.49,38.49,0,0,1,4.91,8.51c1.5,3.33,2.44,5.21,4.2,5.21a5.64,5.64,0,0,0,2.65-.91c6.71-3.87,22.34-19.82,19.31-25.08C208.38,219.66,206.07,218.92,202.53,218.92Z" style="fill:#3e646d"/><path d="M198.21,262.38c-5.38,2.51-4-3.45-6.49-8.83s-8-8.14-2.59-10.65,27.35-7.45,29.86-2.07S203.59,259.87,198.21,262.38Z" style="fill:#fda704"/><path d="M196.08,263.8c-2.47,0-3-2.46-3.62-5.07a18.47,18.47,0,0,0-4.23-9.08c-1.36-1.79-2.53-3.34-2.14-4.91.26-1,1.11-1.85,2.69-2.59,3.94-1.84,15.24-4.56,22.78-4.56,4.6,0,7.28.95,8.18,2.89,1.28,2.74-1.29,7-7.63,12.82-5,4.51-10.78,8.54-13.55,9.83A6,6,0,0,1,196.08,263.8Zm15.48-24.55c-7.21,0-18.37,2.67-22.08,4.4-1.06.49-1.66,1-1.78,1.48-.2.8.75,2.06,1.85,3.51a20.06,20.06,0,0,1,4.53,9.71c.61,2.68,1,3.78,2,3.78a4.53,4.53,0,0,0,1.78-.51c2.6-1.21,8.36-5.21,13.14-9.56,5.41-4.93,8.12-9,7.24-10.88C217.66,239.94,215.28,239.25,211.56,239.25Z" style="fill:#3e646d"/><rect x="53.64" y="243.42" width="38.68" height="47.28" rx="4.3" ry="4.3" style="fill:#62c3ca;stroke:#3e646d;stroke-miterlimit:10;stroke-width:2px"/><rect x="53.64" y="243.42" width="38.68" height="47.28" rx="4.3" ry="4.3" style="fill:#62c3ca;opacity:0.25;mix-blend-mode:multiply"/><path d="M156.8,255.36c14.91,10.08,42.87,11.36,55.29,8.26,12.89-3.22,4.08-7.52,4.08-7.52-27.08-20-39.22-66-39.22-66v0a68.76,68.76,0,0,0-132.36-6.68c-5,2.21-7.81,7.88-7.81,19.55a70.92,70.92,0,0,0,70.92,70.92l1.07,0,1.07,0c1.34,0,2.66,0,4-.12V290.7a4.3,4.3,0,0,0,4.3,4.3H152.5a4.3,4.3,0,0,0,4.3-4.3V255.36" style="fill:#62c3ca"/><path d="M152.5,295.83H118.12A5.14,5.14,0,0,1,113,290.7v-16c-1.38.07-2.61.11-3.8.07h-1.5A71.83,71.83,0,0,1,35.94,203c0-11.12,2.53-17.54,8-20.15a69.6,69.6,0,0,1,133.76,6.73l.09.32c.12.46,12.36,45.9,38.85,65.51.6.31,3.56,1.93,3.32,4.24-.21,2-2.71,3.57-7.64,4.8a66,66,0,0,1-15.18,1.52c-12.14,0-28.63-2.4-39.48-9.06V290.7A5.13,5.13,0,0,1,152.5,295.83ZM114.65,272.9v17.8a3.47,3.47,0,0,0,3.47,3.47H152.5A3.47,3.47,0,0,0,156,290.7V253.8l1.3.88c10.48,7.08,27.45,9.61,39.84,9.61a64.4,64.4,0,0,0,14.77-1.47c5.59-1.4,6.33-2.82,6.39-3.36.11-1-1.62-2.19-2.47-2.61l-.13-.08c-24-17.68-36.42-55.94-39-64.67l-.08.13-.45-1.94a67.93,67.93,0,0,0-130.76-6.6l-.12.35-.34.15c-5,2.21-7.32,8.18-7.32,18.79a70.17,70.17,0,0,0,70.09,70.09h1.56c1.39.05,2.83,0,4.52-.11Z" style="fill:#3e646d"/><path d="M49.78,174.32l-8.08,2.94a4.3,4.3,0,0,0-2.57,5.51l1.41,3.86c3.53-4.59,9.38-5,16.94-3.72l-2.19-6A4.3,4.3,0,0,0,49.78,174.32Z" style="fill:#f3f7d1"/><path d="M40.27,188.34l-1.92-5.28a5.14,5.14,0,0,1,3.07-6.57l8.08-2.94a5.12,5.12,0,0,1,6.57,3.07L58.75,184l-1.41-.24a38.15,38.15,0,0,0-6.37-.62c-4.56,0-7.67,1.28-9.78,4Zm11-13.45a3.46,3.46,0,0,0-1.19.21L42,178a3.47,3.47,0,0,0-2.07,4.45l.92,2.54c2.38-2.4,5.71-3.58,10.14-3.58a36.45,36.45,0,0,1,5.24.43l-1.71-4.7A3.48,3.48,0,0,0,51.25,174.89Z" style="fill:#3e646d"/><g style="mix-blend-mode:multiply"><path d="M43.29,181.11a4.29,4.29,0,0,1,1.64-5l-3.23,1.17a4.3,4.3,0,0,0-2.57,5.51l1.41,3.86a10.21,10.21,0,0,1,3.67-3Z" style="fill:#f3f7d1"/></g><g style="mix-blend-mode:multiply"><path d="M53.18,182.37c1.36.1,2.8.29,4.3.55l-.2-.55A25.23,25.23,0,0,0,53.18,182.37Z" style="fill:#f3f7d1"/></g><path d="M36.77,203.81a.83.83,0,0,1-.83-.83c0-9.77,1.91-15.78,6-18.94,6.24-4.81,16.9-2,29.25,1.24l52.14,14.58a8.27,8.27,0,0,0,7.92-1.72,5,5,0,0,0,1.16-5.27.83.83,0,0,1,1.6-.46,6.74,6.74,0,0,1-1.57,6.9,10,10,0,0,1-9.55,2.15L70.76,186.88C58.84,183.75,48.54,181,43,185.35c-3.6,2.78-5.35,8.54-5.35,17.63A.83.83,0,0,1,36.77,203.81Z" style="fill:#3e646d"/><path d="M112.87,187.57l-8.08-2.94a4.3,4.3,0,0,0-5.51,2.57L97,193.36,113.65,198l1.79-4.92A4.3,4.3,0,0,0,112.87,187.57Z" style="fill:#f3f7d1"/><path d="M114.16,199,96,193.92l2.55-7a5.12,5.12,0,0,1,6.57-3.07l8.08,2.94a5.13,5.13,0,0,1,3.07,6.57Zm-16-6.21,15,4.19,1.53-4.2a3.47,3.47,0,0,0-2.07-4.44l-8.08-2.94a3.46,3.46,0,0,0-4.45,2.07Z" style="fill:#3e646d"/><g style="mix-blend-mode:multiply"><path d="M112.87,187.57l-3.23-1.18a4.29,4.29,0,0,1,1.64,5l-1.79,4.92L97.2,192.91l-.17.45L113.65,198l1.79-4.92A4.3,4.3,0,0,0,112.87,187.57Z" style="fill:#f3f7d1"/></g><g style="opacity:0.25;mix-blend-mode:multiply"><path d="M156.8,254.13v1.23h0l.44-1.7Z" style="fill:#62c3ca"/><path d="M156.8,255.42v-.05h0Z" style="fill:#62c3ca"/><path d="M167.7,241.21a82.43,82.43,0,0,1-10.44,12.47l-.44,1.7c14.92,10.07,42.86,11.35,55.27,8.25a23.28,23.28,0,0,0,4.42-1.5C189.11,256.21,174.65,247.14,167.7,241.21Z" style="fill:#62c3ca"/></g><path d="M79.75,167.28a.83.83,0,0,1-.83-.83,7.77,7.77,0,1,0-15.53,0,.83.83,0,1,1-1.66,0,9.43,9.43,0,1,1,18.85,0A.83.83,0,0,1,79.75,167.28Z" style="fill:#3e646d"/><path d="M118.44,171.58a.83.83,0,0,1-.83-.83,7.77,7.77,0,0,0-15.53,0,.83.83,0,0,1-1.66,0,9.43,9.43,0,0,1,18.86,0A.83.83,0,0,1,118.44,171.58Z" style="fill:#3e646d"/><path d="M167.36,241.31a71.22,71.22,0,0,1-10.56,12.82v1.3" style="fill:none;stroke:#3e646d;stroke-linecap:round;stroke-linejoin:round;stroke-width:2px"/><path d="M122.42,295c0-4.75,1.54-7.74,3.44-7.74s3.44,3,3.44,7.74Z" style="fill:#f3f7d1"/><path d="M130.12,295.83h-8.54V295c0-5.12,1.72-8.57,4.27-8.57s4.27,3.44,4.27,8.57Zm-6.86-1.66h5.18c-.16-3.82-1.39-6.07-2.59-6.07S123.42,290.35,123.26,294.17Z" style="fill:#3e646d"/><path d="M131.87,295c0-4.75,1.54-8.6,3.44-8.6s3.44,3.85,3.44,8.6Z" style="fill:#f3f7d1"/><path d="M139.58,295.83H131V295c0-4.57,1.5-9.43,4.27-9.43s4.27,4.86,4.27,9.43Zm-6.86-1.66h5.18c-.17-4.26-1.59-6.93-2.59-6.93S132.88,289.91,132.72,294.17Z" style="fill:#3e646d"/><path d="M141.33,295c0-4.75,1.54-7.74,3.44-7.74s3.44,3,3.44,7.74Z" style="fill:#f3f7d1"/><path d="M149,295.83H140.5V295c0-5.12,1.72-8.57,4.27-8.57S149,289.87,149,295Zm-6.86-1.66h5.18c-.16-3.82-1.39-6.07-2.59-6.07S142.33,290.35,142.18,294.17Z" style="fill:#3e646d"/><path d="M61,290.7c0-4.43,1.44-7.22,3.21-7.22s3.21,2.79,3.21,7.22Z" style="fill:#f3f7d1"/><path d="M68.2,291.53H60.12v-.83c0-4.82,1.62-8.05,4-8.05s4,3.24,4,8.05Zm-6.4-1.66h4.72c-.16-3.46-1.3-5.56-2.36-5.56S62,286.41,61.8,289.87Z" style="fill:#3e646d"/><path d="M69.78,290.7c0-4.43,1.44-8,3.21-8s3.21,3.59,3.21,8Z" style="fill:#f3f7d1"/><path d="M77,291.53H68.95v-.83c0-4.29,1.42-8.85,4-8.85s4,4.56,4,8.85Zm-6.4-1.66h4.72c-.16-3.91-1.46-6.36-2.36-6.36S70.79,286,70.63,289.87Z" style="fill:#3e646d"/><path d="M78.6,290.7c0-4.43,1.44-7.22,3.21-7.22S85,286.27,85,290.7Z" style="fill:#f3f7d1"/><path d="M85.85,291.53H77.77v-.83c0-4.82,1.62-8.05,4-8.05s4,3.24,4,8.05Zm-6.4-1.66h4.72c-.16-3.46-1.3-5.56-2.36-5.56S79.61,286.41,79.45,289.87Z" style="fill:#3e646d"/><circle cx="115.7" cy="228.02" r="6.02" style="fill:#3e646d"/><circle cx="108.36" cy="241.31" r="4.3" style="fill:#3e646d"/><circle cx="124.69" cy="239.55" r="6.02" style="fill:#3e646d"/><path d="M124.29,108c-11.87,0-30.09,18.22-30.09,30.09v0c0,11.21,8.72-.48,19.76-1.66a69.17,69.17,0,0,1,7.36.83,68.24,68.24,0,0,1,15.27,4.45,8.51,8.51,0,0,0,.59-3.66C137.19,126.24,136.16,108,124.29,108Z" style="fill:#fda704"/><path d="M96.67,143.81c-3.28,0-3.29-4.1-3.29-5.65,0-12.47,18.49-31,30.92-31S138,124.84,138,138.11a9.29,9.29,0,0,1-.68,4l-.35.7-.72-.31a67.53,67.53,0,0,0-15.08-4.4,68.65,68.65,0,0,0-7.2-.81c-4.12.46-8,2.47-11.1,4.09C100.33,142.75,98.3,143.81,96.67,143.81Zm27.62-35c-11.48,0-29.26,17.77-29.26,29.26,0,4,1.15,4,1.63,4,1.23,0,3.18-1,5.45-2.2,3.25-1.69,7.3-3.8,11.76-4.28H114a70.3,70.3,0,0,1,7.45.84,69.25,69.25,0,0,1,14.65,4.17,10.88,10.88,0,0,0,.25-2.56C136.36,125.55,135.11,108.86,124.29,108.86Z" style="fill:#3e646d"/></g></svg>