<svg xmlns="http://www.w3.org/2000/svg" viewBox="0 0 232 300"><title>tombstone</title><path d="M183.12,184.45a67.12,67.12,0,0,0-134.24,0q0,1.75.09,3.48a5.1,5.1,0,0,0-.09.94v97A5.09,5.09,0,0,0,54,291H178a5.09,5.09,0,0,0,5.09-5.09v-97a5.1,5.1,0,0,0-.09-.94Q183.12,186.2,183.12,184.45Z" style="fill:#96908a"/><path d="M62.55,279.59l-.16.06a.17.17,0,0,0,0,.12.22.22,0,0,0,.29.13c.1,0,.12-.16.08-.27S62.6,279.57,62.55,279.59Z" style="fill:#7f7b79"/><path d="M66.52,256.09c-.19.13-.41.33-.35.49.14-.11.25-.28.39-.39Z" style="fill:#7f7b79"/><path d="M66.17,256.58l-.37.44A.75.75,0,0,0,66.17,256.58Z" style="fill:#7f7b79"/><path d="M54.67,251.35l-.05,0,.05,0Z" style="fill:#7f7b79"/><path d="M65.93,270.39h-.2A.69.69,0,0,0,65.93,270.39Z" style="fill:#7f7b79"/><path d="M49.26,253.05c.06-.14,0-.28-.05-.45s-.22-.1-.32-.06h0v.1A1.67,1.67,0,0,0,49.26,253.05Z" style="fill:#7f7b79"/><path d="M54,252.3c0-.05-.12,0-.18,0a1,1,0,0,0-.28.52A1,1,0,0,0,54,252.3Z" style="fill:#7f7b79"/><path d="M55.26,251.18c.1,0,.5-.25.44-.4a.18.18,0,0,0-.21-.1.19.19,0,0,0-.08.09c-.16.06-.29.17-.23.33A.19.19,0,0,0,55.26,251.18Z" style="fill:#7f7b79"/><path d="M63,249.23c.16-.06.34-.19.28-.35a.18.18,0,0,0-.21-.1c-.05,0-.08.09-.14.11s-.15.23-.23.33A.33.33,0,0,0,63,249.23Z" style="fill:#7f7b79"/><path d="M60,254.14a.64.64,0,0,0,.3-.29c-.1-.26-.28-.43-.54-.33a.42.42,0,0,0-.12.46A.3.3,0,0,0,60,254.14Z" style="fill:#7f7b79"/><path d="M54.65,251.59s.31-.12.27-.22-.17,0-.25,0A.42.42,0,0,0,54.65,251.59Z" style="fill:#7f7b79"/><path d="M62.64,261.79l0-.05c-.08.09-.19.13-.2.25C62.52,262,62.66,261.84,62.64,261.79Z" style="fill:#7f7b79"/><path d="M83.81,246.15c.23-.33-.07-.8-.09-1.16C83.5,245.32,83.8,245.8,83.81,246.15Z" style="fill:#7f7b79"/><path d="M64.81,276.82c-.16.06-.26.1-.22.2a20.54,20.54,0,0,0,.09,2.1.24.24,0,0,0,.29.13,8.71,8.71,0,0,0,.1-2.53Z" style="fill:#7f7b79"/><path d="M100.62,278.95l-.1,0c-.1,0-.13.29-.09.39.4,1,3,1.94,3.21,1.86a.41.41,0,0,0,.26-.57C103.45,279.53,101.61,279,100.62,278.95Z" style="fill:#7f7b79"/><path d="M64.49,275.52l.21-.08a1.63,1.63,0,0,0,.42-.76A6.21,6.21,0,0,0,64.49,275.52Z" style="fill:#7f7b79"/><path d="M62.84,275.55c-.21.08-.41.33-.39.39l.16-.06c.26-.1.27-.22.25-.27Z" style="fill:#7f7b79"/><path d="M64.64,271.54c-.14-.06-.18-.17-.29-.13-.26.1-.43.28-.37.44a.42.42,0,0,0,.5.22C64.59,271.74,64.84,272.06,64.64,271.54Z" style="fill:#7f7b79"/><path d="M61.29,277.09l.26-.1a.31.31,0,0,0,.22-.2c.06-.14.27-.22.3-.47C61.65,276.48,61.61,277,61.29,277.09Z" style="fill:#7f7b79"/><path d="M106.44,277.08l.16.41c.21-.08.52-.2.44-.41S106.65,277,106.44,277.08Z" style="fill:#7f7b79"/><path d="M109.64,271.46c-.62.24-2.74,4-2.27,5.26a.61.61,0,0,0,.65.46c2-.75,2.25-3.12,2.37-5.3v0l0-.13A.71.71,0,0,0,109.64,271.46Z" style="fill:#7f7b79"/><path d="M92.92,250.4c0-.1-.49.13-.55,0a.17.17,0,0,1,0-.12c-.16-.41-.34-.58-.46-.89a5.17,5.17,0,0,1,.12-1.23c-.14-.06-.64-.11-.68-.22-.12-.31-.13-.66-.25-1-.36-.93-1.39-.54-1.87-1.78a2.1,2.1,0,0,1-.81.67c-1.24.48-2.2-.47-2.82-.23-.31.12-.19.43-.92.71a2.92,2.92,0,0,0-.95,0c-.31.12-.43,1.35-1.06,1.59a.76.76,0,0,0-.64-.11c-.73.28.85,1.46-1.17,2.23-.21.08-.48.3-.36.61s.34.58.38.69a1,1,0,0,0-.31,1.07c.2.52,1.08.66,1.49,1.09a2.89,2.89,0,0,1-.86,2.11,1.41,1.41,0,0,1-.69-.57c0-.1,0-.25,0-.35-.12-.31-.72-.32-.82-.28-.31.12-.46.65-.73.88l-.2-.52c-.31.12-.3.3-.36.61a1.06,1.06,0,0,0-.8.07c-.62.24-.94,1-1.25,1.07a.36.36,0,0,1-.43-.19c-.48-1.24-.08-2.7-.56-3.95,0-.1,0-.1-.14-.06a10,10,0,0,1,0,2.49l-.26-.38a.75.75,0,0,0-.06.62c.06.16.15.24.21.4.1,0-.12-.31,0-.49.18.47.07.8.31,1.43-.1,0-.29-.13-.29-.13a3.92,3.92,0,0,1-.13-.66c-.47.18-.51.37-.53.8-1.2,0-1.54-.3-1.66-.61s-.07-.33-.13-.49a.3.3,0,0,0-.23-.15l.28.73c-.31.12-.5.55-.78.77l-.54-1.1a.44.44,0,0,0,0,.49c.12.31.3.48.38.69C71,257,70.62,255.47,70,255c.12.31.34.58.46.89s.11.91-.31,1.07-1.34-2.58-1.71-2.91a14,14,0,0,0,1.5,3c-.41.16-.4.51-.71.63a.91.91,0,0,1-.72-.32.94.94,0,0,1-.55,1c-.25,0-.47-.3-.82-.28a1.31,1.31,0,0,0,.58.43.05.05,0,0,1,0,.07,4.8,4.8,0,0,0-.56.09A.24.24,0,0,0,67,259c.12.31.26.38.34.58s0,.35-.09.39c-.31.12-.72-.32-1.13-.16A.11.11,0,0,0,66,260c.28.73.92.24,1.12.76s-1.13.79-1.81,1.17c.43.19,1.07.31,1.23.72s-.41,1.11-.62,1.19a1,1,0,0,1-.56.09c0,.25-.13.29-.23.33s-.45.06-.66.13-.1,0-.17.18a1,1,0,0,0,.38,0,2.09,2.09,0,0,0-.48.35.54.54,0,0,1-.43-.06.08.08,0,0,0,0-.08.23.23,0,0,0-.24-.12,1.15,1.15,0,0,1-.15-.26.21.21,0,0,1,0-.16l.08,0h-.06c.15-.24.6-.47.5-.72s-.22-.1-.37,0-.39.21-.65.31-.57-.26-.65-.46c-.14-.36.28-.82.12-1.23-.16.06-.3.29-.51.37a.77.77,0,0,1-.87-.26,3,3,0,0,1-.17-.59c0-.1-.2-.22-.25-.2s-.28.35-.49.43c-.67.26-1.29-.58-1.76-.87-1.45.55-1.8-.2-2-.12s-.28.35-.59.47c-.12-.31-.06-.63-.18-.94-.47.18.45,1-.38,1.33A1.54,1.54,0,0,1,54,261c-.12-.31.42-.46.26-.87,0-.05-1-.82-1.12-1.23,0-.1.24-.45.17-.66a.05.05,0,0,0-.07,0c-.16.06-.19.43-.4.51-.12-.31-.28-.43-.36-.63s.86-.86,1.09-1.19a.19.19,0,0,0,.12,0,.05.05,0,0,0,0-.07c0-.1-.15-.24-.19-.34-.2-.52.4-.81.31-1.07a.18.18,0,0,0-.21-.1c-.05,0-.08.09-.14.11a.18.18,0,0,1-.21-.1.42.42,0,0,1,0-.25c-.08-.21-.72-.5-.8-.7s0-.28-.09-.38-1.32.27-1.63.39a6.42,6.42,0,0,0-1,.43s-.46.5-.88.93V275c.23-.19.36-.44.55-.51.41-.16,1,.4,1.12.76.06.16,0,.37,0,.53s.29.13.35.28c.46,1.19-.8,1-.62,1.48,0,.1.06.16.13.19.26-.1.75-1,1.13-1.38.29.13.68.22.74.37a1.71,1.71,0,0,1-.09.87c.06.16.11.43.37.34.2-.26.13-.76.38-.86a.61.61,0,0,1,.77.3c.16.41-.41.63-.21,1.15a.31.31,0,0,0,.41.14c.16-.06.23-.8.32-1a2.41,2.41,0,0,1,1.71.12c.3.78-.42,1.23,0,2.27,0,.1.2,0,.25,0,.41-.16,0-1.72.32-2.26,1.5-.57.86.68,1.63.39.29-.17-.17-.77.34-1s.61.66,1,.5c.57-.22-.71-.92,1.25-2,.09.08.16.12.18.17s0,.18,0,.23a.42.42,0,0,0,.2.22c.08-.09.79-.42.63-.84,0-.1-.18-.17-.22-.27a.89.89,0,0,1,.4-.67c0,.07.07.13.15.1a.13.13,0,0,0,.06-.08,4.87,4.87,0,0,0,.65.23,2.43,2.43,0,0,1,.24-.15c-.1-.26-.49-.35-.61-.66s.79-1.19,1-1.27.37,0,.47,0a.25.25,0,0,0,.18-.31,4.37,4.37,0,0,0-.41-.61,7,7,0,0,0,.3-1.24,5.3,5.3,0,0,1,1.71-.13c-.43,0-1.38-.24-1.57-.75a.41.41,0,0,1,.19-.43,5.54,5.54,0,0,1,.84-.14.63.63,0,0,0,.25-.27c-.22-.57-.84,0-1-.5a.78.78,0,0,1,0-.22,8.43,8.43,0,0,0,1.32-.62l-1.31.4a8.82,8.82,0,0,1,.44-1.12.12.12,0,0,0,.13.05,1.89,1.89,0,0,0,.69-.38,1.42,1.42,0,0,1-.66.13.31.31,0,0,0-.15.15.63.63,0,0,0,0-.39c-.16-.41-.59-.13-.76-.6,0-.06.15-.26.4-.47,1.13-.19,2.29-.26,2.51.31.08.21-.46.65-.77.77-.1,0-.25,0-.35,0,.08.21,1.66.31,1.9.94.36.93-.14.88-.46,1.6.31-.12.93-.36,1.09.06.08.21,0,.49,0,.7.18.47,1-.5,1.31.33.2.52-4.38,4.4-4.3,4.61a.24.24,0,0,0,.29.13c1.66-.63,3.08-3.44,4.12-3.83s1.12.76,2.15,1c-.5,1.5-2.87,4.3-2.86,4.66a.51.51,0,0,0,.51.4c.73-.28,1.11-1.91,2.37-2.81,2.71-1.93,5.78-4.76,6.28-5a4,4,0,0,1,1.67-.28c.3.78.41,1.39.81,2.42-.24-1.57-1.05-2.45.4-3,1.19-.46,3.48,1.17,4.12,1.75a6.56,6.56,0,0,0,3,1.1.38.38,0,0,0,0-.25c-.08-.21-.53-.15-.86-.38-1.41-1.84-4.16-1.26-5.47-4.68-1.23-3.22-.57-5.84-.63-8.79.77-.17,2.23-.38,2.39,0-.21.08-1,.85-.9,1.06a.11.11,0,0,0,.14.06c.58-.34.8-1,1.32-1.22.16.41.41.44.56.85a3.65,3.65,0,0,1-.09,1.94c.83-.32,1.22.07,1.87.24a2.57,2.57,0,0,1,.88-.81c.21-.08.62-.24.74.07,0,.1,0,.25.05.45a.36.36,0,0,0,.43.19c.41-.16.14-.88.76-1.12.25,0,.61.36.92.24s.32-.72.63-.84a2.65,2.65,0,0,0,1.05,0c.21-.08.3-.47.18-.78,0-.1-.22-.27-.26-.38s.26-.57.36-.61.43.19.53.15.06-.14,0-.25-.51-.4-.63-.71,0-.6.11-.64c.41-.16.69.57,1,.45l.06-.14c-.12-.31-.48-.65-.6-1-.24-.62,1.16-1.63,1.89-1.91,1.45-.55,2.39,0,3.63-.44.1,0,.23-.33.3-.47C98.29,250.13,94.56,252.51,92.92,250.4Z" style="fill:#7f7b79"/><path d="M88.39,276.49a1.31,1.31,0,0,0-.6,1.54q.48,1.24,2,.65c.52-.2.66-1.08.5-1.5A1.4,1.4,0,0,0,88.39,276.49Z" style="fill:#7f7b79"/><path d="M110.44,272l0-.08Z" style="fill:#7f7b79"/><path d="M76.6,277.66c-.1,0-.31.12-.38.26a1.36,1.36,0,0,0-.12,1.23.86.86,0,0,0,1.11.41,1.1,1.1,0,0,0,.54-1.39A1,1,0,0,0,76.6,277.66Z" style="fill:#7f7b79"/><path d="M61.13,277.28l-.21.08a2.25,2.25,0,0,1-.08.27l.16-.06a.41.41,0,0,0,.27-.22A.11.11,0,0,0,61.13,277.28Z" style="fill:#7f7b79"/><path d="M64.79,257.94a.11.11,0,0,0-.06.14l.14.06a5.2,5.2,0,0,0,1.43.64C65.94,258.45,65.2,257.78,64.79,257.94Z" style="fill:#7f7b79"/><path d="M64.12,238.47c-.52.2-.59,1.89-.88,2.36a2.69,2.69,0,0,0,2.55,2c.09.08.37,0,.68-.08s.55-.27.71-.33c-.08-.68,1.16-2.11,1.1-2.26l0,0a1.31,1.31,0,0,0,.3,0c.05,0,.05,0,0-.07s-.73.1-1.41-1.66c-.16-.41-1.18-1.21-1.38-1.13-.52.2-.76,1.12-1.07,1.24S64.33,238.39,64.12,238.47Z" style="fill:#7f7b79"/><path d="M88.79,271c-.1,0-.13.29,0,.6a1.11,1.11,0,0,0,1.43.64.48.48,0,0,0,.26-.57A1.33,1.33,0,0,0,88.79,271Z" style="fill:#7f7b79"/><path d="M63.41,256.8a.2.2,0,0,0,0,.12c0,.1.17.29.27.25s.1,0,.06-.14S63.51,256.76,63.41,256.8Z" style="fill:#7f7b79"/><path d="M60.42,256.76a1.11,1.11,0,0,0,.22.27c-.14-.36-1.22-1.32-1.53-1.2A.11.11,0,0,0,59,256,2.07,2.07,0,0,0,60.42,256.76Z" style="fill:#7f7b79"/><path d="M61.81,257.29a2.41,2.41,0,0,0-1-.35,2.56,2.56,0,0,0,1,.45Z" style="fill:#7f7b79"/><path d="M63.87,231c.1,0,.25,0,.35,0a.9.9,0,0,0,.47-1.25c-.2-.52-1.11-.41-1.31-.33-.41.16-.28.82-.16,1.13A.8.8,0,0,0,63.87,231Z" style="fill:#7f7b79"/><path d="M74.41,254.2a5.76,5.76,0,0,0-.13-1,1.92,1.92,0,0,0-.15.53C74.3,254.07,74.36,254.22,74.41,254.2Z" style="fill:#7f7b79"/><path d="M83.7,244.3c0-.1-.14-.06-.25,0l.28.73C83.65,244.79,83.74,244.4,83.7,244.3Z" style="fill:#7f7b79"/><path d="M72.51,254.51l-.66-2.36c-.05,0-.11-.43-.26-.38s.26,1.62.48,2.19A1.58,1.58,0,0,0,72.51,254.51Z" style="fill:#7f7b79"/><path d="M66.69,257.92c0,.1,0,.1.14.06s.21-.08.17-.18l-.14-.06-.14-.06C66.61,257.72,66.65,257.82,66.69,257.92Z" style="fill:#7f7b79"/><path d="M66.32,248.56c-.21.08-.17.18-.13.29.24.62.95,1.54,1.26,2.37a.77.77,0,0,1,.37.34c.26.38.7,1.52.8,1.48a.11.11,0,0,0,.06-.14C68.14,251.78,66.52,248.48,66.32,248.56Z" style="fill:#7f7b79"/><path d="M69.93,254.9c-.08-.21-.24-.62-.48-.65l.2.52C69.78,254.84,69.82,254.94,69.93,254.9Z" style="fill:#7f7b79"/><path d="M64.5,257.81l.21-.08c0-.05-.72-.5-.67-.52S64.3,257.89,64.5,257.81Z" style="fill:#7f7b79"/><path d="M94.77,257.42l-.1,0a.41.41,0,0,0,0,.35.58.58,0,0,0,.6,0S95.08,257.3,94.77,257.42Z" style="fill:#7f7b79"/><path d="M63.65,264.11A1.3,1.3,0,0,0,64,264Z" style="fill:#7f7b79"/><path d="M113.74,245.18l-.06.14s-.19.43-.15.53,0,.1.25,0,.23-.33.26-.57A.24.24,0,0,0,113.74,245.18Z" style="fill:#7f7b79"/><path d="M66.49,269.23c-.21.08-.29.17-.25.27s.09.08.14.06l.1,0a3.55,3.55,0,0,0,.81-.67,1,1,0,0,1-.32.24C66.82,269.16,66.59,269.19,66.49,269.23Z" style="fill:#7f7b79"/><path d="M63.58,264.1l0,0,.11,0Z" style="fill:#7f7b79"/><path d="M114.2,249.52a.53.53,0,0,0-.24.62.88.88,0,0,0,.46.42c.36-.14.57-.22.52-.5,0-.07,0-.12,0-.23A.52.52,0,0,0,114.2,249.52Z" style="fill:#7f7b79"/><path d="M108.42,249c-.07,0-.11-.14-.13-.19s-.14.11-.22.2.09.08.16.12A.33.33,0,0,0,108.42,249Z" style="fill:#7f7b79"/><path d="M113.27,246.61l.05,0c-.22-.27-.14-.36-.52-.58l-.13-.19c-.07,0-.14-.06-.16-.12l-.1,0c-.21-.1-.35-.28-.66-.17l0-.05a.17.17,0,0,1-.09-.08c-.06-.16,0-.18-.07-.33l-.07,0c-.1,0-.1.22-.15.24l-.29.17c-.05,0,0,.07-.08.09s-.07,0-.14-.06l0,.07c-.14-.36-.5-1-.71-.92l-.69-.57-.1,0a.17.17,0,0,1-.09-.08l-.1,0a2,2,0,0,0-1,0l0-.05a1.9,1.9,0,0,0-.54.15l-.36.14,0,.05c-.1,0-.19.13-.34.19l0,.05c0,.07-.14.11-.22.2l-.08.09a2.43,2.43,0,0,0-.17.48l-.08.09c-.1,0-.1,0-.14.11l-.05,0a.79.79,0,0,1,0,.35l0,.25,0,.07.06.16a1.43,1.43,0,0,0,.07.8c0,.1.08.21.15.24l.31.36.08.21.23.15c.35.28.48.47.76.42l0,.1a1,1,0,0,1,1.06.43c.16-.06.36-.14.38-.26a.57.57,0,0,1,.41.14.49.49,0,0,0,.24-.15v-.12c.1,0,.23,0,.43-.11.05,0,.05,0,.08-.09s.35,0,.43.19a.89.89,0,0,1-.07.44s.05.06.05.06c-1.72.32-3.59.8-5.34,1a2.68,2.68,0,0,0-2-.05c-.41.16-1,.5-.8,1,.51,1.35,6.08.05,8.52-.4a.81.81,0,0,0,.51-1.15,1.18,1.18,0,0,0-.65-.46l0,0,0-.1.1,0c0-.05,0-.1,0-.12a6.2,6.2,0,0,1,1,0c.24-.15.9-.28.8-.54l.48-.3,0-.05.05,0a.71.71,0,0,1-.07-.33l.1,0a6.45,6.45,0,0,0,0-.67C113.42,246.85,113.33,246.76,113.27,246.61Z" style="fill:#7f7b79"/><path d="M112.51,252.07c0,.12,0,.05,0,.12a.2.2,0,0,0,.11.14c.1,0,.16-.06.19-.13a.34.34,0,0,0-.13-.19Z" style="fill:#7f7b79"/><path d="M96.87,255.61c0,.05,0,.07-.06.14a.71.71,0,0,0,.19.34l.27-.22C97.16,255.61,97.18,255.66,96.87,255.61Z" style="fill:#7f7b79"/><path d="M93.73,259.06l-.11-.14a.7.7,0,0,0-.09.39l.07.33C93.91,259.53,93.63,259.28,93.73,259.06Z" style="fill:#7f7b79"/><path d="M120,250.22l0-.25.1,0c0-.1,0-.05,0-.12l-.1-.26a.19.19,0,0,1-.12,0,1.54,1.54,0,0,1-.13-.49l-.05,0a1.46,1.46,0,0,1-.38-.21l-.22-.27c0-.05-.09-.08-.11-.14l-.07,0c-.1,0-.08.09-.14.11s-.05,0-.12,0l0-.05c-.16.06-.14-.06-.31-.18l0-.1c-.26.1-.86.39-1.15.26-.21.08-.32.24-.26.4l-.16.06,0,.1c-.52.2-.43,1.06-.64,1.91v.18h.18c.12,0,.23.15.29.3l.08.21c0,.1.06.16.11.14l.05,0,.08.21a5.12,5.12,0,0,0,.69.09l.4.26a1.12,1.12,0,0,0,.24-.15l.23,0c.05,0,.07,0,.09.08l.58-.34a.2.2,0,0,1,.18,0l0-.07c.39-.21.32-.72.34-.67s.31-.12.38-.26l.05,0a3.48,3.48,0,0,1-.24-.32Z" style="fill:#7f7b79"/><path d="M105.92,255.83c0,.18-.06.14,0,.2a.19.19,0,0,1,.09.08l.24-.15C106.1,255.82,106.1,255.82,105.92,255.83Z" style="fill:#7f7b79"/><path d="M116.11,249.21l.08-.09a1.66,1.66,0,0,0,.26-.4c.21-.08.23,0,.38-.09l-.07-.33c0-.05.2-.25.23-.33l.05,0a.78.78,0,0,0-.22-.27l.06-.14c0-.07.08-.09,0-.25l.05,0a.18.18,0,0,0-.22-.1l-.36-.63a.82.82,0,0,1-.29-.13l-.09-.08a1.22,1.22,0,0,1-.11-.43,1.74,1.74,0,0,0-.54-.33,3.61,3.61,0,0,0-1.22,1.95l-.1,0v.18c0,.1,0,.1-.1.21l.12.31a.17.17,0,0,0,.12,0l.15.24c0,.05,0,.23.07.33a.11.11,0,0,0,.14.06l0,.1c.28,0,.4.26.78.18l0,.05C115.63,249.21,115.94,249.09,116.11,249.21Z" style="fill:#7f7b79"/><path d="M115.6,252.55a1.3,1.3,0,0,0,.26.38l.1,0c.05,0,.09.08.16.12l.07,0A1.13,1.13,0,0,0,115.6,252.55Z" style="fill:#7f7b79"/><path d="M84.07,241.07a.2.2,0,0,0,.14-.11.42.42,0,0,0,0-.23.26.26,0,0,0-.36-.16,1.16,1.16,0,0,1-.23.33A.34.34,0,0,0,84.07,241.07Z" style="fill:#7f7b79"/><path d="M102.37,260.22a1.8,1.8,0,0,0-.06.17l.34-.22C102.63,260.12,102.47,260.18,102.37,260.22Z" style="fill:#7f7b79"/><path d="M106.45,241.19c-.67.26-.94.66-.74,1.17a.2.2,0,0,0,.11.14l.05,0c.11.14.26.38.42.32l0,.05.1,0c.29.13.42,0,.68-.08l0-.1a.17.17,0,0,0,.08-.09l.08-.09a.85.85,0,0,0,0-.67,3.11,3.11,0,0,1-.19-.34l-.09-.08c-.05,0-.07,0-.09-.08l-.1,0a.77.77,0,0,1-.23-.15Z" style="fill:#7f7b79"/><path d="M117.53,234.58c-.21.08-.26.1-.2.25l.05,0h.12l0-.1.1,0Z" style="fill:#7f7b79"/><path d="M100.53,245.77c.05,0,.31.18.33.23s.34-.19.55-.27a.93.93,0,0,1,.51-.07c.29-.17.38-.56.76-.82l0-.1c.24-.15.17-.48.11-.81l.47-.18a2.17,2.17,0,0,1,.22-.68l.08-.09c.14-.11.1,0,.12-.16l.33-.07.22.27-.05,0c.13.19.11.14.27.25l.1,0c0-.18-.05-.45-.08-.68l.1,0c0-.05,0-.05,0-.12a.39.39,0,0,1,.25,0l.1,0,.18.17.24-.15a.2.2,0,0,0,0-.18c0-.1-.11-.14-.17-.29a.61.61,0,0,1,.39-.68l.4,0c-.12-.31-.07-.33.1-.51l.19-.13c.05,0,0-.05.12-.16l-.19-.34a.05.05,0,0,0,0-.07l-.06-.16c.1-.21.53-.32.41-.63a2.37,2.37,0,0,1-.15-.24c0-.1,0-.25,0-.35l.41-.16c0-.07,0-.05,0-.12-.1-.26-.22-.27-.39-.39,0-.07,0-.12,0-.2l.1,0v-.18a2.43,2.43,0,0,1,.24-.45v-.35c0-.05,0-.12,0-.18a.59.59,0,0,0-.22-.27l-.24-.62a.5.5,0,0,1-.15-.24l-.33-.23a4,4,0,0,1-.38-.21.05.05,0,0,0,0-.07l.05,0a3.55,3.55,0,0,1,0-.67c-.07,0-.22-.1-.23-.15l-.31.12c-.38.09-.27-.08-.53-.15a.5.5,0,0,0,0-.28l.05,0a.71.71,0,0,0,.09-.39l.05,0-.16-.12c-.36.14-.3.29-.59.47a.56.56,0,0,1-.42-.32.9.9,0,0,1,.07-.44l.05,0c0-.12,0-.1,0-.25a2,2,0,0,0-.17-.29c-.16.06-.16.06-.19.13v.12c0,.07,0,.07-.08.09l0,.25c0,.07,0,.19-.08.27-.21.08-.25,0-.42,0,0-.23-.05-.45-.06-.63s-.14-.06-.14-.06l-.66.13a.19.19,0,0,0-.09-.08h-.12c-.1,0-.18,0-.28,0l0-.05c-.05,0,0,.07-.08.09l-.21.08c.06.16-.14.11-.25.27-.14-.06-.23-.15-.39-.09l0-.05c-.21.08-.43.11-.64.19l-.2,0c-.14-.06-.09-.08-.2,0-.57.22-.83.79-1.09.89a4.3,4.3,0,0,1-.49.13l-.14-.06c-.29.17-.54.45-.48.6l-.05,0a.42.42,0,0,0,0,.28l-.05,0c-.05,0,0,.07-.06.14a.76.76,0,0,1-.7,0h-.18c-.21.08-.26.1-.25.27s.14.36.44.37c0,.12-.06.14,0,.25L96,236a2.08,2.08,0,0,1-.48-.17l-.05,0a.42.42,0,0,0-.13-.19l-.05,0c0-.05-.09-.08-.16-.12l-.23,0a.21.21,0,0,0-.18,0l-.2-.52c-.16.06-.21.08-.24.15l0,.05c-.47.18-.29-.3-.58-.43-.19.13-.17.18-.18.31-.31.12-.45.06-.76-.12l-.21.08c0,.07-.12.16-.15.23l-.06.14c0,.07-.08.09-.12.16s-.1,0-.18,0l0-.05c-.26.1-.49.13-.61.41l-.1,0c0,.05,0,.07,0,.12l-.63.54a.94.94,0,0,1-.34.19c-.26.1-.45.23-.58,0-.52.2.2.52-.63.84l-.2,0c-.48.6-1.11,1.14-1.13,1.56l-.05,0a1.39,1.39,0,0,1,0,.3v.18a.42.42,0,0,0,0,.23c.3.78,1,.5,1.06.6l.1,0a6.26,6.26,0,0,1,1,.69l.1,0c.09.08.47.3.53.45l.09.08a.89.89,0,0,1,.31.36l.05,0c0,.05,0,.07,0,.12l.05,0c.1.26-.14.41,0,.67l-.05,0c.08.21.15.24.27.25l0,.05a.66.66,0,0,0,.36-.61l.21-.08a1,1,0,0,0,.4.26l.05,0c.09.08.12.31.27.25l.09.08c.12.31,1.07,0,1.07,0s.19-.13.29-.17.32.06.53,0a3.43,3.43,0,0,0,.21.69c.18,0,.18.17.29.3l.05,0a.21.21,0,0,0,0,.18.71.71,0,0,0,.17.29l.22.27c.22.57,1.5.67,1.45.69.16-.06.28,0,.43-.11l.24-.15c0,.05.07,0,.09.08l.1,0c.05,0,.09.08.14.06s0-.07,0-.12l.1,0,0-.1.33-.07c.26-.1.24-.15.14-.41l.21-.08a3.27,3.27,0,0,0,.52.58.2.2,0,0,0-.14.11c.08.21.13.19.29.3l.26.38.28,0a.05.05,0,0,1,0-.07c.05,0,.21.1.23.15h0s0,.08,0,.11a.65.65,0,0,1,0-.13l0,0c.07,0,.14.06.16.12Z" style="fill:#7f7b79"/><path d="M112.68,241l.07,0h.18l-.06-.16-.16.06A.05.05,0,0,1,112.68,241Z" style="fill:#7f7b79"/><path d="M102.83,232.65l0-.07-.05,0-.05,0,0,.05Z" style="fill:#7f7b79"/><path d="M101.93,260.62l.32-.09.05-.14Z" style="fill:#7f7b79"/><path d="M102.26,261c.2,0,.41.14.61.18l.14.06c.52-.2.38-.56.34-.66l.05,0c-.08-.21-.1-.26-.24-.32l-.05,0-.86.24a2.16,2.16,0,0,1-.09.24Z" style="fill:#7f7b79"/><path d="M110.3,201.52c.26.67-.63.54-.43,1.06s.55,0,.66.34.05.45.13.66.11.14.15.24c.1.26-.46.35-.32.72a.29.29,0,0,0,.25,0c.05,0,.08-.09.14-.11s.72.32.8.53-.18.31-.12.46c.14.36.52-.2.7.27.06.16-.21.38-.07.74.21-.08.28-.35.49-.42a1.13,1.13,0,0,1,1,.32.85.85,0,0,0-.09.39.42.42,0,0,0,.2.22c.19-.13.19-.43.4-.51.27.08.55,0,.81.11l-.11.81a.3.3,0,0,0,.29.13c.15-.23.07-.74.28-.82a2.27,2.27,0,0,1,1.57.53c.39-.39-.09-.56.94-1,0,.05.21.1.27.25s-.77.17-.51.85a.47.47,0,0,0,.64.29.6.6,0,0,0,.31-.59,2.46,2.46,0,0,1-.15-.24.64.64,0,0,0,.08-.57c0-.05-.11-.14-.13-.19.3-.29.33-.54.85-.74.21.1.65.46.93.42-.06-.16-.15-.24-.23-.45-.14-.36-.14-.84.68-1.33a1.07,1.07,0,0,0,1,.27c.05,0,.05,0,0-.07-.12-.31-.81-.4-.94-.59a.94.94,0,0,1,.45-1,3.75,3.75,0,0,0,.71.14.89.89,0,0,0,0-.53.64.64,0,0,0-.41-.44c-.07-.51-.47-1.07,0-1.25.16-.06.33-.07.49-.13s.26-.1.2-.26-.74-.07-1-.38c-.26-.67.47-1,.37-1.21s-.66.13-.78-.18a.7.7,0,0,0-.07-.33,2.94,2.94,0,0,0-.64-.89.65.65,0,0,0,.11-.64c-.18-.47-1.29.2-1.49-.32-.06-.16.23-.33.2-.55s-.16-.12-.31-.18a1.16,1.16,0,0,1-.49.43c-.21.08-1.22-.07-1.35-.43s0-.6-.07-.81c0-.05,0-.1-.09-.08-.41.16.06.63-.46.83-.21.08-.34-.11-.45-.24-.21.08-.26.4-.42.46l-1.05,0-.14-.36c-.1,0-.33.07-.38.09a10.33,10.33,0,0,0-1,1.22c-.47.18-.73-.67-1.09-.53a2.92,2.92,0,0,0,.54.8,1.28,1.28,0,0,1-.55.74c-.26.1-.38-.21-.64-.11a.18.18,0,0,0-.1.22c0,.05.14.06.16.12.2.52-.67.43-.47,1,0,.05.06.16.13.19a.37.37,0,0,1-.17.48.74.74,0,0,1-.47,0c-.05,0-.16.06-.12.16s.35.28.39.39a.31.31,0,0,1-.14.41c-.1,0-.27-.08-.37,0,.1.26-.38.09-.18.6C110,201,110,200.74,110.3,201.52Z" style="fill:#7f7b79"/><path d="M112.91,214.25a1.27,1.27,0,0,0-1.54-.78,1.22,1.22,0,0,0,.82,2.3.5.5,0,0,0,.28,0C112.93,215.55,113.07,214.66,112.91,214.25Z" style="fill:#7f7b79"/><path d="M116.74,237c-.05,0-.1,0-.06.14l.31.18a.05.05,0,0,0,0-.07A.64.64,0,0,0,116.74,237Z" style="fill:#7f7b79"/><path d="M120.26,205s.16.41.31.36,0-.07,0-.12S120.28,205.08,120.26,205Z" style="fill:#7f7b79"/><path d="M131,224.5a.61.61,0,0,0-.38.86.67.67,0,0,0,.82.28c.31-.12.37-.44.37-.74A.71.71,0,0,0,131,224.5Z" style="fill:#7f7b79"/><path d="M114,244.29l.36-.14a.43.43,0,0,0-.3,0A.12.12,0,0,0,114,244.29Z" style="fill:#7f7b79"/><path d="M126.89,241c-.48-.17-1.46.38-1.64-.09a1,1,0,0,1,.69-1.15,2.4,2.4,0,0,0,.28,0,.59.59,0,0,0,.28-.82c-.34-.88-1.68.11-1.78-.15a2.42,2.42,0,0,0,0-.28c-.2-.22-.55,0-.62-.24-.09-.38-.25-1,0-1.3-.07,0-.12,0-.23,0s-.19.13-.29.17c-.52.2-.78-.18-1-.2a5.19,5.19,0,0,0,.1-.51.12.12,0,0,0-.14-.06c-.1,0-.21.38-.26.4s-.21-.1-.27-.08c-.2-.52.07-.92-.07-1.28,0-.05,0-.05-.07,0s-.18,1.08-.28,1.29c-.7,0-.56-.38-.89-.61-.19.13-.17.48-.33.54s-.29-.13-.31-.18c-.08-.21,0-.47-.08-.68-.41.16,0,.77-.47,1-.16.06-.37-.34-.45-.54s0-.35-.07-.51-.06-.16-.11-.14c-.57.22.51,1.17-.17,1.43s-.49-.35-.93-.42c-.05,0-.21.08-.15.23s.17.29.23.45-.18.31-.39.39c-.52.2-1.27-.05-1.42,0,.18.17.71.62.73.67.1.26-.47.48-.84.91a.42.42,0,0,0-.37,0c-.05,0-.08.09,0,.19s.15.24.19.34c.1.26.13.49-.18.61-.1,0-.28,0-.43.11.12.31.38.21.44.37.26.67-.61.59-.45,1,.06.16.34.11.4.26a.33.33,0,0,1,0,.23,3.67,3.67,0,0,0-.61.11c-.1,0-.16.06-.12.16s.11.11.21.11a1.07,1.07,0,0,0-.11.92,1.32,1.32,0,0,0,.11.22,2.58,2.58,0,0,1-.38.18l0,.05c.1-.08.25-.14.37-.22a.82.82,0,0,0,.72.4l0,.1.41-.16,0,0c.14.36-.17.48-.36.61.36-.14,1.05.43,1.19.62s-.2.25-.14.41c.16.41,1.53.13,1.67.49,0,.1,0,.25,0,.35a.14.14,0,0,0,.09.07l0,0a.2.2,0,0,1,0,.12l-.1,0a.2.2,0,0,1,0,.12l-.08.09,0,.28a.05.05,0,0,1,0,.07l.07,0-.05,0a.21.21,0,0,1,0,.18c.39.09.41.44.92.24a.7.7,0,0,0,.38-.86.05.05,0,0,0-.07,0l-.1-.26-.29-.13,0-.05c-.07,0,0,.07-.14-.06l-.25.09c.07-.11.1-.28.21-.32s.06,0,.09,0v.08l.16-.06v0a1.36,1.36,0,0,1,.69.42,9.43,9.43,0,0,1,.26,1.92l.07,0c0-.7.06-1.39.05-2,.26-.1.46.12.51.1.26-.1.36-.31.56-.39.47-.18.78.14,1.09.55a8.34,8.34,0,0,0-.88,0l-.2.26a1.46,1.46,0,0,1-.37.44l0,.1c-.16.36-.28.52-.12.94l.05,0a.7.7,0,0,0,.17.29l-.06.14c.08.21.18.17.33.23l.15.24a6.55,6.55,0,0,1,1.42,0c.24-.15.12-.16.18-.31l.08-.09c.76-.65.4-1,.45-1.3l-.15-.24s.05,0,0-.12l-.2-.22a.17.17,0,0,0-.12,0l-.15-.24h-.24a.86.86,0,0,1-.14-.2,1.11,1.11,0,0,0,0-.28c-.05,0-.05,0-.23-.45.16-.06.22-.2.27-.22.21-.08.31.36.52.28s-.05-.45.51-.85c.06.16.2.52.46.42.05,0,.1,0,.06-.14a2,2,0,0,0-.3-.48,2.48,2.48,0,0,1,.88-.81,1,1,0,0,0,.51.1c.05,0,.08-.09,0-.19s-.29-.13-.33-.23a3.15,3.15,0,0,1,.16-1.15,1.94,1.94,0,0,0,.51.24c.57-.22.7-.5.44-1.18l-.14-.06c-.12-.31-.53-.15-.69-.09,0-.08.15-.18.42-.28s.64-.19,1.18-.33A.05.05,0,0,0,126.89,241Z" style="fill:#7f7b79"/><path d="M127,241.08a5.21,5.21,0,0,0,1-.1A2.08,2.08,0,0,0,127,241.08Z" style="fill:#7f7b79"/><path d="M128.08,240.89a.14.14,0,0,0,.21.1C128.25,240.88,128.23,240.83,128.08,240.89Z" style="fill:#7f7b79"/><path d="M115.28,245.19c.05,0,.12,0,.18,0a.42.42,0,0,0,.28-.35C115.53,244.91,115.36,244.92,115.28,245.19Z" style="fill:#7f7b79"/><path d="M128.88,248.9c-.1,0-.08.09,0,.2.12.31.47.3.78.18.05,0,.08-.09,0-.19A.72.72,0,0,0,128.88,248.9Z" style="fill:#7f7b79"/><path d="M134.34,224.78a.19.19,0,0,1,.12,0c.16-.06.27-.22.38-.26s.36.16.45.24,0,.18,0,.23a.2.2,0,0,0,.29.13c.16-.06.16-.36.37-.44.88-.34.64.59,1,.47s-.2-.52.26-.87c.64.29.41-.33,1.32.8.21-.08-.51-1.35.68-1.8.35,0,.39.39.75.25-.1-.26-.33-.41-.41-.61a.41.41,0,0,1,.17-.48c.05,0,.4,0,.51-.07a6.13,6.13,0,0,1,.46-.83c0-.05-.3,0-.4-.26a.45.45,0,0,1,.24-.62,1,1,0,0,1,.51,0l1.17,1.33a.06.06,0,0,0,0,.06.39.39,0,0,0,.2.14l1.31,1.48-1.27-1.46a2.33,2.33,0,0,1,.32.1c.05,0,.05,0,0-.07a.25.25,0,0,0-.21-.1.72.72,0,0,0-.34-.16l-1.12-1.31a.62.62,0,0,0,.3,0c.05,0,.05,0,0-.07a.3.3,0,0,0-.25-.2l-.29,0-.66-.78s0,0,0,0l.62-.24c-.2-.52-.61.11-.85-.51-.1-.26.21-.38.17-.66a.49.49,0,0,1-.59-.31c-.14-.36.45-.23.33-.54,0-.1-.11-.14-.16-.12s-.08.09-.19.13c-.31.12-.37,0-.49-.35s.34-.37.22-.68c0-.05-.09-.08-.2,0-.26.1-.24.45-.43.58l-.7-.74c0-.28,0-.6,0-1-.25.27-.32.72-.54.92a6.6,6.6,0,0,1-1.16-.86c-.05,0-.14.41-.3.47-.77.17-1.06-.6-1.58-.41-.16.06.09.56-.79.89-.47.18-.79-.83-.95-.77a.12.12,0,0,0-.06.14,1,1,0,0,1,.24.32c.22.57-.21.85-.83,1.09-.16.06-.28,0-.43.11.07.51,0,1.25-.36,1.39-.16.06-.42,0-.58,0s-.08.09-.06.14c.1.26.38.21.46.42.14.36-.1.51-.36.61l-.31.12c.27.25.44.07.54.33s-.34.37-.28.52.39.09.43.19a.65.65,0,0,1-.37.74c.07,0,.89.61.82.58,0,.23-.18.31-.12.46.18.47.58,0,.8.53s-.47.48-.33.84c0,.05.14.06.2,0,.21-.08.18-.31.44-.41C133.34,223.26,134,224.9,134.34,224.78Z" style="fill:#7f7b79"/><path d="M135.42,235.23c-.06-.16-.2-.22-.25-.2-.67.26-.91-1.44-1.58-1.18-.3.29-.24.62-.1,1,.2.52-.89.93-.69,1.45.12.31.9.19,1.37,0S135.58,235.65,135.42,235.23Z" style="fill:#7f7b79"/><path d="M148.78,252.47c.06.16.37,0,.46.12a1,1,0,0,0,.66.34,3,3,0,0,0-1-.57C148.86,252.38,148.76,252.42,148.78,252.47Z" style="fill:#7f7b79"/><path d="M114,195a2.48,2.48,0,0,0-.15-.24,1.08,1.08,0,0,0,.09.38A.12.12,0,0,0,114,195Z" style="fill:#7f7b79"/><path d="M148.07,256.84a.05.05,0,0,0,0-.07,2.83,2.83,0,0,0-.48-.65C147.68,256.28,148,256.88,148.07,256.84Z" style="fill:#7f7b79"/><path d="M138.05,243.68c0,.05.29.6.56.68C138.48,244.17,138.21,243.62,138.05,243.68Z" style="fill:#7f7b79"/><path d="M145.42,258.45c.1,0,0-.2,0-.35l-.1-.26c-.05,0,0,.53,0,.58A.05.05,0,0,0,145.42,258.45Z" style="fill:#7f7b79"/><path d="M146.55,255a.05.05,0,0,0,0-.07c0-.1-.17-.29-.33-.23C146.4,255.1,146.4,255.1,146.55,255Z" style="fill:#7f7b79"/><path d="M143.21,243.19c-.05,0-.15.23-.18.31S143.29,243.4,143.21,243.19Z" style="fill:#7f7b79"/><path d="M126.23,223.3c.36-.14.33-.54.23-.8a.69.69,0,0,0-.91-.37c-.13.29-.32.42-.22.68A.74.74,0,0,0,126.23,223.3Z" style="fill:#7f7b79"/><path d="M137.1,227.64a.88.88,0,0,0-1.18-.44.86.86,0,0,0-.46,1.13.82.82,0,0,0,1.07.48A.83.83,0,0,0,137.1,227.64Z" style="fill:#7f7b79"/><path d="M139.79,193.64c.47-.18.74-.4.58-.82,0-.1-.15-.24-.17-.29a.61.61,0,0,0-.78-.18.59.59,0,0,0-.42.76C139.09,193.37,139.43,193.78,139.79,193.64Z" style="fill:#7f7b79"/><path d="M138.32,214.52l0-.07a.05.05,0,0,0-.07,0,1.64,1.64,0,0,0-.26.57A1.16,1.16,0,0,0,138.32,214.52Z" style="fill:#7f7b79"/><path d="M137.36,246.08c0,.1.16.12.31.18C137.61,246.1,137.49,246.09,137.36,246.08Z" style="fill:#7f7b79"/><path d="M135.75,255.84a2.83,2.83,0,0,0,.75-.82C136.29,255.1,135.77,255.6,135.75,255.84Z" style="fill:#7f7b79"/><path d="M137,245.94c.21-.08.12-.16,0-.23A.33.33,0,0,0,137,245.94Z" style="fill:#7f7b79"/><path d="M145.77,225.94l-.24-.23A2.1,2.1,0,0,0,145.77,225.94Z" style="fill:#7f7b79"/><path d="M169.33,189c.1,0,.1,0,.17-.18-.12-.31-.9-.49-1-.45s-.13.29-.09.39A1.28,1.28,0,0,0,169.33,189Z" style="fill:#7f7b79"/><path d="M144.48,228.8a1.08,1.08,0,0,0-.76-.42A.62.62,0,0,0,144.48,228.8Z" style="fill:#7f7b79"/><path d="M143.66,223.66c.79.9,1.46,1.64,1.87,2C145.18,225.35,144.5,224.6,143.66,223.66Z" style="fill:#7f7b79"/><path d="M178.86,213.65c-.21.08-.13-.66-1-.34-.62.24-1.21-.37-1.58-.7-.52.2-.18.78-.8,1s-.66.13-1.1-1a28.27,28.27,0,0,1-1.53-5.24c0-.1-.18-.17-.39-.09-.93.36,3,6,.41,7-.41.16-.59-.61-1-.45a.35.35,0,0,0-.19.43,4.8,4.8,0,0,1,.3.48c.08.21-.09.39-.4.51s-.68-.22-.78-.18c-.62.24.58,1.2-.35,1.56a.94.94,0,0,1-.88-.14,4.8,4.8,0,0,0,.09.56c.08.21.47.3.51.4a1,1,0,0,1-.62,1.19,1,1,0,0,1-.56.09c.24.62.8.53.91.84s-.26.57-.28.82a4.82,4.82,0,0,1-.56.09c-.1,0,0,.35,0,.35,0,.35-.3.47-.38.86.33.23.42.79.79,1.13-.13.29-1,.5-.76,1.12.12.31,1.42.29,2.33,1.13a18,18,0,0,0-2.78,2.37c.79-.42,2.95-2.55,3.67-2.83.1,0,2.1,1.46,2.06,1.35,0,.1,0,.25,0,.35s.22.27.33.23.38-.26.69-.38a1.06,1.06,0,0,1,1.15.51c0,.1-.06.14,0,.25s.14.06.25,0c-.18.78-.31,1.67-.38,1.81s-.35,3.41-.67,6.19a.91.91,0,0,0-.4,0,1.55,1.55,0,0,0-.83,1.86,1,1,0,0,1,.3.48.72.72,0,0,0,.63.39,7.79,7.79,0,0,0-.07,1.07,5.18,5.18,0,0,0,.28-1.05,3.47,3.47,0,0,0,.73-.05c.69-.38,1.19-.93.91-1.66.21-.08.69.57,1.42.29.47-.18.58-.82.63-.84a1.25,1.25,0,0,0-1.78-.63c-.06.14,0,.25-.13.29l0-.1c-.21.08,0,.6-.11.64l-.18-.17c.1,0,0-.25,0-.25-.35-.06-.72-.18-1.06-.25.48-3.67,1-8.61,1.3-8.74a.61.61,0,0,1,.64.11l1.14-.44a1.79,1.79,0,0,0,.69.57c.07-.74.16-1.13.89-1.41l1.56-.59a.39.39,0,0,0,.15-.53.41.41,0,0,0-.22-.27,2.28,2.28,0,0,1,1.26-2v-11.6c-.44-.11-.9-.35-1-.32C181,210.22,178.75,213.69,178.86,213.65Z" style="fill:#7f7b79"/><path d="M182.5,193c-.21.08-.34.37-.54.44a.41.41,0,0,1-.35,0c-.06,1.09-.68,1.33-.48,2.8a2.27,2.27,0,0,0,2,1.42v-4.82A2.52,2.52,0,0,0,182.5,193Z" style="fill:#7f7b79"/><path d="M143.3,200.5a4.79,4.79,0,0,1,.27,1.32c0,.1.35,0,.49,0,.49,0,.55.5,1.08.66a1.17,1.17,0,0,0,0,.6c.16.41.78.18,2,.44.12.31,0,.6,0,.95,0,.1.14.06.25,0,.41-.16.26-.57.67-.73.93-.36,1.56.35,1.77.27.52-.2.46-.65.49-.9.62-.24,1.12-.19,1.53-.35,1.14-.44,2-4.2,2.27-4.31,0-.1-.51-.4-.63-.71-.24-.62.12-1.23.11-1.59a1.65,1.65,0,0,1-1.32-1.28.94.94,0,0,0-.07-.8c-.21.08-.27.22-.38.26-.41.16-.86-.38-1-.7a1.41,1.41,0,0,1-.13-.66c-1.38-1.13-2.33-1.13-3.06-.85-1,.4-.92.71-1.53,1.29-.13.29-.19.43-.5.55s-.41-.44-.82-.28-.21,1.62-1.25,2c-.31.12-.6,0-.7,0,.12.31.44.54.52.75a7.79,7.79,0,0,1-.87,2.71A3.07,3.07,0,0,1,143.3,200.5Z" style="fill:#7f7b79"/><path d="M180.27,199.92c.1,0,.44-.41.36-.61-.29-.13-.51-.4-.72-.32,0,0-.44.41-.36.61S180.16,200,180.27,199.92Z" style="fill:#7f7b79"/><path d="M142.24,232.87c-.1,0-.21.08-.17.18a2.47,2.47,0,0,0,1.67.31c-.39-.09-.61-.36-1-.45A.84.84,0,0,0,142.24,232.87Z" style="fill:#7f7b79"/><path d="M161.77,219a1.54,1.54,0,0,0,1.52.25c.93-.36,1-.6.9-2a1.56,1.56,0,0,0-1.93-.69,1.37,1.37,0,0,0-.79,2C161.55,218.72,161.62,218.93,161.77,219Z" style="fill:#7f7b79"/><path d="M134.92,290.85c-.1,0-.14.06-.12.15h1.09a.19.19,0,0,0,0-.11C135.75,290.53,135,290.83,134.92,290.85Z" style="fill:#7f7b79"/><path d="M182.72,255.18c0-.1.06-.14,0-.25-.16-.41-1.29-.58-2-.3-.41.16-.58.34-1,.5-.21.08-1.95.51-1.95.51l.06-.14c-1.38-.19-1.69-.07-1.77-.27l.1,0a1.66,1.66,0,0,1-1.5-.5c-.24-.62.34-1,.19-1.38-.24-.62-.59-.61-1.15-.51,0,.1-.54.45-.38.86s.38.69.46.89a1.37,1.37,0,0,0,0,.6c-.31.12-1.27-.23-2.21.13a1.9,1.9,0,0,0-.69.38c-.45.06-.94-.59-1.39-.54-.73.28-.75.52-1.19.93-.1-.26-.64-.11-1.05,0-1.09.42-2.11,1.94-1.93,2.4a.11.11,0,0,0,.14.06c.05.45.05.45-.22.68a4,4,0,0,1-.6-1c0-.1-.08-.21,0-.25-.16-.41-1.86-.83-2.61-1.85,1.35-.51.83-1.86,1.35-2.06a.11.11,0,0,0,.14.06.91.91,0,0,0,.46-.65c-.1,0-.14-.06-.18-.17a1.27,1.27,0,0,1,.37-1.21,6.81,6.81,0,0,1-.75-1c-.16-.41.18-.78.1-1a.49.49,0,0,0-.47-.3c-.08-.21-.05-.45-.13-.66-.28-.73-1.62-1.25-2.75-1.61-.07-.45-.07-.75,0-.79.41-.16.82.28,1.21.37,1-.4-.35-1.53.79-2,.21-.08.37.34.78.18a.41.41,0,0,0,.26-.57c-.08-.21-.26-.38-.34-.58s.7-1,1-1.1.49,0,.7,0a.71.71,0,0,0,.32-.72,1.11,1.11,0,0,0-.22-.27,1.41,1.41,0,0,1,.59-1.89c.73-.28-.35-2.48,1-3,.73-.28,6.12-1.56,6.89-1.86.1,0,.1,0,.08-.09-.12-.31-7.8,1.2-7.8.72a3.69,3.69,0,0,1,.63-3.33c-.2-.52-.86-.38-1.42-.29-.67-1.76.73-1.82.33-2.86-.12-.31-2,.55-2.92-1.74-.2-.52.46-.65.15-1.48a2.72,2.72,0,0,0-1.4,1c-.18-.17-.53-.15-.61-.36-.2-.52.47-1.25.28-1.77-.08-.21-.29-.13-.39-.09s-.15.53-.53.8-.43-.19-.51-.4,0-.6-.11-.91c0-.1-.08-.21-.18-.17-.31.12-.25,1.52-.67,1.68-.73.28-1.38-.19-1.8-1a6.36,6.36,0,0,0,.16-1.13c-.08-.21-.43-.19-.53-.15-.52.2-.13,1.83-.86,2.11-1.45.55-.8-1.48-2.15-1a3.75,3.75,0,0,1-1.7,2.08.57.57,0,0,1-.68-.22,4.54,4.54,0,0,1-.33-1.18.29.29,0,0,0-.43-.19c-.1,0-.11.64,0,.95a1,1,0,0,0,.3.48c.2.52-.41,1.11-.72,1.23a.83.83,0,0,1-.92-.24l-.79.42-1.11-1.36a1.49,1.49,0,0,0-.87-.73c.85,1,1.8,1.92,2.51,2.84a1.5,1.5,0,0,1-.74.87c-1,.4-2.34-.53-3-1.1.67.81,2,1.49,2.23,2.12a.91.91,0,0,1-.18.78c-.21.08-.53-.15-.78-.18s-.26.57-.14.88c0,.1.12.31.26.38-.09.39-.34,1-.66,1.08s-.56.09-.77.17c.24.62-.07.74-.38.86-.52.2-1.34-.08-1.55,0s-.1,0-.17.18a15.48,15.48,0,0,1,2.34.53c.62,2.26-1.27,2.27-.8,3.51.2.52.69.57.93,1.19.4,1-1.25,1.07-.94,1.9s1.55,0,1.94,1c.16.41-.2,1,0,1.55s1,.1,1.38.19a.84.84,0,0,0,.05.45,5,5,0,0,0,.75,1,8.65,8.65,0,0,0-1.07,1.21.22.22,0,0,1-.11-.11c-.12-.31.55-.74.55-.74-.06-.16-1.09.42-1.52-.72-.13-.19-.46-.12-.52-.28s.22-.2.24-.45a2,2,0,0,1-.43.28c-.26.1-.8-.53-.87-.56-.09-.38.7-.8.58-1.11,0-.05,0-.05-.07,0-.26.1-.54.92-.7,1.28l-1-.4c-.05,0-.07,0-.09-.08-.1-.26.12-.46,0-.72,0,0-.36.91-.78,1.07-1.51.1-1.38-.19-1.8-1,.24.62.42,1.09-.26,1.35-.47.18-.48-.17-.83-.16a1.16,1.16,0,0,1-.54,1.39c-.57.22-.68-.39-1-.25a2.05,2.05,0,0,1,.74.55c.06.16-.06.32-.19.43s-.42,0-.58,0c0,.05,0,.07,0,.12s.33.23.39.39c0,.47-.65.78-.59.94s.13.19.18.17c0,.55-.65.31-.4,1a.22.22,0,0,0,.18.17c.24.62-.44.88-.38,1s.22.1.22.1.14-.11.19-.13.14.06.29.13a1.16,1.16,0,0,0-.11.81.92.92,0,0,0,.2.22c0,.25-.23.33-.15.53a.29.29,0,0,0,.18.17,2.33,2.33,0,0,1-.15.53c.37,0,.82-.19,1.1.23a1.32,1.32,0,0,0,.46.42l0,.53c0,.05.07,0,.12,0s.17-.18.32-.24,1,.52,1,.68c.32.83-.59,2.49-.56,2.59a1.32,1.32,0,0,0,0,.42c0,.05,0,.1.09.08s.52-3,1-3.19c.67-.26,1.51.37,1.51.37s.16-.36.37-.44.57.26.81.4c.15-.23-.05-.45,0-.55a1.34,1.34,0,0,1,.86-.09c.17-.18.26-.57.62-.71.27.08.44.37.62.54a.71.71,0,0,1-.17-.29c-.28-.73,1.58-2.56,1.47-2.52.26-.1.61.36,1,.2a3.47,3.47,0,0,0-.84-.33c-.05,0-.07,0-.09-.08s.1-.21.06-.32-.15-.24-.17-.29c-.12-.31.48-.3.34-.66-.06-.16-.15-.24-.21-.4a.6.6,0,0,1,.32-.72c-.14-.06-.37,0-.43-.19a.25.25,0,0,1,.11-.34c.16-.06.35,0,.51-.08-.2-.52-.59.17-.83-.46a1.86,1.86,0,0,1-.06-.26,3.67,3.67,0,0,1,1.13-.8c.62-.24.88.14,1.12.76a3.52,3.52,0,0,1,0,1.3c0,.1.43.19.64.11a1.68,1.68,0,0,0,.67-.73c.74.07,2,.05,2.24.57.12.31-.11.64,0,1.05,0,.1.22.27.33.23.62-.24.51-1.15,1-1.34h.05c-.18.48,0,1-.45,1.45l.18.17c-.83.32-.84.91-.6,1.54a.11.11,0,0,1,.14.06c.19,1.12-.77,1.72-.65,2,0,.1.29.13.39.09s.27-.22.38-.26,1,.8,1.14,1.11.13.66.21.87c.36.93,2.79,1.07,2.79,1.07s-1.38,1.36-2,1.84c.08.21.37.34.41.44.28.73-1,1.2-1.07,1.24a2.75,2.75,0,0,0,.77.77c-.17.18-.11.64-.14.88-.14-.06-.25,0-.45.05s-.44.41-.36.61a.59.59,0,0,0,.72.32.41.41,0,0,0,.27-.22,4.1,4.1,0,0,0,.56.85c-.21.08-.09.39-.15.53a7.1,7.1,0,0,0,2.1,1.46c.12.31.14.06.26.38.36.93.44,1.14-.39,1.46-.21.08-.41-.44-.72-.32a.39.39,0,0,0-.17.18s-1.82-2.28-2-2.2a.24.24,0,0,0-.13.29c.4,1,1.14,1.11,1.22,1.32l.12.31.06-.14c.24.62.25,0,.52.75a.39.39,0,0,1-.17.18c-.1,0-.29-.13-.33-.23a.39.39,0,0,1,.17-.18c-.18-.17-.41-.44-.51-.4.1,0-1.13,2.33-1.32,2.76a3.8,3.8,0,0,0-1.08.29c.94-1,.74-1.47.7-1.58-.12-.31-.53-.15-.69-.57a4.85,4.85,0,0,1-.09-.56c-.08-.21-.41-.44-.48-.65-.38.26,0,3,0,3s-.06.14-.17.18-.1,0-.25,0c-.93.36-.51,1.15-2.38,1.86-.08-.21-.9-.49-1-.45a.11.11,0,0,1-.06.14l.1,0c-.21.08-.27.22-.48.3a.89.89,0,0,1-1.13-.16c-1.66,2.18,1.31,1.88-2,3.14-.52.2-.64-.11-.95,0-.52.2-.34.37-.31,1.07a1.2,1.2,0,0,1,.48.65s-.81.67-.66,1.08c-.1,0-.14-.06-.25,0-.34.58-.56.38-.68.9-.33.47-1.19,1.14-1.63,1.77.42.79,1.42.29,1.73,1.12.63,1.66-.74,2.42-.71,3.12a1.65,1.65,0,0,0-1,.15c-.21.08-.38.26-.3.47s.47.3.68.22.58-.34.79-.42c.62-.24.84,0,1,.45s0,.49.07.8.22.27.3.48c.36.93-.42.76-.78,2.32a1.17,1.17,0,0,0,.6,0c.1,0,.21-.08.17-.18a.39.39,0,0,0,.25,0c.21-.08.58-.34.54-.45.62-.24.61.36.82.28l.06-.14a3.66,3.66,0,0,0,1.51.85,3.69,3.69,0,0,1,.26,1.4H178a5.09,5.09,0,0,0,5.09-5.09v-30.7C182.9,255.21,182.74,255.21,182.72,255.18Z" style="fill:#7f7b79"/><path d="M136.54,279.24a1.1,1.1,0,0,0-.72,1.23,3.32,3.32,0,0,0,1.19.62l.31-.12c.62-.24,1.14-.44.71-1.58C137.58,278.84,136.75,279.16,136.54,279.24Z" style="fill:#7f7b79"/><path d="M151.76,261.54c-.26-.38-.6-1-1-1-.1,0-.06.14,0,.25S151.45,261.66,151.76,261.54Z" style="fill:#7f7b79"/><path d="M170.15,244.66a.91.91,0,0,0,.46-.65,3.44,3.44,0,0,0-1.31,2.17A1.91,1.91,0,0,0,170.15,244.66Z" style="fill:#7f7b79"/><path d="M171.61,226.39c.17-.18.52-.2.4-.51-.28-.73-.69-.57-.73-.67-.31.12-.62.24-.42.76C171,226.28,171.19,226.55,171.61,226.39Z" style="fill:#7f7b79"/><path d="M149.8,251.12c.1,0,.13-.29.09-.39a.48.48,0,0,0-.57-.26.82.82,0,0,0,.44.54Z" style="fill:#7f7b79"/><path d="M139.28,285.79c-.83.32-.26.57-.77.77.2.52.69.57,1.21.37.31-.12.84-.91.76-1.12S139.6,285.67,139.28,285.79Z" style="fill:#7f7b79"/><path d="M139.89,269.64a.11.11,0,0,1,.06-.14c.1,0,1-.4,1.32-.27a.39.39,0,0,1,.17-.18c0,.1.14.06.25,0s.41-.16.48-.3c0,.1,0,.1.14.06a.39.39,0,0,0,0-.25c-.32-.83-1.54-.6-1.64-.56-.31.12-.38.26-.48.3s-.14-.06-.18-.17a.41.41,0,0,0-.27.22,1.72,1.72,0,0,0-1.05,0c-.31.12-.58.34-.46.65,0,.1,0,.1.14.06C138.91,268.95,139.68,269.72,139.89,269.64Z" style="fill:#7f7b79"/><path d="M140.77,272.27c1.54,1.42,2.8,2.09,3.29,2C143.65,274.16,142,272.85,140.77,272.27Z" style="fill:#7f7b79"/><path d="M153.72,267c-.14-.06,0-.1-.18-.17l0,.1-.06.14Z" style="fill:#7f7b79"/><path d="M152.61,264.07c-.38.26-.38.26-.5.55a2.65,2.65,0,0,0,.75,1,2,2,0,0,0,1,.8.59.59,0,0,0,.39.09c.31-.12.32-.72.16-1.13C154.07,264.46,152.73,264.38,152.61,264.07Z" style="fill:#7f7b79"/><path d="M154.36,264.59c.31-.12.89,1.09,1.2,1a10.27,10.27,0,0,0-2.39-2.53c.34.58.62,1.31,1,1.29C154.27,264.68,154.2,264.65,154.36,264.59Z" style="fill:#7f7b79"/><path d="M152,253.48c.16.41.16.41.61.36C152.55,253.64,152.43,253.32,152,253.48Z" style="fill:#7f7b79"/><path d="M107.83,201q0,.19-.56.28a48.17,48.17,0,0,1-5.32.17,47.27,47.27,0,0,1-5-.17,2.87,2.87,0,0,1-.7-.14,1.24,1.24,0,0,1-.39-.56q-.42-1.09-1.22-3.23-1.09-2.78-3.4-8.21a2.46,2.46,0,0,0-2.31-1.2q.83.06-2.87.06-.42,0-.42,1.42,0,1.89.35,5.65t.35,5.65q0,.47-.25.56l-.78.06q-1.64.11-5.12.11a36.87,36.87,0,0,1-4.79-.17q-.81-.17-.81-.86,0-3.06.29-9.24t.29-9.27q0-11.77-.53-18.37l0-.39q0-.47.88-.64t8.5-.33q5.15-.11,8.21-.11a17.39,17.39,0,0,1,10.35,2.87,10.74,10.74,0,0,1,4.54,9.32,15.07,15.07,0,0,1-1.17,6.49,13.21,13.21,0,0,1-4.31,4.7q-.64.45-.64.83s1.13,2.31,3.4,7S107.83,200.51,107.83,201ZM96.14,176q0-3.39-2.23-4.7a11.15,11.15,0,0,0-5.4-1q-2.64,0-2.81.81a48.3,48.3,0,0,0-.17,5.46q0,.64,0,1.89t0,1.87.89.28a24.39,24.39,0,0,0,3.56.25Q96.14,180.87,96.14,176Z" style="fill:#3f3531"/><path d="M122.27,180.7q0,3.29.17,9.88t.17,9.88q0,.56-.25.7a5.83,5.83,0,0,1-.72.11,41.56,41.56,0,0,1-4.84.22,35.39,35.39,0,0,1-5.18-.22q-.81-.17-.81-.86,0,.45.25-4.9.5-11.27.5-14.81,0-3-.19-8.93t-.19-8.93q0-.61.64-.61.86,0,2.6.08t2.6.08q.86,0,2.55-.08t2.55-.08q.81,0,.81.61,0,3-.32,8.93T122.27,180.7Z" style="fill:#3f3531"/><path d="M161.29,177.11q0,6.74-3.53,10.91-3.79,4.43-10.44,4.43-1.11,0-3.35-.13t-3.35-.12q-1.2,0-1.2,1,0,1.28.25,3.81t.25,3.79q0,.64-.58.64-1.7,0-5.09-.1t-5.09-.1a.71.71,0,0,1-.81-.81q0-3.09.1-9.28t.1-9.28q0-8.74-.75-18.37l0-.39q-.06-.53.83-.64,2.17-.28,9.57-.28,4.37,0,8.38.11a15.23,15.23,0,0,1,10.63,4.15A14.27,14.27,0,0,1,161.29,177.11Zm-11.1.45q0-6.48-6.32-6.48-4.45,0-4.68.5A45.33,45.33,0,0,0,139,178q0,.86.07,2.55t.07,2.55q0,.56,5,.56Q150.19,183.65,150.19,177.55Z" style="fill:#3f3531"/><path d="M92.24,222.63c0,.14,0,.22-.09.25a.77.77,0,0,1-.27,0q-.6.06-1.68.06a14.33,14.33,0,0,1-1.8-.06q-.27-.06-.27-.26,0-.77.07-2.32t.07-2.32q0-.38-.21-.44a18.24,18.24,0,0,0-2.36-.08,18.65,18.65,0,0,0-2.38.08q-.21,0-.21.44,0,.76,0,2.28t0,2.28a.3.3,0,0,1-.26.34,15.5,15.5,0,0,1-1.84.06,14.14,14.14,0,0,1-1.68-.06.29.29,0,0,1-.28-.3q0-1.05.1-3.18t.1-3.19q0-1.13-.1-3.4t-.1-3.4c0-.14.07-.21.21-.21l.91,0,.91,0,.94,0,.94,0q.17,0,.17.18,0,.73-.11,2.19T83,213.79c0,.23.06.36.19.4a18.86,18.86,0,0,0,2.5.08,19,19,0,0,0,2.42-.08q.23-.06.23-.4,0-.7-.07-2.12t-.07-2.13c0-.2.08-.3.24-.3l.86,0,.87,0,.86,0,.87,0q.28,0,.28.23,0,1.12-.09,3.39t-.09,3.4q0,1.06.1,3.19T92.24,222.63Z" style="fill:#3f3531"/><path d="M102.91,217.63q0,1-.63,1.12l-2,.21q-1.15.13-3.44.3a1.39,1.39,0,0,0,.83,1,2.92,2.92,0,0,0,1.29.27,3.69,3.69,0,0,0,1.75-.47l.74-.47a2.91,2.91,0,0,1,.69,1,3.66,3.66,0,0,1,.48,1.14s0,.12-.15.22a4.83,4.83,0,0,1-3.7,1.28A5.21,5.21,0,0,1,95,221.86a4.81,4.81,0,0,1-1.46-3.68,5.25,5.25,0,0,1,1.31-3.68A4.6,4.6,0,0,1,98.42,213a4.24,4.24,0,0,1,3.18,1.37A4.54,4.54,0,0,1,102.91,217.63Zm-3.42-.6a1.51,1.51,0,0,0-.43-1.06,1.36,1.36,0,0,0-1-.46,1.23,1.23,0,0,0-1,.52,1.78,1.78,0,0,0-.37,1.12q0,.26.27.26a17.21,17.21,0,0,0,2.25-.22C99.38,217.16,99.49,217.1,99.49,217Z" style="fill:#3f3531"/><path d="M110.46,216.85q0,.38-.42.38l-.54,0-.53,0a1.75,1.75,0,0,0-1.1.25,1.35,1.35,0,0,0-.29,1q0,.42,0,1.27t0,1.27c0,.19,0,.47,0,.84s0,.65,0,.83-.11.24-.32.26-.79,0-1.44,0a14.85,14.85,0,0,1-1.48-.06q-.32,0-.32-.32,0-.78,0-2.34t0-2.34a14.19,14.19,0,0,0-.42-3.78.69.69,0,0,1,0-.15.19.19,0,0,1,.15-.2q.54-.06,1.57-.21l1.59-.3q.18,0,.22.62t.18.62.8-.51a3.76,3.76,0,0,1,1.81-.51q.55,0,.55.23a7.63,7.63,0,0,1-.06.8q-.06.56-.07.8t0,.75Q110.46,216.66,110.46,216.85Z" style="fill:#3f3531"/><path d="M120.55,217.63q0,1-.63,1.12l-2,.21q-1.15.13-3.44.3a1.39,1.39,0,0,0,.83,1,2.92,2.92,0,0,0,1.29.27,3.69,3.69,0,0,0,1.75-.47l.74-.47a2.91,2.91,0,0,1,.69,1,3.66,3.66,0,0,1,.48,1.14s0,.12-.15.22a4.83,4.83,0,0,1-3.7,1.28,5.21,5.21,0,0,1-3.75-1.36,4.81,4.81,0,0,1-1.46-3.68,5.25,5.25,0,0,1,1.31-3.68,4.6,4.6,0,0,1,3.57-1.48,4.24,4.24,0,0,1,3.18,1.37A4.54,4.54,0,0,1,120.55,217.63Zm-3.42-.6a1.51,1.51,0,0,0-.43-1.06,1.36,1.36,0,0,0-1-.46,1.23,1.23,0,0,0-1,.52,1.78,1.78,0,0,0-.37,1.12q0,.26.27.26a17.21,17.21,0,0,0,2.25-.22C117,217.16,117.13,217.1,117.13,217Z" style="fill:#3f3531"/><path d="M130.17,217.05q0,2.67,0,4.09c0,.15,0,.41,0,.77s0,.59,0,.77-.08.22-.24.24a10.65,10.65,0,0,1-1.58.08,8.47,8.47,0,0,1-1.49-.08.29.29,0,0,1-.24-.26v-.42q0-.87,0-2.6t0-2.59q0-4.1,0-3.74a30.9,30.9,0,0,0-.24-3.72,1,1,0,0,1,0-.17c0-.14.08-.21.25-.21h3.49c.16,0,.24.07.22.21v.18Q130.17,213.81,130.17,217.05Z" style="fill:#3f3531"/><path d="M135.58,218.45q0,.71,0,2.12t0,2.11c0,.14-.08.22-.24.24a11.35,11.35,0,0,1-1.49.06,11.46,11.46,0,0,1-1.5-.06c-.14,0-.23-.07-.26-.13a1.11,1.11,0,0,1,0-.29q0-.67,0-2t0-2A35.7,35.7,0,0,0,132,214c0-.1,0-.17,0-.21s.09-.2.26-.2.46,0,.83.06.66.06.84.06.47,0,.85,0,.66,0,.85,0,.23.07.23.2,0,.09,0,.19A39.91,39.91,0,0,0,135.58,218.45Zm.25-7.26q0,1.7-1.91,1.7a2.11,2.11,0,0,1-1.36-.43,1.63,1.63,0,0,1,0-2.52,2.06,2.06,0,0,1,1.34-.45,2,2,0,0,1,1.32.46A1.54,1.54,0,0,1,135.83,211.19Z" style="fill:#3f3531"/><path d="M146.41,217.63q0,1-.63,1.12l-2,.21q-1.15.13-3.44.3a1.39,1.39,0,0,0,.83,1,2.92,2.92,0,0,0,1.29.27,3.69,3.69,0,0,0,1.75-.47l.74-.47a2.91,2.91,0,0,1,.69,1,3.66,3.66,0,0,1,.48,1.14s0,.12-.15.22a4.83,4.83,0,0,1-3.7,1.28,5.21,5.21,0,0,1-3.75-1.36,4.81,4.81,0,0,1-1.46-3.68,5.25,5.25,0,0,1,1.31-3.68,4.6,4.6,0,0,1,3.57-1.48,4.24,4.24,0,0,1,3.18,1.37A4.54,4.54,0,0,1,146.41,217.63ZM143,217a1.51,1.51,0,0,0-.43-1.06,1.36,1.36,0,0,0-1-.46,1.23,1.23,0,0,0-1,.52,1.78,1.78,0,0,0-.37,1.12q0,.26.27.26a17.21,17.21,0,0,0,2.25-.22C142.88,217.16,143,217.1,143,217Z" style="fill:#3f3531"/><path d="M153.19,215a.47.47,0,0,1-.15.26,2.23,2.23,0,0,0-.55-.07,1.74,1.74,0,0,0-1,.25.93.93,0,0,0-.47.83,1.46,1.46,0,0,0,.5.87,9.75,9.75,0,0,1,.93,1.06,2.8,2.8,0,0,1,.5,1.59,3.18,3.18,0,0,1-.2,1.05,2.05,2.05,0,0,1-.57.9,6.74,6.74,0,0,1-1.69,1.05,4.91,4.91,0,0,1-1.92.45q-.2,0-.87-1.06a4.3,4.3,0,0,1-.68-1.29c0-.06,0-.09.11-.11l1.38-.25q.86-.27.86-.9a1.63,1.63,0,0,0-.5-1l-.93-1a2.53,2.53,0,0,1-.5-1.48,3,3,0,0,1,1.48-2.49,4.94,4.94,0,0,1,2.84-.91q.16,0,.77,1A5.11,5.11,0,0,1,153.19,215Z" style="fill:#3f3531"/><path d="M80.74,234q0,.45.05,1.34t.05,1.34q0,.23-.21.25-.73.05-1.66.05-.11,0-.15-.34t-.09-.34l-.12.1a2,2,0,0,1-1.41.66,2.36,2.36,0,0,1-1.89-.9,3,3,0,0,1-.71-2,3.16,3.16,0,0,1,.73-2.18,2.65,2.65,0,0,1,2.09-.86,1.79,1.79,0,0,1,1.45.64l0,0s.08-.09.12-.28.1-.28.16-.28a5.15,5.15,0,0,1,.83.12,8.36,8.36,0,0,1,.83.2q.09,0,.09.09a1.05,1.05,0,0,1,0,.12A12.88,12.88,0,0,0,80.74,234Zm-1.89,0a1.14,1.14,0,0,0-.31-.82,1.19,1.19,0,0,0-1.63,0,1.21,1.21,0,0,0,0,1.64,1.07,1.07,0,0,0,.8.34,1.09,1.09,0,0,0,.81-.33A1.14,1.14,0,0,0,78.85,234Z" style="fill:#3f3531"/><path d="M91.12,228.62q0-.13,0,.39t-.1,1.66q0,1.15,0,2.61a30.17,30.17,0,0,0,.13,3.45q0,.11,0,.14s0,.07-.09.08-.66,0-1.55,0q-.32,0-.36-.12l0-.45a.18.18,0,0,0,0-.09l-.09.07a2.17,2.17,0,0,1-1.58.62,2.48,2.48,0,0,1-2-.87,3.09,3.09,0,0,1-.71-2.09,3.15,3.15,0,0,1,.7-2.1,2.47,2.47,0,0,1,2-.88,1.73,1.73,0,0,1,1.38.56q.08.09.12.09s.05-.05.05-.15q0-.45,0-1.35t0-1.34q0-.17.09-.19l1-.07a8.83,8.83,0,0,0,1-.15Q91.12,228.47,91.12,228.62ZM88.91,234a1.16,1.16,0,0,0-.32-.81,1,1,0,0,0-.78-.35.94.94,0,0,0-.76.35,1.28,1.28,0,0,0-.28.83,1.18,1.18,0,0,0,.29.8.94.94,0,0,0,.76.35,1,1,0,0,0,.79-.35A1.2,1.2,0,0,0,88.91,234Z" style="fill:#3f3531"/><path d="M97.35,233.75q0,.59-.38.67l-1.21.13q-.69.08-2.06.18a.83.83,0,0,0,.5.58,1.76,1.76,0,0,0,.77.16,2.21,2.21,0,0,0,1-.28l.45-.28a1.74,1.74,0,0,1,.41.6,2.2,2.2,0,0,1,.29.69s0,.07-.09.13a2.9,2.9,0,0,1-2.22.77,3.13,3.13,0,0,1-2.25-.81,2.89,2.89,0,0,1-.88-2.21,3.15,3.15,0,0,1,.79-2.21,2.76,2.76,0,0,1,2.14-.89,2.54,2.54,0,0,1,1.91.82A2.73,2.73,0,0,1,97.35,233.75Zm-2.05-.36a.91.91,0,0,0-.26-.64.81.81,0,0,0-.62-.28.74.74,0,0,0-.61.31,1.07,1.07,0,0,0-.22.67q0,.16.16.16a10.29,10.29,0,0,0,1.35-.13Q95.3,233.46,95.3,233.39Z" style="fill:#3f3531"/><path d="M103.89,234q0,.45.05,1.34t.05,1.34q0,.23-.21.25-.73.05-1.66.05-.11,0-.15-.34t-.09-.34l-.12.1a2,2,0,0,1-1.41.66,2.36,2.36,0,0,1-1.89-.9,3,3,0,0,1-.71-2,3.16,3.16,0,0,1,.73-2.18,2.65,2.65,0,0,1,2.09-.86,1.79,1.79,0,0,1,1.45.64l0,0s.08-.09.12-.28.1-.28.16-.28a5.15,5.15,0,0,1,.83.12,8.36,8.36,0,0,1,.83.2q.09,0,.09.09a1.05,1.05,0,0,1,0,.12A12.88,12.88,0,0,0,103.89,234ZM102,234a1.14,1.14,0,0,0-.31-.82,1.19,1.19,0,0,0-1.63,0,1.21,1.21,0,0,0,0,1.64,1.07,1.07,0,0,0,.8.34,1.09,1.09,0,0,0,.81-.33A1.14,1.14,0,0,0,102,234Z" style="fill:#3f3531"/><path d="M111.26,228.62q0-.13,0,.39t-.1,1.66q0,1.15,0,2.61a30.17,30.17,0,0,0,.13,3.45q0,.11,0,.14s0,.07-.09.08-.66,0-1.55,0q-.32,0-.36-.12l0-.45a.18.18,0,0,0,0-.09l-.09.07a2.17,2.17,0,0,1-1.58.62,2.48,2.48,0,0,1-2-.87,3.09,3.09,0,0,1-.71-2.09,3.15,3.15,0,0,1,.7-2.1,2.47,2.47,0,0,1,2-.88,1.73,1.73,0,0,1,1.38.56q.08.09.12.09s.05-.05.05-.15q0-.45,0-1.35t0-1.34q0-.17.09-.19l1-.07a8.83,8.83,0,0,0,1-.15Q111.26,228.47,111.26,228.62ZM109.05,234a1.16,1.16,0,0,0-.32-.81,1,1,0,0,0-.78-.35.94.94,0,0,0-.76.35,1.28,1.28,0,0,0-.28.83,1.18,1.18,0,0,0,.29.8.94.94,0,0,0,.76.35,1,1,0,0,0,.79-.35A1.2,1.2,0,0,0,109.05,234Z" style="fill:#3f3531"/><path d="M124.49,236.71q0,.21-.18.23t-.87,0a6.41,6.41,0,0,1-.89,0q-.18,0-.18-.29t0-.81q0-.54,0-.81,0-1,0-1.46,0-.7-.66-.7a.85.85,0,0,0-.55.23.78.78,0,0,0-.3.51q0,.25,0,1.44,0,.28,0,.83t0,.84q0,.19-.17.19H119q-.16,0-.16-.24t0-.83q0-.55,0-.83t0-.66q0-.44,0-.66,0-.84-.64-.84a1,1,0,0,0-.56.2q-.33.22-.33.46,0,.53,0,1.59t0,1.59a.29.29,0,0,1,0,.18.33.33,0,0,1-.18,0q-.26,0-.83,0-.37,0-.84,0a.31.31,0,0,1-.17,0,.33.33,0,0,1,0-.18q0-.47,0-1.4t0-1.4a18.77,18.77,0,0,0-.14-2.16.71.71,0,0,1,0-.11.13.13,0,0,1,.08-.13,2,2,0,0,1,.49-.09l.52-.05.46-.12a1.78,1.78,0,0,1,.46-.08q.11,0,.12.41t0,.41l.13-.08a5.53,5.53,0,0,1,.83-.56,2.23,2.23,0,0,1,1-.22,1.91,1.91,0,0,1,1,.24,1.25,1.25,0,0,1,.62.76,2.46,2.46,0,0,1,.86-.71,2.27,2.27,0,0,1,1.06-.29,2.07,2.07,0,0,1,1.26.36,1.35,1.35,0,0,1,.55,1.15q0,.31,0,.93t0,.93q0,.37,0,1.11T124.49,236.71Z" style="fill:#3f3531"/><path d="M131.24,234a3,3,0,0,1-.82,2.17,3.17,3.17,0,0,1-4.27,0,2.83,2.83,0,0,1-.83-2.11,3.09,3.09,0,0,1,.8-2.21,2.82,2.82,0,0,1,2.16-.85,2.88,2.88,0,0,1,2.14.83A2.93,2.93,0,0,1,131.24,234Zm-1.92,0a1.26,1.26,0,0,0-.29-.82.91.91,0,0,0-.74-.35.94.94,0,0,0-.76.36,1.31,1.31,0,0,0,0,1.62,1,1,0,0,0,1.52,0A1.25,1.25,0,0,0,129.32,234Z" style="fill:#3f3531"/><path d="M137.78,236.76a.17.17,0,0,1-.16.18q-.16,0-.86,0a6.69,6.69,0,0,1-.91,0,.21.21,0,0,1-.18-.24q0-.28,0-.83t0-.84q0-.22,0-.65t0-.65q0-.8-.7-.8a1,1,0,0,0-.53.2q-.33.22-.33.44v3.16a.19.19,0,0,1-.18.22q-.21,0-.84,0a6.82,6.82,0,0,1-.89,0,.18.18,0,0,1-.18-.19q0-.46,0-1.38t0-1.38a9,9,0,0,0-.23-2.29.42.42,0,0,1,0-.09.13.13,0,0,1,.09-.13l1-.13q.93-.18,1-.18s.08.13.1.4.06.4.1.4.17-.14.63-.41a2.49,2.49,0,0,1,1.22-.41,2.1,2.1,0,0,1,1.24.35,1.31,1.31,0,0,1,.56,1.13v1.87q0,.38,0,1.14T137.78,236.76Z" style="fill:#3f3531"/><path d="M142.18,232.19a.28.28,0,0,1-.09.16,1.35,1.35,0,0,0-.33,0,1,1,0,0,0-.58.15.56.56,0,0,0-.28.5.88.88,0,0,0,.3.52,5.88,5.88,0,0,1,.56.64,1.68,1.68,0,0,1,.3,1,1.91,1.91,0,0,1-.12.63,1.23,1.23,0,0,1-.34.54,4.05,4.05,0,0,1-1,.63,3,3,0,0,1-1.15.27q-.12,0-.52-.64a2.59,2.59,0,0,1-.41-.78s0-.06.06-.06l.83-.15q.52-.16.52-.54a1,1,0,0,0-.3-.6l-.56-.63a1.52,1.52,0,0,1-.3-.89,1.79,1.79,0,0,1,.89-1.49,3,3,0,0,1,1.71-.54q.09,0,.46.63A3.06,3.06,0,0,1,142.18,232.19Z" style="fill:#3f3531"/><path d="M146.95,235.21a4.81,4.81,0,0,1,0,.53,4.8,4.8,0,0,0,0,.52.41.41,0,0,1,0,.21.71.71,0,0,1-.19.13A3.42,3.42,0,0,1,145,237q-1.69,0-1.69-1.29,0-.39,0-1.16t0-1.16q0-.26-.3-.26h-.15q-.22,0-.22-.16t0-.29q0-.19,0-.29t0-.37q0-.25,0-.37t.38-.13q.21,0,.23-.12a4.32,4.32,0,0,0,0-.7q0-.76,0-.72,0-.68.13-.68a2.09,2.09,0,0,1,.45.07l.46.09.9.11q.15,0,.15.1t0,.71q0,.47,0,.71t.17.29l.62,0,.63,0q.13,0,.13.09t0,.4q0,.27,0,.4t0,.41q0,.27,0,.41t-.17.12h-1.22q-.09,0-.09.26v.42q0,.28,0,.42a1.45,1.45,0,0,0,.11.68.68.68,0,0,0,.62.25,1.89,1.89,0,0,0,.42-.07,1.88,1.88,0,0,1,.38-.07Q146.95,235.09,146.95,235.21Z" style="fill:#3f3531"/><path d="M152.93,233.75q0,.59-.38.67l-1.21.13q-.69.08-2.06.18a.83.83,0,0,0,.5.58,1.76,1.76,0,0,0,.77.16,2.21,2.21,0,0,0,1-.28l.45-.28a1.74,1.74,0,0,1,.41.6,2.2,2.2,0,0,1,.29.69s0,.07-.09.13a2.9,2.9,0,0,1-2.22.77,3.13,3.13,0,0,1-2.25-.81,2.89,2.89,0,0,1-.88-2.21,3.15,3.15,0,0,1,.79-2.21,2.76,2.76,0,0,1,2.14-.89,2.54,2.54,0,0,1,1.91.82A2.73,2.73,0,0,1,152.93,233.75Zm-2.05-.36a.91.91,0,0,0-.26-.64.81.81,0,0,0-.62-.28.74.74,0,0,0-.61.31,1.07,1.07,0,0,0-.22.67q0,.16.16.16a10.29,10.29,0,0,0,1.35-.13Q150.88,233.46,150.88,233.39Z" style="fill:#3f3531"/><path d="M157.46,233.28q0,.23-.25.23h-.64a1,1,0,0,0-.66.15.81.81,0,0,0-.18.62q0,.25,0,.76t0,.76q0,.17,0,.51t0,.5-.19.16q-.28,0-.86,0a8.91,8.91,0,0,1-.89,0q-.19,0-.19-.19,0-.47,0-1.4t0-1.4a8.51,8.51,0,0,0-.25-2.27.42.42,0,0,1,0-.09.11.11,0,0,1,.09-.12l.94-.13,1-.18q.11,0,.13.37t.11.37.48-.31a2.26,2.26,0,0,1,1.08-.31q.33,0,.33.14a4.58,4.58,0,0,1,0,.48q0,.33,0,.48t0,.45Q157.46,233.17,157.46,233.28Z" style="fill:#3f3531"/><path d="M183.12,184.45a67.12,67.12,0,0,0-134.24,0q0,1.75.09,3.48a5.1,5.1,0,0,0-.09.94v97A5.09,5.09,0,0,0,54,291H178a5.09,5.09,0,0,0,5.09-5.09v-97a5.1,5.1,0,0,0-.09-.94Q183.12,186.2,183.12,184.45Z" style="fill:none;stroke:#514844;stroke-miterlimit:10;stroke-width:1.75px"/></svg>